<svg xmlns="http://www.w3.org/2000/svg" viewBox="0 0 30 30"><g id="Layer_2" data-name="Layer 2"><g id="Layer_2-2" data-name="Layer 2"><path id="Subtraction_17" data-name="Subtraction 17" d="M15,30A15,15,0,1,1,30,15,15,15,0,0,1,15,30ZM11,11.82a.22.22,0,0,0-.22.22V14.7a.23.23,0,0,0,.22.23h1.62v8.83a.22.22,0,0,0,.22.23H16.1a.23.23,0,0,0,.23-.23V14.93h2.34a.23.23,0,0,0,.22-.21l.23-2.66a.27.27,0,0,0-.06-.17.21.21,0,0,0-.17-.07H16.33V9.93a.8.8,0,0,1,.8-.8h1.8a.23.23,0,0,0,.23-.22h0V6.24A.23.23,0,0,0,18.93,6h-3a3.24,3.24,0,0,0-3.24,3.24v2.57Z"/></g></g></svg>