<svg xmlns="http://www.w3.org/2000/svg" viewBox="0 0 30 30"><g id="Layer_2" data-name="Layer 2"><g id="Layer_2-2" data-name="Layer 2"><path id="Path_52537" data-name="Path 52537" d="M15,30A15,15,0,1,1,30,15,15,15,0,0,1,15,30ZM20.06,8.91A1.11,1.11,0,1,0,21.17,10h0a1.12,1.12,0,0,0-1.11-1.11Zm-4.94,1.43A4.66,4.66,0,1,0,19.79,15h0a4.67,4.67,0,0,0-4.66-4.66Zm0,7.65a3,3,0,1,1,3-3h0a3,3,0,0,1-3,3Zm9.41-6.87a5.68,5.68,0,0,0-5.69-5.68h-7.5a5.68,5.68,0,0,0-5.69,5.68h0v7.51a5.69,5.69,0,0,0,5.69,5.69h7.5a5.69,5.69,0,0,0,5.69-5.69h0Zm-1.78,7.51a3.91,3.91,0,0,1-3.91,3.91h-7.5a3.91,3.91,0,0,1-3.91-3.91h0V11.12a3.91,3.91,0,0,1,3.91-3.9h7.5a3.91,3.91,0,0,1,3.91,3.9h0Z"/></g></g></svg>