<svg xmlns="http://www.w3.org/2000/svg" viewBox="0 0 30 30"><g id="Layer_2" data-name="Layer 2"><g id="Layer_2-2" data-name="Layer 2"><path id="Subtraction_15" data-name="Subtraction 15" d="M15,30A15,15,0,1,1,30,15,15,15,0,0,1,15,30Zm3.37-15.77c1.42,0,1.72,1.25,1.72,2.3v5.21a.25.25,0,0,0,.25.25h2.89a.25.25,0,0,0,.25-.25v-5.6c0-2.87-1.46-4.59-3.9-4.59a3.36,3.36,0,0,0-3.06,1.69V12a.25.25,0,0,0-.25-.25H13.38a.29.29,0,0,0-.18.07.31.31,0,0,0-.07.18c0,1.72,0,9.38,0,9.7a.26.26,0,0,0,.26.25h2.89a.25.25,0,0,0,.25-.25V16.29a2.06,2.06,0,0,1,.11-.82,1.85,1.85,0,0,1,1.74-1.24ZM8.11,11.79a.25.25,0,0,0-.25.25h0v9.7a.25.25,0,0,0,.25.25H11a.25.25,0,0,0,.25-.25V12a.25.25,0,0,0-.25-.25H8.11ZM9.45,6.86a1.82,1.82,0,1,0,1.82,1.82A1.81,1.81,0,0,0,9.45,6.86Z"/></g></g></svg>