<svg xmlns="http://www.w3.org/2000/svg" viewBox="0 0 30 30"><g id="Layer_2" data-name="Layer 2"><g id="Layer_2-2" data-name="Layer 2"><path id="Subtraction_16" data-name="Subtraction 16" d="M15,30A15,15,0,1,1,30,15,15,15,0,0,1,15,30ZM6.3,20.49l-.08,0,0,0s0,.05.07.08.37.23.62.36a9.52,9.52,0,0,0,2,.8,11.59,11.59,0,0,0,3.1.42,10,10,0,0,0,7.17-2.82A10.6,10.6,0,0,0,22,11.51c0-.09.09-.15.17-.2l0,0A7.13,7.13,0,0,0,23.6,9.82a.44.44,0,0,0,.09-.27V9.5h0l-.05,0a7.09,7.09,0,0,1-1.76.5c.29-.06.73-.6.87-.77a3.34,3.34,0,0,0,.59-1.08s0-.07,0-.09h0l-.06,0a9.19,9.19,0,0,1-2.1.8h0a.16.16,0,0,1-.1-.05l-.18-.19a3.82,3.82,0,0,0-1-.62,3.57,3.57,0,0,0-1.33-.25h-.23a3.5,3.5,0,0,0-1.48.42,3.89,3.89,0,0,0-1.2,1,3.8,3.8,0,0,0-.71,1.42,4,4,0,0,0,0,1.51s0,.07,0,.08h-.06A11.22,11.22,0,0,1,7.51,8.55c0-.05-.07-.07-.1-.07s0,0-.09.08a3.64,3.64,0,0,0,.62,4.31,4.21,4.21,0,0,0,.44.39h0A3.71,3.71,0,0,1,7,12.87l-.07,0s-.06,0-.06.1a1.88,1.88,0,0,0,0,.41,3.7,3.7,0,0,0,2.28,2.95,2.44,2.44,0,0,0,.46.14,3.33,3.33,0,0,1-.7.07l-.66,0h0a.09.09,0,0,0-.07,0,.17.17,0,0,0,0,.1A3.85,3.85,0,0,0,11,19l.16,0a.91.91,0,0,1,.23,0h0a4.22,4.22,0,0,1-1.87,1l-.09,0a7,7,0,0,1-2.35.41c-.21,0-.42,0-.62,0Z"/></g></g></svg>