<svg xmlns="http://www.w3.org/2000/svg" viewBox="0 0 271.35 74.62"><defs><style>.cls-1{fill:#002466;}.cls-2{fill:#6cb644;}</style></defs><g id="Layer_2" data-name="Layer 2"><g id="Layer_2-2" data-name="Layer 2"><g id="haziran-logo-"><g id="Haziran-Logo0000"><path id="FILO-DESTEK" class="cls-1" d="M20.28,69.39h4.24a8.41,8.41,0,0,0,3.73-.77A7.79,7.79,0,0,0,31,66.52a9.22,9.22,0,0,0,1.67-3.08,11.88,11.88,0,0,0,.58-3.74,9.29,9.29,0,0,0-.3-2.47,5.07,5.07,0,0,0-1-1.91,4.35,4.35,0,0,0-1.7-1.24,6.52,6.52,0,0,0-2.51-.44H23.65ZM19.09,49h9a11.09,11.09,0,0,1,8,2.54,9.44,9.44,0,0,1,2.66,7.19,19.38,19.38,0,0,1-.91,6,13.5,13.5,0,0,1-2.71,4.85,12.26,12.26,0,0,1-4.52,3.21A15.86,15.86,0,0,1,24.27,74H13.84Zm30.55,0H68.73l-1,4.62H54.2L53.08,59H65.65l-.91,4.27H52.17l-1.3,6.13h13.8l-1,4.62H44.43Zm28.28,16.7a4.83,4.83,0,0,0,.32,2.22,3.25,3.25,0,0,0,1.12,1.42,4.63,4.63,0,0,0,1.75.75,9.56,9.56,0,0,0,2.2.23A6.65,6.65,0,0,0,85,70.13a5.26,5.26,0,0,0,1.53-.63,3.64,3.64,0,0,0,1.12-1.09,2.94,2.94,0,0,0,.44-1.61,2.06,2.06,0,0,0-.56-1.49,4.87,4.87,0,0,0-1.46-1,12,12,0,0,0-2-.73c-.76-.21-1.52-.44-2.29-.67a18.73,18.73,0,0,1-2.31-.84,7.91,7.91,0,0,1-2-1.26A5.88,5.88,0,0,1,76,58.92a6.27,6.27,0,0,1-.55-2.73,6.89,6.89,0,0,1,.88-3.58,7.21,7.21,0,0,1,2.27-2.39,10,10,0,0,1,3.17-1.37,15,15,0,0,1,3.59-.44,14.37,14.37,0,0,1,3.63.44,8.24,8.24,0,0,1,3,1.42,6.88,6.88,0,0,1,2,2.51,8.23,8.23,0,0,1,.76,3.69H89.51a3.85,3.85,0,0,0-.3-1.77,3.15,3.15,0,0,0-.94-1.17,3.9,3.9,0,0,0-1.46-.64,8,8,0,0,0-3.34,0,4.51,4.51,0,0,0-1.42.53,2.93,2.93,0,0,0-1,1,2.69,2.69,0,0,0-.38,1.47,2,2,0,0,0,.68,1.52,6,6,0,0,0,1.65,1A11.4,11.4,0,0,0,85,59l1.64.37a19.84,19.84,0,0,1,2.7.89,7.51,7.51,0,0,1,2.12,1.31,5.42,5.42,0,0,1,1.38,2,7.27,7.27,0,0,1,.49,2.84,7.36,7.36,0,0,1-.93,3.82A7.87,7.87,0,0,1,90,72.73a10.11,10.11,0,0,1-3.27,1.41,15.18,15.18,0,0,1-3.61.44,12.12,12.12,0,0,1-7.83-2.13,8.25,8.25,0,0,1-2.57-6.73Zm31.67-12.08h-7.84l1-4.62H123.6l-1,4.62h-7.49L110.86,74h-5.54ZM131,49h19.08l-.94,4.62H135.55L134.43,59H147l-.91,4.27H133.52l-1.29,6.13H146L145,74H125.79Zm28,0h5.5l-2.18,10.47h.07L173.7,49H181L169,59.31,176.64,74h-6.2l-5.71-11.24-3.81,3.32L159.27,74h-5.5Z"/><path id="Fill-4" class="cls-2" d="M22.58.92,8.45,62H0L14.12.92h8.46L15,27.3"/><path id="Fill-5" class="cls-2" d="M40.05,2.84A17.17,17.17,0,0,1,49.39,0c5.73,0,12.34,3.48,12.34,11a26.38,26.38,0,0,1-.94,6.85L55.08,42.38H46.64l5.88-25.47a17.27,17.27,0,0,0,.57-4.41c0-2.55-1.3-5.37-5.88-5.37a12,12,0,0,0-7.59,2.49c-3.17,2.56-4.54,5.81-6.13,12.58L28.8,42.38H20.27L29.85,1h8.53L37.5,4.78A22.84,22.84,0,0,1,40.05,2.84Z"/><path id="Fill-6" class="cls-2" d="M88.68.92l-1.59,7h-7l-4.87,21a31.42,31.42,0,0,0-.9,4.91c0,1.23.73,1.51,2,1.51a6,6,0,0,0,1.12-.11c.6-.09,1.54-.26,3.26-.55l1.37-.23-1.6,6.76-.43.19a16.67,16.67,0,0,1-6.66,1.25c-5.35,0-7.46-2.82-7.46-6.47a29.1,29.1,0,0,1,1-6.36l5-21.89H65.65l1.59-7H88.68"/><path id="Fill-7" class="cls-2" d="M142.29,4.77c.41-.4.89-.82,1.47-1.3.35-.31.75-.65,1.21-1a10.6,10.6,0,0,1,1.73-1.07A13.63,13.63,0,0,1,153.8.31l1,.14L153,8.4l-.76,0a11.17,11.17,0,0,0-6.8,1.3C140.6,12.54,138.89,19.41,138,23l-4.45,19.35h-8.27L134.8,1h8.36l-.86,3.78"/><path id="Fill-8" class="cls-2" d="M188.69,29.81a23.06,23.06,0,0,1-9.45,11.11,21.38,21.38,0,0,1-10.52,2.38,18.3,18.3,0,0,1-11-3.11c-6.44-4.57-6.58-12.15-6.58-14.42,0-13.18,8.55-25.77,23-25.77,10.31,0,15.8,5.93,16.34,12.77l.07.78-7.88,1.92-.21-.92c-.58-2.55-1.84-7.34-8.58-7.34-8.77,0-14.09,9.66-14.09,18.14,0,5.88,3,11.25,9.48,11.25a10.32,10.32,0,0,0,5.87-1.78A12.16,12.16,0,0,0,180,28.2l.26-.67,8.88,1.17Z"/><path id="Fill-9" class="cls-2" d="M123.84,29.59l-.43,1.06c-4.33,10.66-14,12.66-19.87,12.66-10.37,0-17.16-6.73-17.16-17.71C86.38,13.38,94.26,0,109.26,0c11,0,15.82,7.37,15.82,17.12a28.2,28.2,0,0,1-.52,5.35l-.13.77H94.8c0,.69-.09,1.31-.09,2,0,9.32,7,11.08,10.26,11.08a11.36,11.36,0,0,0,10.52-7.52l.3-.65Zm-7.1-13c0-.28,0-.55,0-.83,0-6-4-8.9-7.91-8.9-2.53,0-9.16,1.46-12.33,9.74Z"/><path id="Fill-10" class="cls-2" d="M194.11,62h-8.45l14.12-61h8.46Z"/><path id="Fill-11" class="cls-2" d="M232.42.92l-1.6,7h-7l-4.87,21a29.26,29.26,0,0,0-.9,4.91c0,1.23.73,1.51,2,1.51a6.07,6.07,0,0,0,1.12-.11c.6-.09,1.54-.26,3.25-.55l1.38-.23-1.61,6.76-.42.19a16.67,16.67,0,0,1-6.66,1.25c-5.35,0-7.46-2.82-7.46-6.47a29.08,29.08,0,0,1,.94-6.36l5-21.89h-6.27l1.59-7h21.44"/><path id="Fill-12" class="cls-2" d="M271.35.92,240.65,52.8c-3.59,6-5.67,8.93-13.63,8.93a24.26,24.26,0,0,1-4.66-.34l-1-.14,1.77-7.55.86.16a17.06,17.06,0,0,0,2.94.23,7.12,7.12,0,0,0,1.53-.11,5.81,5.81,0,0,0,3.89-2.7c.62-.83,1.15-1.7,1.44-2.15l5-8.6L234.38.92h8.33l2.9,29.47L261.89.92h9.46"/></g></g></g></g></svg>