<svg xmlns="http://www.w3.org/2000/svg" viewBox="0 0 63.21 62.82"><g id="Layer_2" data-name="Layer 2"><g id="Layer_2-2" data-name="Layer 2"><g id="Group_38480" data-name="Group 38480"><g id="Line_80" data-name="Line 80"><path d="M35.44,9.19a1.25,1.25,0,0,1-1.25-1.25V1.25a1.25,1.25,0,0,1,2.5,0V7.94A1.25,1.25,0,0,1,35.44,9.19Z"/></g><g id="Line_81" data-name="Line 81"><path d="M62,29H55.27a1.25,1.25,0,0,1,0-2.5H62A1.25,1.25,0,0,1,62,29Z"/></g><g id="Line_82" data-name="Line 82"><path d="M54.19,47.77a1.26,1.26,0,0,1-.88-.36l-4.73-4.73a1.25,1.25,0,0,1,1.77-1.77l4.73,4.73a1.25,1.25,0,0,1,0,1.77A1.28,1.28,0,0,1,54.19,47.77Z"/></g><g id="Line_83" data-name="Line 83"><path d="M21.42,15a1.21,1.21,0,0,1-.88-.37L15.81,9.9a1.25,1.25,0,0,1,1.76-1.77l4.74,4.74A1.25,1.25,0,0,1,21.42,15Z"/></g><g id="Line_84" data-name="Line 84"><path d="M49.46,15a1.21,1.21,0,0,1-.88-.37,1.24,1.24,0,0,1,0-1.76l4.73-4.74A1.25,1.25,0,0,1,55.08,9.9l-4.73,4.73A1.25,1.25,0,0,1,49.46,15Z"/></g><g id="Line_85" data-name="Line 85"><path d="M43.15,10.75a1.23,1.23,0,0,1-.49-.1A1.24,1.24,0,0,1,42,9l2.6-6.17a1.25,1.25,0,1,1,2.3,1L44.3,10A1.24,1.24,0,0,1,43.15,10.75Z"/></g><g id="Line_86" data-name="Line 86"><path d="M53.81,21.55a1.25,1.25,0,0,1-.47-2.41l6.2-2.52a1.25,1.25,0,1,1,.94,2.32l-6.2,2.52A1.27,1.27,0,0,1,53.81,21.55Z"/></g><g id="Line_87" data-name="Line 87"><path d="M45.43,53.59a1.27,1.27,0,0,1-1.16-.78l-2.52-6.2a1.25,1.25,0,0,1,2.32-.94l2.52,6.2a1.25,1.25,0,0,1-.69,1.63A1.27,1.27,0,0,1,45.43,53.59Z"/></g><g id="Line_88" data-name="Line 88"><path d="M28,10.65a1.23,1.23,0,0,1-1.16-.78L24.3,3.67a1.25,1.25,0,1,1,2.31-.94l2.52,6.2a1.25,1.25,0,0,1-.68,1.63A1.35,1.35,0,0,1,28,10.65Z"/></g><g id="Line_89" data-name="Line 89"><path d="M59.88,39.33a1.23,1.23,0,0,1-.49-.1l-6.16-2.6a1.25,1.25,0,1,1,1-2.31l6.16,2.61a1.25,1.25,0,0,1-.48,2.4Z"/></g><g id="Path_51944" data-name="Path 51944"><path d="M30.72,62.82a3.76,3.76,0,0,1-1.47-.27c-6.44-2.19-12.91-8-19.22-17.3-.18-.26-.31-.45-.39-.55s-.16-.25-.28-.41c-6.3-9-9.62-17.66-9.34-24.4,0-.56.13-2.7,3-4.44,2-1.25,5.53-3.35,7.16-3.12A3.35,3.35,0,0,1,13,14.59l3.66,8.57a4.16,4.16,0,0,1-.63,4.68l-2.88,3.49a78.61,78.61,0,0,0,4.68,7.6l0,0,.05.06a81,81,0,0,0,5.39,7.11L27.7,44.7a4.11,4.11,0,0,1,4.52,1.11L39,52.39a3.32,3.32,0,0,1,1,3.47c-.36,1.55-3.6,4.12-5.5,5.51A6.09,6.09,0,0,1,30.72,62.82Zm-.45-2.55s1,.38,2.68-.9c2.24-1.63,4.38-3.58,4.61-4.18a.9.9,0,0,0-.27-.95l-6.85-6.67-.07-.07a1.64,1.64,0,0,0-1.83-.45l-5.21,1.73A1.25,1.25,0,0,1,22,48.41a84,84,0,0,1-6.1-7.94l0,0-.07-.11a82.75,82.75,0,0,1-5.19-8.54,1.24,1.24,0,0,1,.14-1.38l3.45-4.19a1.67,1.67,0,0,0,.29-1.92l-.05-.09L10.7,15.48a.92.92,0,0,0-.78-.67h0c-.69,0-3.26,1.29-5.56,2.76-1.83,1.1-1.84,2.2-1.83,2.25v.12c-.28,6.2,2.88,14.34,8.89,22.91l.29.42c.05.06.19.28.4.58,7.49,11,13.93,15,18,16.35l.16.07Zm-14.49-20,.08.11A.76.76,0,0,0,15.78,40.31Zm2-1.44.06.06h0Z"/></g><g id="Group_38479" data-name="Group 38479"><g id="Path_51945" data-name="Path 51945"><path d="M43.31,35.05h-2.5v-3.6H35.69a1.25,1.25,0,0,1-1.07-1.91L41,19.27a1.25,1.25,0,0,1,2.31.66v9H46v2.5H43.31ZM37.93,29h2.88V24.32Z"/></g><g id="Path_51946" data-name="Path 51946"><path d="M33.54,35H24.21l.17-1.4c.4-3.27,3.69-6.06,5.28-7.4l.16-.13a3.59,3.59,0,0,0,1.42-2.64,2.25,2.25,0,0,0-4.5.07v.79h-2.5v-.79a4.75,4.75,0,0,1,9.5,0A6,6,0,0,1,31.39,28l-.12.1a16.3,16.3,0,0,0-3.95,4.39h6.22Z"/></g></g></g></g></g></svg>