<svg xmlns="http://www.w3.org/2000/svg" viewBox="0 0 62.64 56.12"><g id="Layer_2" data-name="Layer 2"><g id="Layer_2-2" data-name="Layer 2"><g id="Group_38338" data-name="Group 38338"><g id="Group_38333" data-name="Group 38333"><g id="Line_2" data-name="Line 2"><rect x="33.46" y="8.98" width="20.38" height="2.5"/></g><g id="Line_3" data-name="Line 3"><rect x="33.46" y="22" width="20.38" height="2.5"/></g><g id="Line_4" data-name="Line 4"><rect x="38.27" y="15.47" width="15.57" height="2.5"/></g></g><g id="Path_51792" data-name="Path 51792"><path d="M56.34,32H47v-2.5h9.3a3.83,3.83,0,0,0,3.8-3.81V8a3.82,3.82,0,0,0-3.81-3.8H31A3.82,3.82,0,0,0,27.16,8v3.25h-2.5V8A6.32,6.32,0,0,1,31,1.66H56.34A6.33,6.33,0,0,1,62.64,8V25.67A6.34,6.34,0,0,1,56.34,32Z"/></g><g id="Path_51793" data-name="Path 51793"><path d="M33.43,42.54a1.23,1.23,0,0,1-1.25-1.25V32H31a6.33,6.33,0,0,1-6.3-6.3V23.92h2.5v1.75a3.83,3.83,0,0,0,3.8,3.8h2.47a1.25,1.25,0,0,1,1.25,1.25v7.1l6.54-7.9,1.93,1.59L34.39,42.09A1.25,1.25,0,0,1,33.43,42.54Z"/></g><g id="Group_38337" data-name="Group 38337"><g id="Group_38336" data-name="Group 38336"><g id="Group_38334" data-name="Group 38334"><g id="Path_51794" data-name="Path 51794"><path d="M12,11.92a6,6,0,1,1,6-6A6,6,0,0,1,12,11.92ZM12,2.5A3.46,3.46,0,1,0,15.49,6,3.46,3.46,0,0,0,12,2.5Z"/></g></g><g id="Group_38335" data-name="Group 38335"><g id="Line_5" data-name="Line 5"><rect x="4.69" y="23.19" width="2.5" height="32.93"/></g><g id="Line_6" data-name="Line 6"><rect x="10.78" y="37.66" width="2.5" height="18.47"/></g></g></g><g id="Path_51795" data-name="Path 51795"><path d="M19.38,56.12h-2.5V20a1.25,1.25,0,0,1,1.25-1.25H27.8c2,0,4.26-.46,4.86-2.48H7.51a5,5,0,0,0-5,5V31.93c0,2.28.62,5,3.57,5v2.5c-3.8,0-6.07-2.8-6.07-7.5V21.3a7.55,7.55,0,0,1,7.5-7.51H34.06A1.25,1.25,0,0,1,35.31,15v.16c0,3.8-2.81,6.07-7.51,6.07H19.38Z"/></g></g></g></g></g></svg>