<svg xmlns="http://www.w3.org/2000/svg" viewBox="0 0 80.1 63.68"><g id="Layer_2" data-name="Layer 2"><g id="Layer_2-2" data-name="Layer 2"><g id="Group_38486" data-name="Group 38486"><g id="Group_38483" data-name="Group 38483"><g id="Path_51956" data-name="Path 51956"><path d="M75.72,60.11H67.4v-2.5h8.16a2.33,2.33,0,0,0,2-2.39V47.86c-.4-.51-2.74-2.65-15.64-5.53l-.34-.08L61.32,42c-.09-.09-9.58-8.84-25.89-8.84H24.64a17.18,17.18,0,0,0-6.81,3.11C15.48,38,11.67,40,2.89,40c-.31,0-.38.52-.38.92V54h0a1.51,1.51,0,0,0,.45,1c.8.87,2.59,1.35,5,1.35h3.22v2.5H8c-3.33,0-5.68-.76-7-2.26A4,4,0,0,1,0,53.8V40.89c0-2.51,1.72-3.42,2.88-3.42,9.09,0,12.15-2.23,13.45-3.18a19.74,19.74,0,0,1,7.92-3.59l.25,0H35.43c16,0,25.63,7.77,27.35,9.28,15.73,3.55,16.8,6.2,17.16,7.07a2,2,0,0,1,.11,1.23v6.9a4.84,4.84,0,0,1-4.26,4.94Z"/></g><g id="Line_90" data-name="Line 90"><rect x="25.58" y="56.74" width="27.7" height="2.5"/></g><g id="Path_51957" data-name="Path 51957"><path d="M16.66,63.68a6.57,6.57,0,1,1,6.57-6.57h0a6.57,6.57,0,0,1-6.57,6.57Zm0-10.64a4.07,4.07,0,1,0,0,8.14h0a4.06,4.06,0,0,0,4.07-4.07h0A4.07,4.07,0,0,0,16.66,53Z"/></g><g id="Path_51958" data-name="Path 51958"><path d="M62.22,63.68a6.57,6.57,0,1,1,6.57-6.57h0a6.57,6.57,0,0,1-6.57,6.57Zm0-10.64a4.07,4.07,0,0,0,0,8.14h0a4.07,4.07,0,1,0,0-8.14Z"/></g><g id="Path_51959" data-name="Path 51959"><path d="M56.24,43.38H22l-3.17-3.22a1.25,1.25,0,1,1,1.78-1.75L23,40.88h33.2a1.25,1.25,0,0,1,0,2.5Z"/></g><g id="Line_91" data-name="Line 91"><rect x="34.05" y="31.93" width="2.5" height="10.2"/></g><g id="Line_92" data-name="Line 92"><path d="M6.75,51.9H1.53a1.25,1.25,0,0,1,0-2.5H6.75a1.25,1.25,0,0,1,0,2.5Z"/></g><g id="Line_93" data-name="Line 93"><path d="M78.6,52.43H73.37a1.25,1.25,0,0,1,0-2.5H78.6a1.25,1.25,0,0,1,0,2.5Z"/></g></g><g id="Group_38485" data-name="Group 38485"><g id="Group_38484" data-name="Group 38484"><g id="Line_94" data-name="Line 94"><path d="M33.63,18.09a1.25,1.25,0,0,1-1.25-1.25V12.38a1.25,1.25,0,0,1,2.5,0v4.46A1.25,1.25,0,0,1,33.63,18.09Z"/></g><g id="Line_95" data-name="Line 95"><path d="M39.5,19.79a1.25,1.25,0,0,1-1.25-1.25V8.12a1.25,1.25,0,1,1,2.5,0V18.54A1.25,1.25,0,0,1,39.5,19.79Z"/></g><g id="Line_96" data-name="Line 96"><path d="M35.85,15.86H31.4a1.25,1.25,0,0,1,0-2.5h4.45a1.25,1.25,0,0,1,0,2.5Z"/></g><g id="Line_97" data-name="Line 97"><path d="M39.49,9.37H37.27a1.25,1.25,0,0,1,0-2.5h2.22a1.25,1.25,0,1,1,0,2.5Z"/></g></g><g id="Path_51960" data-name="Path 51960"><path d="M36.42,27.43A14.48,14.48,0,0,1,35,27.35,13.71,13.71,0,0,1,24.28,7.29a1.25,1.25,0,1,1,2.21,1.17,11.21,11.21,0,0,0,17,14A11.21,11.21,0,1,0,29.34,5a1.25,1.25,0,0,1-1.57-1.95A13.72,13.72,0,0,1,45,24.38,13.65,13.65,0,0,1,36.42,27.43Z"/></g></g></g></g></g></svg>