<svg xmlns="http://www.w3.org/2000/svg" viewBox="0 0 50.97 64.16"><g id="Layer_2" data-name="Layer 2"><g id="Layer_2-2" data-name="Layer 2"><g id="Group_38403" data-name="Group 38403"><g id="Group_38400" data-name="Group 38400"><g id="Path_51842" data-name="Path 51842"><path d="M25.48,64.16A1.24,1.24,0,0,1,25,64C-.54,52-.1,39.34,0,38V11.72a1.25,1.25,0,0,1,1.25-1.25c18.79,0,22.89-9.3,23.06-9.7A1.32,1.32,0,0,1,25.49,0a1.24,1.24,0,0,1,1.15.78c.16.39,4.26,9.69,23.06,9.69A1.25,1.25,0,0,1,51,11.72V38c.12,1.31.55,14-24.93,26A1.29,1.29,0,0,1,25.48,64.16ZM2.52,13V38.08a.86.86,0,0,1,0,.16c0,.1-1,11.83,23,23.29,12.5-6,18.09-12,20.58-16,2.68-4.32,2.4-7.28,2.39-7.3V13c-14.53-.31-20.69-6.12-23-9.26C23.2,6.83,17,12.64,2.52,13Z"/></g><g id="Path_51843" data-name="Path 51843"><path d="M25.48,57.48a1.3,1.3,0,0,1-.57-.14C7.78,48.6,6.19,40,6,38.41v-21a1.24,1.24,0,0,1,1.12-1.24,41.79,41.79,0,0,0,7.28-1.4,1.25,1.25,0,1,1,.69,2.41,44.51,44.51,0,0,1-6.59,1.35V38.24C8.65,39.3,10,46.76,25.48,54.82c15.24-7.93,16.81-15,17-16.12V18.53c-6.84-.88-12.54-3-17-6.4A27.84,27.84,0,0,1,20.79,15a1.25,1.25,0,1,1-1.09-2.25,25.79,25.79,0,0,0,5-3.19,1.25,1.25,0,0,1,1.59,0c4.38,3.61,10.29,5.83,17.55,6.6A1.25,1.25,0,0,1,45,17.41V38.79s0,.09,0,.14c-.26,2.19-2.38,10-18.89,18.41A1.26,1.26,0,0,1,25.48,57.48Z"/></g></g><g id="Group_38402" data-name="Group 38402"><g id="Path_51928" data-name="Path 51928"><path d="M24.93,42.34l-8.54-9a1.25,1.25,0,0,1,1.82-1.72l6.42,6.78L35.16,23.09a1.25,1.25,0,1,1,2.06,1.42Z"/></g></g></g></g></g></svg>