<svg xmlns="http://www.w3.org/2000/svg" viewBox="0 0 54.73 56.87"><g id="Layer_2" data-name="Layer 2"><g id="Layer_2-2" data-name="Layer 2"><g id="Group_38445" data-name="Group 38445"><g id="Group_38441" data-name="Group 38441"><g id="Group_38440" data-name="Group 38440"><g id="Path_51881" data-name="Path 51881"><path d="M31.44,13H20.61v-2.5h8.33V7H24.35l0-1.22a3.34,3.34,0,0,0-6.68,0l0,1.22H13v3.45h3.48V13h-6V4.5h4.76a5.85,5.85,0,0,1,11.38,0h4.77Z"/></g><g id="Path_51882" data-name="Path 51882"><path d="M18.93,32H7.36a1.24,1.24,0,0,1-1.25-1.25V19.22A1.25,1.25,0,0,1,7.36,18h7.46a1.25,1.25,0,0,1,0,2.5H8.61v9.06h9.07v-2.9a1.25,1.25,0,0,1,2.5,0v4.15A1.24,1.24,0,0,1,18.93,32Z"/></g><g id="Path_51883" data-name="Path 51883"><path d="M14.13,27.92a1.27,1.27,0,0,1-.93-.41l-3.08-3.39A1.25,1.25,0,1,1,12,22.44l2.08,2.29,5.79-7.48a1.25,1.25,0,0,1,2,1.52l-6.7,8.66a1.26,1.26,0,0,1-.94.49Z"/></g><g id="Line_61" data-name="Line 61"><rect x="24.83" y="21.16" width="11.16" height="2.5"/></g><g id="Line_62" data-name="Line 62"><rect x="24.83" y="26.34" width="7.19" height="2.5"/></g><g id="Path_51884" data-name="Path 51884"><path d="M18.93,50.8H7.36a1.25,1.25,0,0,1-1.25-1.25V38a1.25,1.25,0,0,1,1.25-1.25h7.46a1.25,1.25,0,0,1,0,2.5H8.61V48.3h9.07V45.39a1.25,1.25,0,0,1,2.5,0v4.16A1.25,1.25,0,0,1,18.93,50.8Z"/></g><g id="Path_51885" data-name="Path 51885"><path d="M14.13,46.69a1.27,1.27,0,0,1-.93-.41l-3.08-3.39A1.25,1.25,0,0,1,12,41.2l2.08,2.29L19.84,36a1.25,1.25,0,0,1,2,1.53l-6.7,8.66a1.29,1.29,0,0,1-.94.49Z"/></g><g id="Path_51886" data-name="Path 51886"><path d="M42,23.3h-2.5V9.82H34.11V7.32h6.6A1.25,1.25,0,0,1,42,8.57Z"/></g><g id="Path_51887" data-name="Path 51887"><path d="M25.42,56.87H1.25A1.25,1.25,0,0,1,0,55.62v-47A1.25,1.25,0,0,1,1.25,7.32H8v2.5H2.5V54.37H25.42Z"/></g></g></g><g id="Group_38444" data-name="Group 38444"><g id="Group_38443" data-name="Group 38443"><g id="Group_38442" data-name="Group 38442"><g id="Path_51888" data-name="Path 51888"><path d="M42.08,56.87H38.29a1.25,1.25,0,0,1-1.23-1L36.58,53a11.79,11.79,0,0,1-1.42-.59l-2.3,1.64A1.26,1.26,0,0,1,31.25,54l-2.68-2.68a1.26,1.26,0,0,1-.13-1.62l1.64-2.29a10.49,10.49,0,0,1-.59-1.43l-2.8-.47a1.26,1.26,0,0,1-1-1.24V40.43a1.25,1.25,0,0,1,1-1.23l2.8-.48a10.72,10.72,0,0,1,.58-1.41L28.43,35a1.26,1.26,0,0,1,.13-1.61l2.69-2.68a1.23,1.23,0,0,1,1.6-.13l2.32,1.64a11.72,11.72,0,0,1,2.23-.83A1.25,1.25,0,0,1,38,33.82a8.84,8.84,0,0,0-2.3.94,1.25,1.25,0,0,1-1.35,0l-2.09-1.48-1.19,1.18,1.48,2.09a1.24,1.24,0,0,1,.06,1.36,8.94,8.94,0,0,0-.95,2.28,1.25,1.25,0,0,1-1,.92l-2.52.43v1.68l2.52.43a1.23,1.23,0,0,1,1,.92,8.69,8.69,0,0,0,1,2.29,1.26,1.26,0,0,1-.06,1.37l-1.48,2.07,1.18,1.18L34.34,50a1.23,1.23,0,0,1,1.36-.06,9.16,9.16,0,0,0,2.29,1,1.26,1.26,0,0,1,.93,1l.43,2.53H41l.43-2.53a1.23,1.23,0,0,1,.92-1,8.86,8.86,0,0,0,2.29-1A1.24,1.24,0,0,1,46,50l2.07,1.48,1.18-1.18-1.48-2.07a1.26,1.26,0,0,1-.06-1.37,8.82,8.82,0,0,0,1-2.31,1.26,1.26,0,0,1,1-.93l2.51-.41V41.5l-2.52-.42a1.26,1.26,0,0,1-1-.93,8.64,8.64,0,0,0-.94-2.29,1.24,1.24,0,0,1,.05-1.36l1.48-2.09L48.1,33.22,46,34.7a1.25,1.25,0,0,1-1.36.06,9.08,9.08,0,0,0-2.3-.95,1.26,1.26,0,0,1-.93-1L41,30.29H38.29a1.25,1.25,0,0,1,0-2.5h3.79a1.25,1.25,0,0,1,1.24,1.05l.45,2.79a10.49,10.49,0,0,1,1.43.59l2.32-1.65a1.26,1.26,0,0,1,1.61.14l2.68,2.68A1.25,1.25,0,0,1,51.94,35L50.3,37.31a10.49,10.49,0,0,1,.59,1.43l2.79.46a1.25,1.25,0,0,1,1,1.24v3.78a1.26,1.26,0,0,1-1,1.24l-2.78.45a12.28,12.28,0,0,1-.6,1.45l1.64,2.29a1.25,1.25,0,0,1-.13,1.61L49.13,54a1.26,1.26,0,0,1-1.61.13l-2.3-1.65a12,12,0,0,1-1.43.6l-.47,2.8A1.26,1.26,0,0,1,42.08,56.87Z"/></g></g></g><g id="Path_51889" data-name="Path 51889"><path d="M40.18,47.47a5.17,5.17,0,0,1-2.56-.69,5.07,5.07,0,0,1-2.39-3.12,5,5,0,0,1-.18-1.33,5.22,5.22,0,0,1,.2-1.41,1.25,1.25,0,1,1,2.4.69,2.5,2.5,0,0,0-.1.72,2.63,2.63,0,0,0,3.32,2.54,2.63,2.63,0,0,0,.63-4.82,2.59,2.59,0,0,0-2-.26,1.25,1.25,0,0,1-.65-2.42,5.16,5.16,0,0,1,3.9.51,5.14,5.14,0,0,1-2.57,9.59Z"/></g></g></g></g></g></svg>