<svg xmlns="http://www.w3.org/2000/svg" viewBox="0 0 64.55 59.42"><g id="Layer_2" data-name="Layer 2"><g id="Layer_2-2" data-name="Layer 2"><g id="Group_38383" data-name="Group 38383"><g id="Path_51821" data-name="Path 51821"><path d="M9.75,33.16H6.48A6.51,6.51,0,0,1,0,26.68V6.48A6.51,6.51,0,0,1,6.47,0H45.68a6.51,6.51,0,0,1,6.48,6.48V23.19h-2.5V6.48a4,4,0,0,0-4-4H6.48a4,4,0,0,0-4,4v20.2a4,4,0,0,0,4,4H9.75Z"/></g><g id="Rectangle_2134" data-name="Rectangle 2134"><path d="M58.07,59.42H18.86a6.48,6.48,0,0,1-6.47-6.48V32.66a6.48,6.48,0,0,1,6.47-6.48H58.07a6.49,6.49,0,0,1,6.48,6.48V52.94A6.49,6.49,0,0,1,58.07,59.42ZM18.86,28.68a4,4,0,0,0-4,4V52.94a4,4,0,0,0,4,4H58.07a4,4,0,0,0,4-4V32.66a4,4,0,0,0-4-4Z"/></g><g id="Group_38380" data-name="Group 38380"><g id="Path_51822" data-name="Path 51822"><path d="M25.16,22.59a3.7,3.7,0,0,1-3.68-3.68V10.46a3.7,3.7,0,0,1,3.67-3.69h1.14A3.7,3.7,0,0,1,30,10.45v1.36a1.25,1.25,0,1,1-2.5,0V10.46a1.2,1.2,0,0,0-1.18-1.19H25.16A1.2,1.2,0,0,0,24,10.46v8.45a1.19,1.19,0,0,0,1.18,1.18h1.13a1.19,1.19,0,0,0,1.18-1.19V17.77h-.75a1.25,1.25,0,0,1,0-2.5h2A1.25,1.25,0,0,1,30,16.52v2.39a3.7,3.7,0,0,1-3.68,3.68Z"/></g><g id="Rectangle_2135" data-name="Rectangle 2135"><path d="M15,22.59H13.86a3.68,3.68,0,0,1-3.68-3.68V10.46a3.69,3.69,0,0,1,3.68-3.69H15a3.71,3.71,0,0,1,3.69,3.69v8.45A3.69,3.69,0,0,1,15,22.59ZM13.86,9.27a1.19,1.19,0,0,0-1.18,1.19v8.45a1.18,1.18,0,0,0,1.18,1.18H15a1.19,1.19,0,0,0,1.19-1.18V10.46A1.21,1.21,0,0,0,15,9.27H13.86Z"/></g><g id="Path_51823" data-name="Path 51823"><path d="M37.24,22.62a4.76,4.76,0,0,1-4.74-4.45A1.25,1.25,0,1,1,35,18a2.26,2.26,0,0,0,4.51,0c0-.75-.92-1.27-2.44-2l-.75-.38c-1.61-.8-3.82-1.91-3.82-4.34A4.75,4.75,0,0,1,42,11.17a1.25,1.25,0,0,1-2.49.18,2.26,2.26,0,0,0-4.5,0c0,.74.92,1.26,2.44,2l.75.38c1.61.8,3.82,1.9,3.82,4.34a4.79,4.79,0,0,1-4.45,4.52Z"/></g></g><g id="Group_38382" data-name="Group 38382"><g id="Group_38381" data-name="Group 38381"><g id="Line_25" data-name="Line 25"><path d="M29.65,44.05h-6a1.25,1.25,0,1,1,0-2.5h6a1.25,1.25,0,0,1,0,2.5Z"/></g><g id="Line_26" data-name="Line 26"><path d="M23.65,50.62a1.25,1.25,0,0,1-1.25-1.25V36.22a1.25,1.25,0,0,1,2.5,0V49.37A1.25,1.25,0,0,1,23.65,50.62Z"/></g><g id="Line_27" data-name="Line 27"><path d="M29.65,50.62a1.25,1.25,0,0,1-1.25-1.25V36.22a1.25,1.25,0,0,1,2.5,0V49.37A1.25,1.25,0,0,1,29.65,50.62Z"/></g></g><g id="Path_51824" data-name="Path 51824"><path d="M37.38,50.71A3.69,3.69,0,0,1,33.7,47V38.58a3.71,3.71,0,0,1,3.68-3.68h1.13a3.71,3.71,0,0,1,3.69,3.68v1.36a1.25,1.25,0,0,1-2.5,0V38.58a1.2,1.2,0,0,0-1.19-1.18H37.38a1.2,1.2,0,0,0-1.18,1.19V47a1.19,1.19,0,0,0,1.19,1.18h1.13A1.2,1.2,0,0,0,39.7,47V45.9H39a1.25,1.25,0,0,1,0-2.5h2a1.24,1.24,0,0,1,1.25,1.25V47a3.7,3.7,0,0,1-3.68,3.68Z"/></g><g id="Path_51825" data-name="Path 51825"><path d="M49.46,50.75a4.76,4.76,0,0,1-4.74-4.46,1.25,1.25,0,0,1,2.49-.15A2.23,2.23,0,0,0,48,47.69a2.3,2.3,0,0,0,1.63.56,2.27,2.27,0,0,0,2.11-2.12c0-.75-.92-1.27-2.44-2l-.75-.38c-1.61-.81-3.82-1.91-3.82-4.34a4.75,4.75,0,0,1,9.49-.08A1.24,1.24,0,0,1,53,40.63a1.26,1.26,0,0,1-1.32-1.17,2.26,2.26,0,0,0-4.51,0c0,.75.93,1.27,2.45,2l.75.38c1.61.81,3.82,1.91,3.82,4.34a4.79,4.79,0,0,1-4.45,4.53Z"/></g></g></g></g></g></svg>