<svg xmlns="http://www.w3.org/2000/svg" viewBox="0 0 54.64 70.93"><g id="Layer_2" data-name="Layer 2"><g id="Layer_2-2" data-name="Layer 2"><g id="Group_38439" data-name="Group 38439"><g id="Group_38436" data-name="Group 38436"><g id="Path_51871" data-name="Path 51871"><path d="M28,24.37l-5.14-5.14a8.3,8.3,0,0,1-1.94-6.74c0-.16,0-.29,0-.38a9.23,9.23,0,0,0-8.86-9.6,8.6,8.6,0,0,0-1.9.12l4,4a5.33,5.33,0,0,1-7.53,7.55l-4-4A9.22,9.22,0,0,0,12,20.93a10.47,10.47,0,0,1,5.23.57l-.88,2.34a8.22,8.22,0,0,0-4.05-.43h-.14A11.7,11.7,0,0,1,.86,7.32a1.22,1.22,0,0,1,.91-.76A1.27,1.27,0,0,1,2.9,6.9l5.5,5.5a2.83,2.83,0,0,0,4-4L6.9,2.9a1.27,1.27,0,0,1-.34-1.13A1.23,1.23,0,0,1,7.32.86,11.51,11.51,0,0,1,12.17,0,11.72,11.72,0,0,1,23.43,12.18c0,.11,0,.29,0,.52a5.88,5.88,0,0,0,1.24,4.79l5.11,5.12Z"/></g><g id="Path_51872" data-name="Path 51872"><path d="M49.58,54.63l-.49,0a6.35,6.35,0,0,1-3.65-2L34.27,41.41,36,39.64,47.21,50.81a3.9,3.9,0,0,0,2.17,1.31c.22,0,.91.1,1.88-.86s1.53-2.08-.45-4l-2.48-2.48L50.1,43l2.48,2.48c3.49,3.49,1.78,6.25.45,7.58A4.85,4.85,0,0,1,49.58,54.63Z"/></g></g><g id="Group_38438" data-name="Group 38438"><g id="Group_38437" data-name="Group 38437"><g id="Path_51873" data-name="Path 51873"><path d="M46.6,45.92a4.37,4.37,0,0,1-3.1-1.28L43,44.13A4.38,4.38,0,0,1,43,38l3.65-3.65a4.36,4.36,0,0,1,6.15.05l.51.5A4.38,4.38,0,0,1,53.31,41l-3.64,3.65A4.39,4.39,0,0,1,46.6,45.92Zm1.75-9.81-3.62,3.62a1.87,1.87,0,0,0,0,2.63l.51.51a1.88,1.88,0,0,0,2.64,0l3.62-3.62a1.88,1.88,0,0,0,0-2.62L51,36.15A1.86,1.86,0,0,0,48.35,36.11Z"/></g><g id="Path_51874" data-name="Path 51874"><path d="M41.66,41a4.31,4.31,0,0,1-3.09-1.29l-.51-.51A4.37,4.37,0,0,1,38,33l5-5a4.38,4.38,0,0,1,6.15.05l.51.51a4.38,4.38,0,0,1,0,6.15l-5,5A4.4,4.4,0,0,1,41.66,41Zm3.1-11.16-5,5a1.86,1.86,0,0,0,0,2.62l.52.52A1.86,1.86,0,0,0,43,38l5-5a1.87,1.87,0,0,0,0-2.61l-.52-.52A1.87,1.87,0,0,0,44.76,29.83Z"/></g><g id="Path_51875" data-name="Path 51875"><path d="M34.55,30.17,32.78,28.4l4.56-4.57a1.86,1.86,0,0,0,0-2.62l-.52-.51a1.87,1.87,0,0,0-2.63,0l-4.69,4.69L27.7,23.59l4.7-4.7a4.4,4.4,0,0,1,6.17,0l.51.51a4.38,4.38,0,0,1,0,6.15Z"/></g><g id="Path_51876" data-name="Path 51876"><path d="M39.79,34.8,38,33l6.22-6.22a1.86,1.86,0,0,0,0-2.62l-.57-.56a1.84,1.84,0,0,0-2.57,0l-6.22,6.21-1.77-1.77,6.23-6.22a4.36,4.36,0,0,1,6.16,0l.5.5A4.39,4.39,0,0,1,46,28.57Z"/></g><g id="Path_51877" data-name="Path 51877"><path d="M28.46,44.32a1.2,1.2,0,0,1-.55-.13,1.25,1.25,0,0,1-.58-1.67c.11-.23,2.48-5.35-1.52-9.35a1.25,1.25,0,0,1,0-1.77,1.27,1.27,0,0,1,1.77,0,10.9,10.9,0,0,1,2,12.22A1.26,1.26,0,0,1,28.46,44.32Z"/></g><g id="Path_51878" data-name="Path 51878"><path d="M24.06,62.26a1.25,1.25,0,0,1-.88-2.13l3.27-3.27a1.21,1.21,0,0,1,1.13-.34,7.54,7.54,0,0,0,4.79-.6c2.32-1,5.75-3.69,10.25-7.89a1.25,1.25,0,1,1,1.71,1.83C39.56,54.31,36,57,33.43,58.18a9.94,9.94,0,0,1-5.67.9L24.94,61.9A1.24,1.24,0,0,1,24.06,62.26Z"/></g><g id="Path_51879" data-name="Path 51879"><path d="M13.58,45.4a1.28,1.28,0,0,1-.68-.2,1.25,1.25,0,0,1-.37-1.73A5.25,5.25,0,0,0,13.37,41c.18-1.62,1.12-9.5,2.11-11.37a18.69,18.69,0,0,1,7.7-8.24,1.28,1.28,0,0,1,.56-.16A6.29,6.29,0,0,1,28.41,23L38.7,33.28a1.22,1.22,0,0,1,.37.88,1.26,1.26,0,0,1-.37.89c-1.9,1.9-6.44,4.55-10,1l-4.78-4.78a1.25,1.25,0,0,1,0-1.77,1.27,1.27,0,0,1,1.77,0l4.78,4.79c1.89,1.89,4.22.73,5.51-.19l-9.32-9.32a3.82,3.82,0,0,0-2.51-1.09,16.17,16.17,0,0,0-6.42,7c-.6,1.12-1.44,6.79-1.86,10.48a7.79,7.79,0,0,1-1.23,3.65A1.25,1.25,0,0,1,13.58,45.4Z"/></g></g></g><g id="Path_51880" data-name="Path 51880"><path d="M20.52,70.93a1.29,1.29,0,0,1-.89-.37,1.27,1.27,0,0,1,0-1.77l5.08-5.07-17-17L2.65,51.81a1.25,1.25,0,0,1-1.77,0A1.27,1.27,0,0,1,.88,50l6-5.95a1.25,1.25,0,0,1,1.77,0L27.36,62.84a1.25,1.25,0,0,1,.36.88,1.29,1.29,0,0,1-.36.89l-6,6A1.25,1.25,0,0,1,20.52,70.93Z"/></g></g></g></g></svg>