<svg xmlns="http://www.w3.org/2000/svg" viewBox="0 0 48 67.72"><g id="Layer_2" data-name="Layer 2"><g id="Layer_2-2" data-name="Layer 2"><g id="traffic-light"><g id="Group_39254" data-name="Group 39254"><g id="Group_39253" data-name="Group 39253"><g id="Path_52752" data-name="Path 52752"><path d="M31.57,65.73H9.19a.6.6,0,0,1-.6-.6V2.58a.6.6,0,0,1,.6-.6h2.25a1,1,0,1,0,0-2H9.19A2.59,2.59,0,0,0,6.61,2.58v2H1a1,1,0,0,0-1,1v8.11a6.92,6.92,0,0,0,6.61,6.9v4.15H1a1,1,0,0,0-1,1v8.1a6.91,6.91,0,0,0,6.61,6.9V44.9H1a1,1,0,0,0-1,1V54a6.93,6.93,0,0,0,6.61,6.91v4.23a2.58,2.58,0,0,0,2.58,2.57H31.57a1,1,0,1,0,0-2Zm-25-6.81A4.94,4.94,0,0,1,2,54V46.9H6.61Zm0-20.15A4.93,4.93,0,0,1,2,33.86V26.75H6.61Zm0-20.14A4.94,4.94,0,0,1,2,13.71V6.6H6.61Z"/></g></g></g><g id="Group_39256" data-name="Group 39256"><g id="Group_39255" data-name="Group 39255"><g id="Path_52753" data-name="Path 52753"><path d="M48,13.71V5.6a1,1,0,0,0-1-1H41.39v-2A2.59,2.59,0,0,0,38.81,0H15.43a1,1,0,0,0,0,2H38.81a.6.6,0,0,1,.6.6h0V65.14a.6.6,0,0,1-.6.6H35.57a1,1,0,0,0,0,2h3.24a2.59,2.59,0,0,0,2.58-2.58V60.91A6.93,6.93,0,0,0,48,54V45.91a1,1,0,0,0-1-1H41.39V40.76A6.91,6.91,0,0,0,48,33.86v-8.1a1,1,0,0,0-1-1H41.39V20.61A6.91,6.91,0,0,0,48,13.71ZM41.39,6.6H46v7.12a4.93,4.93,0,0,1-4.63,4.91ZM46,46.9h0V54a4.93,4.93,0,0,1-4.63,4.92v-12Zm0-20.15h0v7.11a4.93,4.93,0,0,1-4.63,4.92v-12Z"/></g></g></g><g id="Group_39258" data-name="Group 39258"><g id="Group_39257" data-name="Group 39257"><g id="Path_52754" data-name="Path 52754"><path d="M34.88,34.05a10.91,10.91,0,0,0-21.76,0,1.66,1.66,0,0,0,1.53,1.77h.48a8.92,8.92,0,0,0,12.65,7.1,1,1,0,1,0-.85-1.8,6.85,6.85,0,0,1-2.93.65,7,7,0,0,1-6.87-6h.3a1.64,1.64,0,0,0,1.64-1.48,5,5,0,0,1,9.87,0,1.64,1.64,0,0,0,1.64,1.48h.3a6.85,6.85,0,0,1-1.45,3.33,1,1,0,0,0,.14,1.4A1,1,0,0,0,31,40.41l0,0a8.87,8.87,0,0,0,1.89-4.57h.36a1.66,1.66,0,0,0,1.66-1.66.49.49,0,0,0,0-.12Zm-4-.21a6.94,6.94,0,0,0-13.73,0h-2a8.92,8.92,0,0,1,17.73,0Z"/></g></g></g><g id="Group_39260" data-name="Group 39260"><g id="Group_39259" data-name="Group 39259"><g id="Path_52755" data-name="Path 52755"><path d="M34.88,13a10.91,10.91,0,0,0-21.76,0,1.66,1.66,0,0,0,1.53,1.77h.48a8.93,8.93,0,0,0,17.74,0h.36a1.65,1.65,0,0,0,1.65-1.66V13ZM24,20.68a7,7,0,0,1-6.87-5.95h.3a1.66,1.66,0,0,0,1.65-1.48,5,5,0,0,1,9.86,0,1.64,1.64,0,0,0,1.64,1.48h.3A7,7,0,0,1,24,20.68Zm7.94-7.94H30.87a6.94,6.94,0,0,0-13.73,0h-2a8.93,8.93,0,0,1,17.73,0Z"/></g></g></g><g id="Group_39262" data-name="Group 39262"><g id="Group_39261" data-name="Group 39261"><g id="Path_52756" data-name="Path 52756"><path d="M34.88,55.14a10.91,10.91,0,0,0-21.76,0,1.66,1.66,0,0,0,1.53,1.77h.48a8.93,8.93,0,0,0,17.74,0h.36a1.66,1.66,0,0,0,1.66-1.66s0-.08,0-.12ZM24,62.87a7,7,0,0,1-6.87-5.95h.3a1.66,1.66,0,0,0,1.65-1.48,5,5,0,0,1,9.86,0,1.64,1.64,0,0,0,1.64,1.48h.3A7,7,0,0,1,24,62.87Zm6.87-7.93a6.94,6.94,0,0,0-13.73,0h-2a8.92,8.92,0,0,1,17.73,0Z"/></g></g></g></g></g></g></svg>