<svg xmlns="http://www.w3.org/2000/svg" viewBox="0 0 74.53 52.76"><g id="Layer_2" data-name="Layer 2"><g id="Layer_2-2" data-name="Layer 2"><g id="Group_38472" data-name="Group 38472"><g id="Group_38471" data-name="Group 38471"><g id="Path_51929" data-name="Path 51929"><path d="M7.19,46.4H1.25A1.25,1.25,0,0,1,0,45.15V34.75A1.25,1.25,0,0,1,1.25,33.5H45.72V36H2.5v7.9H7.19Z"/></g><g id="Line_77" data-name="Line 77"><rect x="22.66" y="43.9" width="27.41" height="2.5"/></g><g id="Path_51930" data-name="Path 51930"><path d="M71.47,46.4H65.78V43.9h5.74a.44.44,0,0,0,.26-.11c.07-.07.24-.31.24-1V31.62a.37.37,0,0,1,0-.11,1.36,1.36,0,0,0-.75-1.34l-4.84-1.69a1.29,1.29,0,0,1-.8-.87A33.9,33.9,0,0,0,60.12,16.3H50.46V40.61H48V15.05a1.24,1.24,0,0,1,1.25-1.25h11.5a1.26,1.26,0,0,1,.94.43c3.71,4.28,5.66,10.15,6.23,12.1l4.29,1.5.1,0a3.84,3.84,0,0,1,2.25,3.81V42.8a3.65,3.65,0,0,1-1.08,2.86A3,3,0,0,1,71.47,46.4Z"/></g><g id="Path_51931" data-name="Path 51931"><path d="M61.91,28.87H54.72a1.25,1.25,0,0,1,0-2.5h5.54a38.24,38.24,0,0,0-2.75-5.64,1.25,1.25,0,0,1,2.15-1.28c.12.2,2.93,4.94,3.48,8a1.25,1.25,0,0,1-.28,1A1.2,1.2,0,0,1,61.91,28.87Z"/></g><g id="Path_51932" data-name="Path 51932"><path d="M60,52.76a6.89,6.89,0,1,1,6.89-6.88A6.89,6.89,0,0,1,60,52.76Zm0-11.28a4.39,4.39,0,1,0,4.39,4.4A4.4,4.4,0,0,0,60,41.48Z"/></g><g id="Path_51933" data-name="Path 51933"><path d="M13.17,52.76a6.89,6.89,0,1,1,6.89-6.89h0A6.89,6.89,0,0,1,13.17,52.76Zm0-11.28a4.39,4.39,0,1,0,4.39,4.4A4.4,4.4,0,0,0,13.17,41.48Z"/></g><g id="Path_51934" data-name="Path 51934"><path d="M42.48,31.17,15.75,2.5H12.64L33.12,29.56l-2,1.51L9.13,2a1.25,1.25,0,0,1,1-2h6.16a1.24,1.24,0,0,1,.92.4l27.1,29.06Z"/></g><g id="Path_51935" data-name="Path 51935"><path d="M9.94,24.91a4.68,4.68,0,0,1-4.67-4.68,1.25,1.25,0,0,1,2.5,0A2.18,2.18,0,1,0,10,18.05,1.24,1.24,0,0,1,8.7,16.8V7.25a1.25,1.25,0,0,1,2.5,0v8.47a4.68,4.68,0,0,1-1.26,9.19Z"/></g></g><g id="Path_51936" data-name="Path 51936"><path d="M58.76,11.74h-2.5V10.6A1.57,1.57,0,0,0,54.69,9h-.23a1.58,1.58,0,0,0-1.58,1.57v1.14h-2.5V10.6a4.09,4.09,0,0,1,4.07-4.07h.24a4.08,4.08,0,0,1,4.07,4.06Z"/></g></g></g></g></svg>