<svg xmlns="http://www.w3.org/2000/svg" viewBox="0 0 69.84 64.95"><g id="Layer_2" data-name="Layer 2"><g id="Layer_2-2" data-name="Layer 2"><g id="Group_39485" data-name="Group 39485"><g id="Path_52918" data-name="Path 52918"><path d="M19.28,65a1.25,1.25,0,0,1-.42-.08l-18-6.5A1.23,1.23,0,0,1,0,57.2V10.7a1.24,1.24,0,0,1,.53-1,1.22,1.22,0,0,1,1.14-.16l18,6.5a1.26,1.26,0,0,1,.82,1.18V63.7A1.25,1.25,0,0,1,19.28,65ZM2.5,56.32,18,61.92V18.08L2.5,12.48Z"/></g><g id="Path_52919" data-name="Path 52919"><path d="M55.25,65a1.2,1.2,0,0,1-.42-.08l-18-6.5A1.25,1.25,0,0,1,37.64,56L54,61.92V34.64a1.25,1.25,0,0,1,2.5,0V63.7a1.24,1.24,0,0,1-.53,1A1.28,1.28,0,0,1,55.25,65Z"/></g><g id="Line_239" data-name="Line 239"><path d="M44.23,14.38a1.22,1.22,0,0,1-.41-.07l-7-2.43a1.25,1.25,0,0,1,.82-2.36l7,2.43a1.25,1.25,0,0,1-.41,2.43Z"/></g><g id="Path_52920" data-name="Path 52920"><path d="M19.18,65a1.25,1.25,0,0,1-.42-2.43L36,56.32V12.48L19.61,18.37A1.25,1.25,0,1,1,18.76,16l18-6.5a1.27,1.27,0,0,1,1.68,1.18V57.2a1.23,1.23,0,0,1-.83,1.17l-18,6.5A1.09,1.09,0,0,1,19.18,65Z"/></g><g id="Group_39482" data-name="Group 39482"><g id="Path_52921" data-name="Path 52921"><path d="M42.36,42.67a49.24,49.24,0,0,1-4.91-1.58l.88-2.33c1.52.57,3.09,1.07,4.66,1.49Zm-8.7-3.2A46.26,46.26,0,0,1,29.13,37l1.31-2.12a47,47,0,0,0,4.3,2.34Zm-23.39-2.6-2.4-.71a18.65,18.65,0,0,1,2.19-4.91l2.08,1.37A16.52,16.52,0,0,0,10.27,36.87Zm15.45-2.19-.59-.44a27.56,27.56,0,0,0-3.33-2.58l1.36-2.1a30.11,30.11,0,0,1,3.56,2.75l.48.36ZM14.55,30.3,13.4,28.08a7.71,7.71,0,0,1,5.82-.4l-.71,2.4A5.18,5.18,0,0,0,14.55,30.3Z"/></g></g><g id="Path_52922" data-name="Path 52922"><path d="M58.91,21.83A11,11,0,0,1,55,21.12a10.92,10.92,0,1,1,14.17-6.55h0l-.08.21,0,.05h0A10.93,10.93,0,0,1,58.91,21.83Zm0-19.33a8.42,8.42,0,1,0,7.78,11.61v0l.1-.21a8.42,8.42,0,0,0-4.9-10.8A8.22,8.22,0,0,0,58.93,2.5Z"/></g><g id="Line_240" data-name="Line 240"><path d="M47,43.48a1.42,1.42,0,0,1-.45-.08,1.26,1.26,0,0,1-.72-1.62L54.32,19.5a1.25,1.25,0,0,1,2.34.89L48.19,42.67A1.26,1.26,0,0,1,47,43.48Z"/></g><g id="Path_52923" data-name="Path 52923"><path d="M54.75,10.58a1.2,1.2,0,0,1-.45-.09,1.24,1.24,0,0,1-.72-1.61A5.72,5.72,0,0,1,61,5.57a1.25,1.25,0,0,1-.88,2.34,3.22,3.22,0,0,0-4.16,1.86A1.25,1.25,0,0,1,54.75,10.58Z"/></g><g id="Group_39484" data-name="Group 39484"><g id="Group_39483" data-name="Group 39483"><g id="Path_52924" data-name="Path 52924"><path d="M9.19,41.6a1,1,0,1,1-1-1,1,1,0,0,1,1,1Z"/><path d="M8.22,43.82a2.22,2.22,0,0,1,0-4.44h0a2.22,2.22,0,0,1,2.21,2.21h0A2.23,2.23,0,0,1,8.22,43.82ZM7.94,41.6a.29.29,0,0,0,.29.28h0a.28.28,0,0,0,.28-.28Zm0,0h.57a.29.29,0,0,0-.29-.28.28.28,0,0,0-.28.28Z"/></g></g></g></g></g></g></svg>