<svg xmlns="http://www.w3.org/2000/svg" viewBox="0 0 63.42 82.79"><g id="Layer_2" data-name="Layer 2"><g id="Layer_2-2" data-name="Layer 2"><g id="Group_39349" data-name="Group 39349"><g id="Group_39366" data-name="Group 39366"><g id="Group_39353" data-name="Group 39353"><g id="Group_39352" data-name="Group 39352"><g id="Group_39351" data-name="Group 39351"><g id="Group_39350" data-name="Group 39350"><g id="Group_39349-2" data-name="Group 39349-2"><g id="Path_52826" data-name="Path 52826"><path d="M13.37,70.27a.59.59,0,1,1-.59.58h0a.58.58,0,0,1,.58-.58Z"/><path d="M13.37,72.69a1.84,1.84,0,1,1,0-3.67h0a1.82,1.82,0,0,1,1.3.54,1.86,1.86,0,0,1,.53,1.3A1.83,1.83,0,0,1,13.37,72.69Zm0-2.5a.67.67,0,0,0-.67.67.65.65,0,0,0,.67.66.67.67,0,0,0,.66-.67A.66.66,0,0,0,13.37,70.19Z"/></g></g></g></g><g id="Path_52827" data-name="Path 52827"><polygon points="26.73 82.79 0 82.79 0 51.95 2.5 51.95 2.5 80.29 24.23 80.29 24.23 55.77 26.73 55.77 26.73 82.79"/></g><g id="Path_52828" data-name="Path 52828"><path d="M19.17,78.3H7.57V77.05a1.81,1.81,0,0,0-1.81-1.8H4.51V52H7v21A4.34,4.34,0,0,1,9.88,75.8h7a4.33,4.33,0,0,1,2.88-2.87V55.77h2.5V75.25H21a1.81,1.81,0,0,0-1.81,1.8Z"/></g></g></g><g id="Group_39358" data-name="Group 39358"><g id="Group_39357" data-name="Group 39357"><g id="Group_39356" data-name="Group 39356"><g id="Group_39355" data-name="Group 39355"><g id="Group_39354" data-name="Group 39354"><g id="Path_52829" data-name="Path 52829"><path d="M13.37,56.51a.58.58,0,0,1-.59-.58.6.6,0,0,1,.59-.59.59.59,0,0,1,.58.59h0a.58.58,0,0,1-.58.58Z"/><path d="M13.37,57.76h0a1.82,1.82,0,0,1-1.3-.54,1.77,1.77,0,0,1-.53-1.3,1.84,1.84,0,0,1,1.83-1.83,1.87,1.87,0,0,1,1.29.54,1.82,1.82,0,0,1,0,2.59A1.78,1.78,0,0,1,13.37,57.76Zm0-2.5a.67.67,0,0,0-.48.2.67.67,0,0,0-.19.47.65.65,0,0,0,.66.66.66.66,0,0,0,.48-1.13A.65.65,0,0,0,13.37,55.26Z"/></g></g></g></g><g id="Path_52830" data-name="Path 52830"><polygon points="26.73 74.83 24.23 74.83 24.23 46.49 2.5 46.49 2.5 71.01 0 71.01 0 43.99 26.73 43.99 26.73 74.83"/></g><g id="Path_52831" data-name="Path 52831"><path d="M22.23,74.83h-2.5v-21A4.31,4.31,0,0,1,16.85,51h-7A4.3,4.3,0,0,1,7,53.85V71H4.51V51.54H5.76a1.81,1.81,0,0,0,1.81-1.81V48.48h11.6v1.25A1.81,1.81,0,0,0,21,51.54h1.25Z"/></g></g></g><g id="Group_39365" data-name="Group 39365"><g id="Group_39364" data-name="Group 39364"><g id="Group_39360" data-name="Group 39360"><g id="Group_39359" data-name="Group 39359"><g id="Line_176" data-name="Line 176"><path d="M21.33,34.67a1.25,1.25,0,0,1-1.25-1.25V29.58a1.25,1.25,0,0,1,2.5,0v3.84A1.25,1.25,0,0,1,21.33,34.67Z"/></g><g id="Path_52832" data-name="Path 52832"><path d="M21.33,25.81a1.25,1.25,0,0,1-1.25-1.25V16.61H15.74A2.57,2.57,0,0,1,13.26,15a3,3,0,0,1,.5-3.12l.06-.07L24.63.93a3.21,3.21,0,0,1,4.52,0l11,11A3.11,3.11,0,0,1,40.51,15a2.47,2.47,0,0,1-2.22,1.61H34.12v6.75a1.25,1.25,0,0,1-2.5,0V14.11h6.62a.89.89,0,0,0-.07-.64L27.38,2.7a.69.69,0,0,0-1,0L15.64,13.5a.58.58,0,0,0-.07.54.13.13,0,0,0,.1.07h6.91V24.56A1.25,1.25,0,0,1,21.33,25.81Z"/></g></g></g><g id="Group_39362" data-name="Group 39362"><g id="Group_39361" data-name="Group 39361"><g id="Line_177" data-name="Line 177"><path d="M53.26,61.4A1.25,1.25,0,0,1,52,60.15V57.29a1.25,1.25,0,0,1,2.5,0v2.86A1.25,1.25,0,0,1,53.26,61.4Z"/></g><g id="Line_178" data-name="Line 178"><path d="M37.76,67a1.25,1.25,0,0,1-1.25-1.25V63.11a1.25,1.25,0,0,1,2.5,0v2.61A1.25,1.25,0,0,1,37.76,67Z"/></g><g id="Line_179" data-name="Line 179"><path d="M37.76,59.39a1.25,1.25,0,0,1-1.25-1.25V53.46a1.25,1.25,0,0,1,2.5,0v4.68A1.25,1.25,0,0,1,37.76,59.39Z"/></g><g id="Path_52833" data-name="Path 52833"><path d="M53.26,53.75A1.25,1.25,0,0,1,52,52.5V39.9h8.47a.35.35,0,0,0,.29-.25l0-.11a1.21,1.21,0,0,0-.11-1.18L46.19,23.84a1.38,1.38,0,0,0-1.92,0L29.79,38.38a1.15,1.15,0,0,0-.17,1.17.56.56,0,0,0,.56.36H39v9a1.25,1.25,0,0,1-2.5,0V42.41H30.25a3,3,0,0,1-2.94-1.91,3.67,3.67,0,0,1,.59-3.77l.07-.07L42.5,22.08a3.86,3.86,0,0,1,5.45,0l14.71,14.7a3.72,3.72,0,0,1,.46,3.73,2.89,2.89,0,0,1-2.6,1.89h-6V52.5A1.25,1.25,0,0,1,53.26,53.75Z"/></g></g></g><g id="Group_39363" data-name="Group 39363"><g id="Line_180" data-name="Line 180"><path d="M45.23,62.79A1.25,1.25,0,0,1,44,61.54V48.64a1.25,1.25,0,0,1,2.5,0v12.9A1.25,1.25,0,0,1,45.23,62.79Z"/></g><g id="Line_181" data-name="Line 181"><path d="M45.23,74.19A1.25,1.25,0,0,1,44,72.94V66.51a1.25,1.25,0,0,1,2.5,0v6.43A1.25,1.25,0,0,1,45.23,74.19Z"/></g><g id="Line_182" data-name="Line 182"><path d="M45.23,81.2A1.25,1.25,0,0,1,44,80v-2a1.25,1.25,0,0,1,2.5,0v2A1.25,1.25,0,0,1,45.23,81.2Z"/></g></g></g></g></g></g></g></g></svg>