<svg xmlns="http://www.w3.org/2000/svg" viewBox="0 0 52.87 58.5"><g id="Layer_2" data-name="Layer 2"><g id="Layer_2-2" data-name="Layer 2"><g id="Group_38418" data-name="Group 38418"><g id="Group_38411" data-name="Group 38411"><g id="Path_51855" data-name="Path 51855"><path d="M45.15,58.5h0a1.26,1.26,0,0,1-1.1-.71L38,45.29a1.13,1.13,0,0,1-.13-.54v-24c0-2,2.05-3.66,4.57-3.67h5.9a5.28,5.28,0,0,1,3.08.95,3.39,3.39,0,0,1,1.49,2.72V45.17a1.2,1.2,0,0,1-.15.59L46.25,57.84A1.25,1.25,0,0,1,45.15,58.5Zm-4.82-14,4.88,10,5.16-9.64V20.72a1,1,0,0,0-.46-.7,2.78,2.78,0,0,0-1.61-.47H42.4c-1.16,0-2.07.63-2.07,1.17Z"/></g><g id="Line_50" data-name="Line 50"><rect x="39.13" y="42.87" width="12.5" height="2.5"/></g><g id="Line_51" data-name="Line 51"><rect x="44.09" y="46.54" width="2.5" height="6.81" transform="translate(-4.88 94.97) rotate(-89.65)"/></g><g id="Line_52" data-name="Line 52"><rect x="44.26" y="30.41" width="2.5" height="13.6"/></g><g id="Line_53" data-name="Line 53"><rect x="39.36" y="24.63" width="11.99" height="2.5"/></g></g><g id="Group_38417" data-name="Group 38417"><g id="Group_38413" data-name="Group 38413"><g id="Group_38412" data-name="Group 38412"><g id="Path_51856" data-name="Path 51856"><path d="M39.91,58.5H1.25A1.25,1.25,0,0,1,0,57.25V12.43a1.24,1.24,0,0,1,.37-.89L11.54.37A1.26,1.26,0,0,1,12.43,0H44.51a1.25,1.25,0,0,1,1.25,1.25V13.68h-2.5V2.5H13L2.5,12.94V56H39.91Z"/></g></g><g id="Path_51857" data-name="Path 51857"><polygon points="15.6 15.54 6.71 15.54 6.71 13.04 13.1 13.04 13.1 6.65 15.6 6.65 15.6 15.54"/></g></g><g id="Group_38414" data-name="Group 38414"><g id="Line_54" data-name="Line 54"><path d="M31.3,27.13H10.05a1.25,1.25,0,0,1,0-2.5H31.3a1.25,1.25,0,0,1,0,2.5Z"/></g></g><g id="Group_38415" data-name="Group 38415"><g id="Line_55" data-name="Line 55"><path d="M31.3,35.71H10.05a1.25,1.25,0,0,1,0-2.5H31.3a1.25,1.25,0,0,1,0,2.5Z"/></g></g><g id="Group_38416" data-name="Group 38416"><g id="Line_56" data-name="Line 56"><path d="M31.3,44.29H10.05a1.25,1.25,0,0,1,0-2.5H31.3a1.25,1.25,0,0,1,0,2.5Z"/></g></g></g></g></g></g></svg>