<svg xmlns="http://www.w3.org/2000/svg" viewBox="0 0 72.82 46.44"><g id="Layer_2" data-name="Layer 2"><g id="Layer_2-2" data-name="Layer 2"><g id="Group_39063" data-name="Group 39063"><g id="Line_73" data-name="Line 73"><rect x="53.87" y="33.05" width="8.57" height="2.5"/></g><g id="Path_51915" data-name="Path 51915"><path d="M26.49,46.44A6.23,6.23,0,0,1,21,43.17L14.23,31.54H10.6V29h5.06L23.19,42a3.75,3.75,0,0,0,4.2,1.88l.6,2.43A6.41,6.41,0,0,1,26.49,46.44Z"/></g><g id="Line_74" data-name="Line 74"><path d="M39,41.29a1.24,1.24,0,0,1-1.09-.64l-4.29-7.73a1.25,1.25,0,0,1,2.19-1.21l4.28,7.72A1.25,1.25,0,0,1,39,41.29Z"/></g><g id="Line_75" data-name="Line 75"><path d="M31.26,43.45a1.23,1.23,0,0,1-1.08-.63L27.4,38a1.25,1.25,0,1,1,2.16-1.25l2.79,4.84a1.25,1.25,0,0,1-.46,1.7A1.19,1.19,0,0,1,31.26,43.45Z"/></g><g id="Path_51916" data-name="Path 51916"><path d="M42.3,43.59c-1.41,0-3.07-.61-4.44-3L40,39.38c1.28,2.2,2.52,1.89,4,1.27L45,43A6.89,6.89,0,0,1,42.3,43.59Z"/></g><g id="Path_51917" data-name="Path 51917"><path d="M34.19,45.59a4.25,4.25,0,0,1-.9-.11,4.94,4.94,0,0,1-3.12-2.68l2.19-1.2a2.78,2.78,0,0,0,1.51,1.45,1.73,1.73,0,0,0,1.2-.21l1.42,2.06A4.32,4.32,0,0,1,34.19,45.59Z"/></g><g id="Line_76" data-name="Line 76"><rect x="10.58" y="4.09" width="14.13" height="2.5"/></g><g id="Path_51918" data-name="Path 51918"><polygon points="11.54 36.05 0 36.05 0 33.55 9.04 33.55 9.04 2.5 0.08 2.5 0.08 0 11.54 0 11.54 36.05"/></g><g id="Path_51919" data-name="Path 51919"><polygon points="72.82 38.94 61.27 38.94 61.27 2.89 72.74 2.89 72.74 5.39 63.77 5.39 63.77 36.44 72.82 36.44 72.82 38.94"/></g><g id="Path_51920" data-name="Path 51920"><path d="M53.61,36.24,42.38,14.82c-1.28-.1-3.61-.31-4.7-.41L31.13,21a6.9,6.9,0,0,1-5.88,1.62c-3.14-.75-4.74-4-4.81-4.13l-.34-.7,9.24-12c3.29-4.12,6.73-4.22,6.88-4.22l13.47,0L62.86,7.31l-1,2.3L49.17,4.09l-12.94,0c-.06,0-2.43.14-4.92,3.26L23.07,18.07a5.09,5.09,0,0,0,2.77,2.16,4.52,4.52,0,0,0,3.71-1.13l7.18-7.28.58,0s5,.45,5.93.51l.7,0L55.83,35.07Z"/></g><g id="Path_51921" data-name="Path 51921"><path d="M50.8,41.66c-1.67,0-3.23-1.24-4.63-3.7l-6-9.44a1.25,1.25,0,0,1,2.11-1.34l6.05,9.48c.95,1.67,1.85,2.56,2.58,2.5,1.16-.11,2.59-2.5,3.41-4.8a1.25,1.25,0,0,1,2.36.83C56,37,54.15,41.37,51.11,41.65Z"/></g><g id="Group_38466" data-name="Group 38466"><g id="Path_51922" data-name="Path 51922"><path d="M71.35,29.32a.78.78,0,1,1-1.55,0,.76.76,0,0,1,.77-.77h0a.77.77,0,0,1,.78.77Z"/><path d="M70.58,31.35a2,2,0,0,1,0-4.06h0a2,2,0,0,1,2,2h0A2,2,0,0,1,70.58,31.35Zm-.48-2a.52.52,0,0,0,.14.34.47.47,0,0,0,.34.13h0a.47.47,0,1,0-.48-.47Z"/></g></g><g id="Group_38467" data-name="Group 38467"><g id="Path_51923" data-name="Path 51923"><path d="M3,26.34a.77.77,0,0,1-.78.77.78.78,0,0,1-.78-.78.78.78,0,0,1,1.56,0Z"/><path d="M2.22,28.36h0a2,2,0,0,1-1.43-.59,2,2,0,0,1-.6-1.44,2,2,0,0,1,2-2h0a2,2,0,0,1,1.42.59,2,2,0,0,1,.6,1.43h0a2,2,0,0,1-.6,1.43A2,2,0,0,1,2.22,28.36Zm-.47-2a.48.48,0,0,0,.47.47h0a.47.47,0,0,0,.47-.47Zm0,0h.94A.47.47,0,0,0,2.55,26a.39.39,0,0,0-.33-.14.48.48,0,0,0-.47.47Z"/></g></g></g></g></g></svg>