<svg xmlns="http://www.w3.org/2000/svg" viewBox="0 0 51.41 78.03"><g id="Layer_2" data-name="Layer 2"><g id="Layer_2-2" data-name="Layer 2"><g id="Group_39383" data-name="Group 39383"><g id="Group_39382" data-name="Group 39382"><g id="Path_52839" data-name="Path 52839"><path d="M41.74,78a6.26,6.26,0,0,1-1.07-.1A7.3,7.3,0,0,1,36,74.26c-2.34-3.79-2-6.89,1.07-9A2.47,2.47,0,0,0,38,64.18a1.29,1.29,0,0,1-.59-1.07A1.26,1.26,0,0,1,38.08,62c1.46-.78,5-1.06,7.9,3.42h0c3.52,5.41,3.8,8.46,1,10.54A9,9,0,0,1,41.74,78Zm-1.19-14a4.38,4.38,0,0,1-2,3.29c-.94.64-2.67,1.82-.35,5.57a4.92,4.92,0,0,0,3,2.53c1.21.23,2.62-.27,4.34-1.53.77-.57,2.07-1.52-1.6-7.15h0C42.62,64.84,41.41,64.22,40.55,64.08Z"/></g><g id="Path_52840" data-name="Path 52840"><path d="M7.4,78A9,9,0,0,1,2.18,76c-2.83-2.08-2.55-5.13,1-10.53h0c2.92-4.49,6.44-4.21,7.9-3.43a1.25,1.25,0,0,1,0,2.18A2.47,2.47,0,0,0,12,65.31c3,2.06,3.41,5.16,1.07,8.94a7.29,7.29,0,0,1-4.65,3.68A6.24,6.24,0,0,1,7.4,78Zm1.19-14c-.87.15-2.07.76-3.34,2.72h0c-3.67,5.63-2.37,6.58-1.6,7.15C5.37,75.2,6.79,75.7,8,75.47a4.92,4.92,0,0,0,3-2.53c2.32-3.75.59-4.93-.34-5.57A4.37,4.37,0,0,1,8.59,64.07Z"/></g><g id="Path_52841" data-name="Path 52841"><path d="M33.57,59.65l-2-1.5a59.92,59.92,0,0,0,5.22-8.33L39,51A64.36,64.36,0,0,1,33.57,59.65Z"/></g><g id="Path_52842" data-name="Path 52842"><path d="M27.26,58.13l-2-1.56A64.26,64.26,0,0,0,32,46.34l2.21,1.16A66.3,66.3,0,0,1,27.26,58.13Z"/></g><g id="Path_52843" data-name="Path 52843"><path d="M11.65,66.93,9.59,65.51a19.29,19.29,0,0,1,30.53-1.63l-1.9,1.63a16.78,16.78,0,0,0-23.68-1.8A16.41,16.41,0,0,0,11.65,66.93Z"/></g><g id="Path_52844" data-name="Path 52844"><path d="M14.5,70.91l-2.23-1.14a14.71,14.71,0,0,1,19.8-6.43,14.51,14.51,0,0,1,4.75,3.84l-1.94,1.57a12.32,12.32,0,0,0-3.94-3.19A12.22,12.22,0,0,0,14.5,70.91Z"/></g><g id="Path_52845" data-name="Path 52845"><path d="M42.58,62.1h-2.5V58.84c0-8-8.45-12.28-14.56-12.28H22.2v-2.5h3.32c10.54,0,17.06,7.67,17.06,14.78Z"/></g><g id="Path_52846" data-name="Path 52846"><path d="M8.13,62.1H5.63V58.84c0-7.11,6.52-14.78,17.06-14.78v2.5c-6.1,0-14.56,4.27-14.56,12.28Z"/></g><g id="Path_52847" data-name="Path 52847"><path d="M25.53,41.32h0A12.75,12.75,0,0,1,12.78,28.56a12.75,12.75,0,0,1,25.5,0h0A12.75,12.75,0,0,1,25.53,41.32Zm0-23A10.25,10.25,0,1,0,35.78,28.58,10.26,10.26,0,0,0,25.52,18.32Z"/></g><g id="Path_52848" data-name="Path 52848"><path d="M7.44,28.76H3.36a1.25,1.25,0,0,1-1-.48,1.26,1.26,0,0,1-.23-1.08l1.24-4.89a3.44,3.44,0,0,1-1-2.19,3,3,0,0,1,1.11-2.39v-2.3L.64,13.81A1.23,1.23,0,0,1,0,12.68a1.25,1.25,0,0,1,.72-1.09L25.17.12a1.23,1.23,0,0,1,1.06,0L50.69,11.59a1.25,1.25,0,0,1,.08,2.22l-9.92,5.53a1.25,1.25,0,0,1-1.24,0A1.27,1.27,0,0,1,39,18.25V15.53l-.07,0a33.83,33.83,0,0,0-13.21-2.56,32.81,32.81,0,0,0-13.25,2.57l-.05,0v2.72a1.23,1.23,0,0,1-.61,1.07,1.27,1.27,0,0,1-1.25,0L7.26,17.5v.22a3,3,0,0,1,.85,1.1,2.93,2.93,0,0,1,.08,2.27,3.11,3.11,0,0,1-.75,1.12l1.22,5a1.24,1.24,0,0,1-.24,1.07A1.23,1.23,0,0,1,7.44,28.76ZM5,26.26h.88l-.43-1.78Zm.43-6.73-.17.07a.48.48,0,0,0-.3.44.89.89,0,0,0,.34.61,1.46,1.46,0,0,1,.3-.17.44.44,0,0,0,.28-.27.46.46,0,0,0,0-.36.45.45,0,0,0-.26-.25ZM6,14.12a1.32,1.32,0,0,1,.61.16l3.3,1.84v-1.4a1.25,1.25,0,0,1,.75-1.15l.81-.36a35.92,35.92,0,0,1,14.24-2.77A36.05,36.05,0,0,1,39.9,13.2l.85.36a1.26,1.26,0,0,1,.75,1.15v1.41l5.92-3.3L25.7,2.63,4,12.82l1.41.78a1.3,1.3,0,0,1,.51.53Z"/></g></g></g></g></g></svg>