<svg xmlns="http://www.w3.org/2000/svg" viewBox="0 0 71.92 54.21"><g id="Layer_2" data-name="Layer 2"><g id="Layer_2-2" data-name="Layer 2"><g id="Group_39455" data-name="Group 39455"><g id="Path_52894" data-name="Path 52894"><path d="M26.62,54.16a4,4,0,0,1-4-4L22.38,44l-4.65-.68.36-2.47,5.68.83a1.25,1.25,0,0,1,1.07,1.19l.26,7.28a1.53,1.53,0,0,0,1.52,1.56,1.52,1.52,0,0,0,1.51-1.51L28.33,38l2.5,0-.2,12.14A4,4,0,0,1,26.62,54.16Z"/></g><g id="Path_52895" data-name="Path 52895"><path d="M26.19,37.56a32.42,32.42,0,0,0-8.65-1.26l0-2.5a34.94,34.94,0,0,1,9.31,1.36Z"/></g><g id="Path_52896" data-name="Path 52896"><path d="M3.9,54.21H3.64A3.91,3.91,0,0,1,0,50.13c0-.14,0-.29,0-.44a3.83,3.83,0,0,1,4-3.53l6-.33C4.16,38.17,4.6,35.62,6,32.73c2.71-5.82,9-9.69,14-10.94s8.58.13,9.74,3.65l2.25,6.87L38.1,35a3.91,3.91,0,0,1,2.22,2.21A3.64,3.64,0,0,1,40,40.09c-.85,1.68-2.75,2.23-4.74,1.36-.16-.05-5.66-2-7.72-2.89a4.51,4.51,0,0,1-2.35-1.89l-2-3.47A23,23,0,0,0,17.09,37c.88,2,3.16,7.29,4.19,9.52s1.16,3.93.36,5.41a4.24,4.24,0,0,1-3.75,2.24H3.9Zm-.08-5.55a1.32,1.32,0,0,0-1.31,1.22,1.09,1.09,0,0,0,0,.18.43.43,0,0,1,0,.16,1.39,1.39,0,0,0,.35,1,1.35,1.35,0,0,0,1,.47H17.89a1.76,1.76,0,0,0,1.55-.92c.28-.51.44-1.29-.43-3.18-1.29-2.82-4.54-10.33-4.57-10.41a1.26,1.26,0,0,1,.29-1.41,25.85,25.85,0,0,1,8.61-5.31,1.25,1.25,0,0,1,1.52.55l2.51,4.36a2.12,2.12,0,0,0,1.1.85c2.08.86,7.69,2.88,7.75,2.9.6.26,1.29.42,1.58-.16a1.26,1.26,0,0,0,.16-.91,1.64,1.64,0,0,0-.89-.76l-6.65-2.93a1.2,1.2,0,0,1-.68-.75l-2.42-7.4c-1-3.08-5.07-2.43-6.76-2-4.45,1.11-10,4.5-12.34,9.58-.9,1.92-1.75,3.74,5.23,12.37a1.23,1.23,0,0,1,.17,1.29,1.25,1.25,0,0,1-1.07.74l-8.46.47a.48.48,0,0,1-.17,0Z"/></g><g id="Path_52897" data-name="Path 52897"><path d="M35.22,27.76a6.61,6.61,0,0,1-6.6-6.6h0a6.6,6.6,0,1,1,6.6,6.6Zm0-10.7a4.1,4.1,0,0,0-4.1,4.1h0a4.1,4.1,0,1,0,4.1-4.1Z"/></g><g id="Path_52898" data-name="Path 52898"><path d="M50.77,24.25,46.37,24A4.79,4.79,0,0,1,47,14.41l5.44.36-.17,2.49-5.43-.35A2.3,2.3,0,0,0,44.4,19,2.26,2.26,0,0,0,45,20.69a2.29,2.29,0,0,0,1.57.78l4.4.28Z"/></g><g id="Path_52899" data-name="Path 52899"><path d="M60.67,54.11H51.3a2.9,2.9,0,0,1-2.9-2.9V41.73h2.5v9.48a.4.4,0,0,0,.41.4h9.36a.4.4,0,0,0,.41-.4V43.52h2.5v7.69A2.91,2.91,0,0,1,60.67,54.11Z"/></g><g id="Path_52900" data-name="Path 52900"><path d="M71.79,44.77H55.1C49,44.77,44,39.37,44,32.74s5-12,11.13-12H71.79v2.5H55.1c-4.76,0-8.63,4.28-8.63,9.54s3.87,9.53,8.63,9.53H71.79Z"/></g><g id="Path_52901" data-name="Path 52901"><path d="M56.5,39.09h0a5.92,5.92,0,1,1,4.22-1.74A6,6,0,0,1,56.48,39.09Zm0-9.4a3.45,3.45,0,1,0,0,6.9h0a3.45,3.45,0,0,0,0-6.9Z"/></g><g id="Path_52902" data-name="Path 52902"><path d="M52.25,23.15l-2.45-.47C50.9,16.94,53,6,53.08,5.47a4,4,0,0,1,2.89-3A150.77,150.77,0,0,1,71.66,0l.26,2.49a145,145,0,0,0-15.38,2.4,1.42,1.42,0,0,0-1,1.07C55.44,6.52,52.38,22.47,52.25,23.15Z"/></g></g></g></g></svg>