<svg xmlns="http://www.w3.org/2000/svg" viewBox="0 0 46.62 70.2"><g id="Layer_2" data-name="Layer 2"><g id="Layer_2-2" data-name="Layer 2"><g id="Group_38446" data-name="Group 38446"><g id="Path_51890" data-name="Path 51890"><path d="M37.67,39l-1.61-1.91A19.61,19.61,0,1,0,8.41,34.8a20,20,0,0,0,2.26,2.25L9.05,39a21.85,21.85,0,0,1-2.54-2.55A22.11,22.11,0,1,1,37.67,39ZM23.38,36.58A14.49,14.49,0,0,1,15.31,10l.07,0a14.5,14.5,0,1,1,8,26.59ZM16.63,12.16A12,12,0,0,0,30,32.07a12,12,0,0,0-13.32-20Z"/></g><g id="Path_51891" data-name="Path 51891"><path d="M23.37,26.43a4.26,4.26,0,0,1-.86-.09,4.27,4.27,0,1,1,.86.09Zm0-6.18a1.83,1.83,0,0,0-1.52,2.86h0a1.83,1.83,0,0,0,2.54.51,1.84,1.84,0,0,0-1-3.37Z"/></g><g id="Path_51892" data-name="Path 51892"><path d="M16.23,27.86a1.26,1.26,0,0,1-1-.56,9.61,9.61,0,0,1-1.62-4.92,1.25,1.25,0,1,1,2.5-.11,7.08,7.08,0,0,0,1.2,3.64,1.25,1.25,0,0,1-.34,1.73A1.23,1.23,0,0,1,16.23,27.86Z"/></g><g id="Path_51893" data-name="Path 51893"><path d="M16.77,18a1.2,1.2,0,0,1-.74-.25A1.24,1.24,0,0,1,15.77,16a9.64,9.64,0,0,1,4.09-3.19,1.26,1.26,0,0,1,1.63.69,1.25,1.25,0,0,1-.68,1.63,7.09,7.09,0,0,0-3,2.35A1.23,1.23,0,0,1,16.77,18Z"/></g><g id="Path_51894" data-name="Path 51894"><path d="M23.26,31.78a9.52,9.52,0,0,1-2.59-.36A1.25,1.25,0,0,1,21.34,29a7.15,7.15,0,0,0,3.84,0,1.25,1.25,0,1,1,.67,2.41A9.47,9.47,0,0,1,23.26,31.78Z"/></g><g id="Path_51895" data-name="Path 51895"><path d="M30,18a1.23,1.23,0,0,1-1-.5,7.26,7.26,0,0,0-3-2.37,1.25,1.25,0,0,1,.95-2.31A9.7,9.7,0,0,1,31,16a1.26,1.26,0,0,1-.26,1.75A1.31,1.31,0,0,1,30,18Z"/></g><g id="Path_51896" data-name="Path 51896"><path d="M30.52,27.74a1.3,1.3,0,0,1-.7-.21,1.26,1.26,0,0,1-.34-1.74,7.08,7.08,0,0,0,1.2-3.64A1.27,1.27,0,0,1,32,21a1.25,1.25,0,0,1,1.19,1.31,9.61,9.61,0,0,1-1.62,4.92A1.25,1.25,0,0,1,30.52,27.74Z"/></g><g id="Rectangle_2137" data-name="Rectangle 2137"><path d="M41.47,56.17H5.15A5.16,5.16,0,0,1,0,51V44.7a5.16,5.16,0,0,1,5.15-5.15H41.47a5.16,5.16,0,0,1,5.15,5.15V51A5.16,5.16,0,0,1,41.47,56.17ZM5.15,42.05A2.65,2.65,0,0,0,2.5,44.7V51a2.66,2.66,0,0,0,2.65,2.66H41.47A2.66,2.66,0,0,0,44.12,51V44.7a2.65,2.65,0,0,0-2.65-2.65Z"/></g><g id="Rectangle_2138" data-name="Rectangle 2138"><path d="M41.47,70.2H5.15A5.16,5.16,0,0,1,0,65.05V58.73a5.16,5.16,0,0,1,5.15-5.15H41.47a5.16,5.16,0,0,1,5.15,5.15v6.32A5.16,5.16,0,0,1,41.47,70.2ZM5.15,56.08A2.65,2.65,0,0,0,2.5,58.73v6.32A2.65,2.65,0,0,0,5.15,67.7H41.47a2.65,2.65,0,0,0,2.65-2.65V58.73a2.65,2.65,0,0,0-2.65-2.65Z"/></g></g></g></g></svg>