<svg xmlns="http://www.w3.org/2000/svg" viewBox="0 0 47.17 67.77"><g id="Layer_2" data-name="Layer 2"><g id="Layer_2-2" data-name="Layer 2"><g id="Group_39481" data-name="Group 39481"><g id="Group_39480" data-name="Group 39480"><g id="Path_52917" data-name="Path 52917"><path d="M0,67.77v-2.5H44.67V3.67l-2.5,1.77a1.25,1.25,0,0,1-1.45,0L37,2.79,33.2,5.45a1.26,1.26,0,0,1-1.45,0L28,2.8,24.27,5.45a1.23,1.23,0,0,1-1.44,0L19.11,2.8,15.34,5.45a1.25,1.25,0,0,1-1.44,0L10.17,2.8,6.41,5.45A1.28,1.28,0,0,1,5,5.45L2.5,3.69v57H0V1.27A1.26,1.26,0,0,1,.68.15,1.25,1.25,0,0,1,2,.25L5.69,2.9,9.46.24a1.25,1.25,0,0,1,1.44,0L14.63,2.9,18.39.24a1.26,1.26,0,0,1,1.45,0L23.56,2.9,27.31.24a1.26,1.26,0,0,1,1.45,0l3.72,2.64L36.28.24a1.23,1.23,0,0,1,1.44,0l3.72,2.65L45.19.23a1.24,1.24,0,0,1,1.3-.09,1.26,1.26,0,0,1,.67,1.11V66.51a1.29,1.29,0,0,1-.36.89,1.27,1.27,0,0,1-.89.36Z"/></g><g id="Line_234" data-name="Line 234"><rect x="10.17" y="12.46" width="26.83" height="2.5"/></g><g id="Line_235" data-name="Line 235"><rect x="14.48" y="18.41" width="18.21" height="2.5"/></g><g id="Group_39479" data-name="Group 39479"><g id="Group_39474" data-name="Group 39474"><g id="Group_39473" data-name="Group 39473"><g id="Rectangle_2443" data-name="Rectangle 2443"><rect x="9.06" y="33.9" width="0.86" height="0.86"/><rect x="7.81" y="32.65" width="3.35" height="3.36"/></g></g><g id="Line_236" data-name="Line 236"><rect x="14.73" y="33.08" width="9" height="2.5"/></g></g><g id="Group_39476" data-name="Group 39476"><g id="Group_39475" data-name="Group 39475"><g id="Rectangle_2444" data-name="Rectangle 2444"><rect x="9.06" y="41.89" width="0.86" height="0.86"/><rect x="7.81" y="40.64" width="3.35" height="3.36"/></g></g><g id="Line_237" data-name="Line 237"><rect x="14.73" y="41.07" width="9.33" height="2.5"/></g></g><g id="Group_39478" data-name="Group 39478"><g id="Group_39477" data-name="Group 39477"><g id="Rectangle_2445" data-name="Rectangle 2445"><rect x="9.06" y="49.89" width="0.86" height="0.86"/><rect x="7.81" y="48.64" width="3.35" height="3.35"/></g></g><g id="Line_238" data-name="Line 238"><rect x="14.73" y="49.06" width="9" height="2.5"/></g></g></g><g id="Path_51859" data-name="Path 51859"><path d="M32.69,51.71c-.5,0-.82,0-.87,0l-1.12-.12V33.89a1.25,1.25,0,0,1,2.5,0v15.3a7,7,0,0,0,4.25-1.48,4.87,4.87,0,0,0,1.45-3.84,1.25,1.25,0,0,1,2.5,0,7.33,7.33,0,0,1-2.28,5.7A9.81,9.81,0,0,1,32.69,51.71Z"/></g><g id="Line_57" data-name="Line 57"><path d="M27.54,43.59a1.25,1.25,0,0,1-.64-2.32l9.31-5.59a1.25,1.25,0,1,1,1.29,2.15l-9.32,5.58A1.24,1.24,0,0,1,27.54,43.59Z"/></g></g></g></g></g></svg>