<svg xmlns="http://www.w3.org/2000/svg" viewBox="0 0 59.89 60.72"><g id="Layer_2" data-name="Layer 2"><g id="Layer_2-2" data-name="Layer 2"><g id="Group_38528" data-name="Group 38528"><g id="Group_38463" data-name="Group 38463"><g id="Group_38456" data-name="Group 38456"><g id="Group_38455" data-name="Group 38455"><g id="Path_51907" data-name="Path 51907"><path d="M29.94,26h0a6.29,6.29,0,0,1,0-12.58h0a6.31,6.31,0,0,1,6.29,6.29h0A6.3,6.3,0,0,1,29.94,26Zm0-10.08a3.79,3.79,0,0,0,0,7.58h0a3.79,3.79,0,0,0,0-7.58Z"/></g><g id="Path_51908" data-name="Path 51908"><path d="M36.53,54.33v-2.5c.91,0,3.69,0,3.69-5.44V36.6a5.47,5.47,0,0,0-5.44-5.44H25.1a5.47,5.47,0,0,0-5.44,5.44v9.79c0,5.44,2.78,5.44,3.7,5.44v2.5c-3.94,0-6.2-2.9-6.2-7.94V36.6a8,8,0,0,1,7.94-7.94h9.68a8,8,0,0,1,7.94,7.94v9.79C42.72,51.43,40.46,54.33,36.53,54.33Z"/></g><g id="Group_38454" data-name="Group 38454"><g id="Line_69" data-name="Line 69"><rect x="35.34" y="38.62" width="2.5" height="22.1"/></g><g id="Line_70" data-name="Line 70"><rect x="22.05" y="38.62" width="2.5" height="22.1"/></g></g></g></g><g id="Group_38459" data-name="Group 38459"><g id="Group_38458" data-name="Group 38458"><g id="Path_51909" data-name="Path 51909"><path d="M12.78,26h0a6.29,6.29,0,1,1,6.28-6.29h0A6.28,6.28,0,0,1,12.78,26Zm0-10.08a3.79,3.79,0,1,0,0,7.58h0a3.79,3.79,0,0,0,3.78-3.79A3.8,3.8,0,0,0,12.78,16Z"/></g><g id="Path_51910" data-name="Path 51910"><path d="M6.19,54.33C2.26,54.33,0,51.43,0,46.39V36.6a8,8,0,0,1,7.93-7.94h7.19v2.5H7.94A5.47,5.47,0,0,0,2.5,36.6v9.79c0,5.44,2.78,5.44,3.69,5.44Z"/></g><g id="Group_38457" data-name="Group 38457"><g id="Line_71" data-name="Line 71"><rect x="4.89" y="38.62" width="2.5" height="22.1"/></g></g></g></g><g id="Group_38462" data-name="Group 38462"><g id="Group_38461" data-name="Group 38461"><g id="Path_51911" data-name="Path 51911"><path d="M47.11,26a6.28,6.28,0,1,1,4.45-1.84A6.25,6.25,0,0,1,47.11,26Zm0-10.08a3.79,3.79,0,1,0,0,7.58h0a3.79,3.79,0,0,0,0-7.58Z"/></g><g id="Path_51912" data-name="Path 51912"><path d="M53.69,54.33v-2.5c.92,0,3.7,0,3.7-5.44V36.6A5.47,5.47,0,0,0,52,31.16H44.76v-2.5H52a8,8,0,0,1,7.94,7.94v9.79C59.89,51.43,57.63,54.33,53.69,54.33Z"/></g><g id="Group_38460" data-name="Group 38460"><g id="Line_72" data-name="Line 72"><rect x="52.5" y="38.62" width="2.5" height="22.1"/></g></g></g></g></g><g id="Group_38464" data-name="Group 38464"><g id="Path_51913" data-name="Path 51913"><path d="M38.53,12.57h0A6.29,6.29,0,0,1,38.53,0h0a6.29,6.29,0,0,1,6.28,6.29h0a6.28,6.28,0,0,1-6.28,6.28Zm0-10.07a3.79,3.79,0,1,0,0,7.57h0a3.79,3.79,0,0,0,3.78-3.78A3.79,3.79,0,0,0,38.53,2.5Z"/></g><g id="Path_51914" data-name="Path 51914"><path d="M21.36,12.57h0A6.29,6.29,0,0,1,21.36,0h0a6.29,6.29,0,0,1,6.29,6.29h0a6.23,6.23,0,0,1-1.85,4.44A6.21,6.21,0,0,1,21.36,12.57Zm0-10.07a3.79,3.79,0,0,0,0,7.57h0a3.79,3.79,0,1,0,0-7.57Z"/></g></g></g></g></g></svg>