<svg xmlns="http://www.w3.org/2000/svg" viewBox="0 0 75.73 69.22"><g id="Layer_2" data-name="Layer 2"><g id="Layer_2-2" data-name="Layer 2"><g id="Group_39471" data-name="Group 39471"><g id="Group_39464" data-name="Group 39464"><g id="Path_52909" data-name="Path 52909"><path d="M10.88,69.22,9,67.57c4.16-4.7,7.7-5.74,7.85-5.78a1.06,1.06,0,0,1,.31,0l25.43-.69,1.17-.29L71,46.14a3.83,3.83,0,0,0,1.86-5c-.85-1.57-3-2-5.06-.9L54.6,47l-1.14-2.23L66.68,38c3.2-1.71,6.93-.84,8.46,2a6.34,6.34,0,0,1-3,8.4L44.8,63a1,1,0,0,1-.28.11l-1.45.37-.27,0-25.39.69A17.27,17.27,0,0,0,10.88,69.22Z"/></g><g id="Path_52910" data-name="Path 52910"><path d="M1.69,55.87,0,54,11.75,43.24c5.84-3.94,12.58-2.13,13.39-1.89a54.87,54.87,0,0,0,9,1h10c3.68,0,6.68,2.69,6.68,6s-3,6-6.68,6H30.29v-2.5H44.18c2.31,0,4.18-1.56,4.18-3.49s-1.87-3.5-4.18-3.5h-10a57.22,57.22,0,0,1-9.54-1.07l-.14,0c-.05,0-6.17-1.85-11.24,1.51Z"/></g></g><g id="Group_39469" data-name="Group 39469"><g id="Group_39466" data-name="Group 39466"><g id="Group_39465" data-name="Group 39465"><g id="Path_52911" data-name="Path 52911"><path d="M24.69,16.5a.85.85,0,1,1-.85-.85.85.85,0,0,1,.85.85Z"/><path d="M23.84,18.59h0a2.1,2.1,0,1,1,0-4.19h0a2.1,2.1,0,0,1,2.1,2.09h0A2.07,2.07,0,0,1,25.32,18,2.11,2.11,0,0,1,23.84,18.59Zm-.4-2.09a.4.4,0,0,0,.4.4h0a.4.4,0,0,0,.4-.4Zm0,0h.8a.41.41,0,0,0-.11-.28.4.4,0,0,0-.29-.12h0a.4.4,0,0,0-.29.12.41.41,0,0,0-.11.28Z"/></g></g></g><g id="Group_39468" data-name="Group 39468"><g id="Group_39467" data-name="Group 39467"><g id="Path_52912" data-name="Path 52912"><path d="M52.49,16.5a.84.84,0,0,1-.84.84.85.85,0,1,1,0-1.69.84.84,0,0,1,.84.84Z"/><path d="M51.65,18.59h0a2.1,2.1,0,1,1,0-4.19h0a2.08,2.08,0,0,1,2.09,2.09h0A2.06,2.06,0,0,1,53.13,18,2.11,2.11,0,0,1,51.65,18.59Zm-.41-2.09a.42.42,0,0,0,.41.4h0a.4.4,0,0,0,.4-.4Zm0,0h.81a.41.41,0,0,0-.4-.4h0a.4.4,0,0,0-.29.12.47.47,0,0,0-.12.28Z"/></g></g></g></g><g id="Group_39470" data-name="Group 39470"><g id="Rectangle_2442" data-name="Rectangle 2442"><path d="M65.86,33H9.62V0H65.86Zm-53.74-2.5H63.36V2.5H12.12Z"/></g><g id="Path_52913" data-name="Path 52913"><path d="M55.19,27H45.41v-2.5h7.42a5.71,5.71,0,0,1,4.3-4.3V12.78a5.71,5.71,0,0,1-4.3-4.3H45.41V6h9.78V7.23a3.19,3.19,0,0,0,3.19,3.19h1.25V22.57H58.38a3.19,3.19,0,0,0-3.19,3.19Z"/></g><g id="Path_52914" data-name="Path 52914"><path d="M30.25,27H20.3V25.75a3.2,3.2,0,0,0-3.19-3.19H15.86V10.42h1.25A3.19,3.19,0,0,0,20.3,7.23V6h10v2.5H22.66a5.72,5.72,0,0,1-4.3,4.3V20.2a5.72,5.72,0,0,1,4.3,4.3h7.59Z"/></g></g><g id="Path_52915" data-name="Path 52915"><path d="M37.74,26.08c-4,0-7.22-4.3-7.22-9.59s3.24-9.58,7.22-9.58S45,11.21,45,16.49,41.72,26.08,37.74,26.08Zm0-16.67c-2.55,0-4.72,3.24-4.72,7.08s2.17,7.09,4.72,7.09,4.72-3.25,4.72-7.09S40.3,9.41,37.74,9.41Z"/></g></g></g></g></svg>