<svg xmlns="http://www.w3.org/2000/svg" viewBox="0 0 65.97 84.1"><g id="Layer_2" data-name="Layer 2"><g id="Layer_2-2" data-name="Layer 2"><g id="Group_39367" data-name="Group 39367"><g id="Group_39378" data-name="Group 39378"><g id="Group_39374" data-name="Group 39374"><g id="Group_39373" data-name="Group 39373"><g id="Group_39372" data-name="Group 39372"><g id="Group_39368" data-name="Group 39368"><g id="Group_39367-2" data-name="Group 39367-2"><g id="Line_183" data-name="Line 183"><path d="M23.87,34.67a1.25,1.25,0,0,1-1.25-1.25V29.58a1.25,1.25,0,0,1,2.5,0v3.84A1.24,1.24,0,0,1,23.87,34.67Z"/></g><g id="Path_52834" data-name="Path 52834"><path d="M23.87,25.81a1.25,1.25,0,0,1-1.25-1.25V16.61H18.29A2.57,2.57,0,0,1,15.8,15a3.05,3.05,0,0,1,.5-3.13l.07-.07L27.18.93a3.2,3.2,0,0,1,4.51,0l11,11A3.06,3.06,0,0,1,43.05,15a2.47,2.47,0,0,1-2.22,1.62H36.66v6.75a1.25,1.25,0,0,1-2.5,0V14.11h6.63a.91.91,0,0,0-.08-.63L29.92,2.7a.68.68,0,0,0-1,0L18.18,13.51a.53.53,0,0,0-.06.53c0,.05,0,.08.09.07h6.91V24.56A1.24,1.24,0,0,1,23.87,25.81Z"/></g></g></g><g id="Group_39370" data-name="Group 39370"><g id="Group_39369" data-name="Group 39369"><g id="Line_184" data-name="Line 184"><path d="M55.8,61.41a1.25,1.25,0,0,1-1.25-1.25V57.3a1.25,1.25,0,0,1,2.5,0v2.86A1.25,1.25,0,0,1,55.8,61.41Z"/></g><g id="Line_185" data-name="Line 185"><path d="M40.3,67a1.25,1.25,0,0,1-1.25-1.25V63.11a1.25,1.25,0,0,1,2.5,0v2.62A1.25,1.25,0,0,1,40.3,67Z"/></g><g id="Line_186" data-name="Line 186"><path d="M40.3,59.39a1.24,1.24,0,0,1-1.25-1.25V53.46a1.25,1.25,0,1,1,2.5,0v4.68A1.24,1.24,0,0,1,40.3,59.39Z"/></g><g id="Path_52835" data-name="Path 52835"><path d="M55.8,53.76a1.25,1.25,0,0,1-1.25-1.25V39.9H63a.36.36,0,0,0,.3-.25l0-.11a1.24,1.24,0,0,0-.1-1.18L48.73,23.85a1.36,1.36,0,0,0-1.92,0L32.33,38.39a1.17,1.17,0,0,0-.16,1.17.54.54,0,0,0,.55.35h8.83v9a1.25,1.25,0,0,1-2.5,0V42.41H32.79a3,3,0,0,1-2.94-1.91,3.66,3.66,0,0,1,.6-3.76l.07-.07L45,22.08a3.87,3.87,0,0,1,5.46,0L65.2,36.79a3.7,3.7,0,0,1,.46,3.72,2.86,2.86,0,0,1-2.59,1.89h-6V52.51A1.25,1.25,0,0,1,55.8,53.76Z"/></g></g></g><g id="Group_39371" data-name="Group 39371"><g id="Line_187" data-name="Line 187"><path d="M47.77,62.8a1.25,1.25,0,0,1-1.25-1.25V48.64a1.25,1.25,0,0,1,2.5,0V61.55A1.25,1.25,0,0,1,47.77,62.8Z"/></g><g id="Line_188" data-name="Line 188"><path d="M47.77,74.19a1.25,1.25,0,0,1-1.25-1.25V66.51a1.25,1.25,0,0,1,2.5,0v6.43A1.25,1.25,0,0,1,47.77,74.19Z"/></g><g id="Line_189" data-name="Line 189"><path d="M47.77,81.21A1.25,1.25,0,0,1,46.52,80v-2a1.25,1.25,0,0,1,2.5,0v2A1.25,1.25,0,0,1,47.77,81.21Z"/></g></g></g></g></g><g id="Group_39377" data-name="Group 39377"><g id="Group_39375" data-name="Group 39375"><g id="Path_52836" data-name="Path 52836"><path d="M17.6,84.1a1.24,1.24,0,0,1-.53-.12C-.18,75.86-.07,67.13,0,66V48.31a1.25,1.25,0,0,1,1.25-1.25c7.13,0,11.06-2.05,13.09-3.76A1.25,1.25,0,0,1,16,45.21c-2.22,1.87-6.33,4.09-13.45,4.33V66.09a.81.81,0,0,1,0,.16c0,.06-.56,7.67,15.1,15.22,15.66-7.55,15.1-15.16,15.09-15.23V49.54C19.57,49.11,16.56,42,16.44,41.71a1.25,1.25,0,0,1,.69-1.63,1.27,1.27,0,0,1,1.63.7c.1.24,2.81,6.28,15.18,6.28a1.25,1.25,0,0,1,1.25,1.25V66c.08,1.09.19,9.82-17.06,17.94A1.24,1.24,0,0,1,17.6,84.1Z"/></g></g><g id="Group_39376" data-name="Group 39376"><g id="Path_52837" data-name="Path 52837"><path d="M17.77,67.34h0a1.24,1.24,0,0,1-1-.52l-5.14-7.11a1.25,1.25,0,1,1,2-1.46l4.2,5.81L26.29,54a1.25,1.25,0,1,1,1.92,1.6L18.73,66.89A1.22,1.22,0,0,1,17.77,67.34Z"/></g><g id="Path_52838" data-name="Path 52838"><path d="M17.6,73.06a11,11,0,1,1,6.66-19.79l-1.51,2a8.51,8.51,0,1,0,3.15,4.87l2.43-.56A11,11,0,0,1,17.6,73.06Z"/></g></g></g></g></g></g></g></svg>