<svg xmlns="http://www.w3.org/2000/svg" viewBox="0 0 82.9 68.55"><g id="Layer_2" data-name="Layer 2"><g id="Layer_2-2" data-name="Layer 2"><g id="Group_39457" data-name="Group 39457"><g id="Group_39411" data-name="Group 39411"><g id="Group_39410" data-name="Group 39410"><g id="Path_52867" data-name="Path 52867"><path d="M11.75,68.55,9.87,66.9c4.53-5.13,8.39-6.26,8.55-6.3a1,1,0,0,1,.3-.05l27.9-.75,1.31-.33,29.93-16a4.88,4.88,0,0,0,2.29-2.6,3.66,3.66,0,0,0-.17-3c-1-1.82-3.5-2.31-5.75-1.11L59.72,44.11l-1.14-2.23,14.49-7.41c3.46-1.85,7.47-.91,9.11,2.15a6.12,6.12,0,0,1,.32,5.05,7.33,7.33,0,0,1-3.46,4L49,61.74a1.15,1.15,0,0,1-.29.11l-1.59.4a.84.84,0,0,1-.27,0L19,63.05C18.34,63.27,15.31,64.52,11.75,68.55Z"/></g><g id="Path_52868" data-name="Path 52868"><path d="M1.69,53.9,0,52.06,12.86,40.24c6.38-4.3,13.74-2.31,14.59-2.06a60.14,60.14,0,0,0,9.94,1.12h11c4,0,7.21,2.89,7.21,6.45s-3.24,6.45-7.21,6.45H33.13V49.7H48.35c2.6,0,4.71-1.77,4.71-4s-2.11-4-4.71-4h-11a62.49,62.49,0,0,1-10.44-1.18l-.13,0c-.07,0-6.84-2.05-12.44,1.67Z"/></g></g></g><g id="Group_39412" data-name="Group 39412"><g id="Line_46" data-name="Line 46"><path d="M48.77,23.09a1.25,1.25,0,0,1-1.25-1.25V17.79a1.25,1.25,0,0,1,2.5,0v4.05A1.25,1.25,0,0,1,48.77,23.09Z"/></g><g id="Line_47" data-name="Line 47"><path d="M55.88,23.09a1.25,1.25,0,0,1-1.25-1.25V17.79a1.25,1.25,0,0,1,2.5,0v4.05A1.25,1.25,0,0,1,55.88,23.09Z"/></g><g id="Path_51839" data-name="Path 51839"><path d="M61.51,23.54H40.65V21H61.5A3.11,3.11,0,0,0,64.59,18V14.83a3.1,3.1,0,0,0-3.09-3.08H40.65V9.25H61.5a5.61,5.61,0,0,1,5.59,5.58V18A5.61,5.61,0,0,1,61.51,23.54Z"/></g><g id="Group_38398" data-name="Group 38398"><g id="Group_38397" data-name="Group 38397"><g id="Path_51840" data-name="Path 51840"><path d="M20.77,16.39a1.13,1.13,0,0,1-1.12,1.12,1.12,1.12,0,0,1,0-2.23h0a1.12,1.12,0,0,1,1.12,1.11Z"/><path d="M19.65,18.76h0a2.37,2.37,0,0,1-2.36-2.37,2.37,2.37,0,0,1,4.73,0v0a2.37,2.37,0,0,1-2.37,2.36Zm-.13-2.37c0,.16.27.15.27,0Zm0,0h.27a.13.13,0,0,0-.14-.13h0a.13.13,0,0,0-.13.13Z"/></g></g></g><g id="Path_51841" data-name="Path 51841"><path d="M20.45,32.78a10.35,10.35,0,0,1-7.11-2.7A14,14,0,0,1,9.11,19.7V13.09A14.09,14.09,0,0,1,13.34,2.7,10.53,10.53,0,0,1,21.57.05l.13,0L36.2,3c5.28,1.54,5.66,4.86,5.66,10.15v6.46c0,5.37-.38,8.69-5.66,10.24l-.11,0L21.57,32.73A10.61,10.61,0,0,1,20.45,32.78Zm0-30.28A7.93,7.93,0,0,0,15,4.56a11.71,11.71,0,0,0-3.41,8.54v6.59A11.71,11.71,0,0,0,15,28.23a8,8,0,0,0,6.26,2L35.55,27.4c3.36-1,3.81-2.47,3.81-7.73V13.12c0-5.27-.45-6.74-3.81-7.74L21.28,2.53Z"/></g></g></g></g></g></svg>