<svg xmlns="http://www.w3.org/2000/svg" viewBox="0 0 80.19 49.09"><g id="Layer_2" data-name="Layer 2"><g id="Layer_2-2" data-name="Layer 2"><g id="Group_38525" data-name="Group 38525"><g id="Line_34" data-name="Line 34"><path d="M22.3,29.09H11.15a1.25,1.25,0,0,1,0-2.5H22.3a1.25,1.25,0,0,1,0,2.5Z"/></g><g id="Line_35" data-name="Line 35"><path d="M16,37.08H9.3a1.25,1.25,0,1,1,0-2.5H16a1.25,1.25,0,0,1,0,2.5Z"/></g><g id="Line_36" data-name="Line 36"><path d="M21.65,17.5H10.77a1.25,1.25,0,0,1,0-2.5H21.65a1.25,1.25,0,0,1,0,2.5Z"/></g><g id="Line_37" data-name="Line 37"><path d="M54.85,49.09H40.77a1.25,1.25,0,0,1,0-2.5H54.85a1.25,1.25,0,0,1,0,2.5Z"/></g><g id="Group_38387" data-name="Group 38387"><g id="Line_38" data-name="Line 38"><path d="M35.86,49.09H31.14a1.25,1.25,0,0,1,0-2.5h4.72a1.25,1.25,0,0,1,0,2.5Z"/></g></g><g id="Line_39" data-name="Line 39"><path d="M6,29.09H1.25a1.25,1.25,0,0,1,0-2.5H6a1.25,1.25,0,1,1,0,2.5Z"/></g><g id="Line_40" data-name="Line 40"><path d="M45.94,2.5H33.59a1.25,1.25,0,0,1,0-2.5H45.94a1.25,1.25,0,0,1,0,2.5Z"/></g><g id="Line_41" data-name="Line 41"><path d="M28.59,2.5H23.87a1.25,1.25,0,0,1,0-2.5h4.72a1.25,1.25,0,0,1,0,2.5Z"/></g><g id="Line_42" data-name="Line 42"><path d="M18.87,2.5H16A1.25,1.25,0,0,1,16,0h2.85a1.25,1.25,0,0,1,0,2.5Z"/></g><g id="Group_38394" data-name="Group 38394"><g id="Group_38393" data-name="Group 38393"><g id="Group_38392" data-name="Group 38392"><g id="Group_38389" data-name="Group 38389"><g id="Group_38388" data-name="Group 38388"><g id="Path_51831" data-name="Path 51831"><path d="M37.22,24.65a.78.78,0,1,1-.78-.78h0a.78.78,0,0,1,.77.77Z"/><path d="M36.44,26.67h0a2,2,0,0,1-2-2,2,2,0,0,1,2-2h0a2,2,0,0,1,2,2h0a2,2,0,0,1-2,2Zm-.47-2a.47.47,0,0,0,.48.47h0a.48.48,0,0,0,.47-.47Zm0,0h1a.47.47,0,0,0-.47-.47h0a.48.48,0,0,0-.47.47Z"/></g></g></g><g id="Group_38391" data-name="Group 38391"><g id="Group_38390" data-name="Group 38390"><g id="Path_51832" data-name="Path 51832"><path d="M65.54,24.65a.78.78,0,1,1-.78-.78.78.78,0,0,1,.78.78Z"/><path d="M64.76,26.67h0a2,2,0,0,1,0-4.05h0a2,2,0,0,1,2,2h0a2,2,0,0,1-2,2Zm-.47-2a.47.47,0,0,0,.14.33.48.48,0,0,0,.34.14h0a.47.47,0,0,0,.47-.47Zm0,0h.95a.47.47,0,0,0-.47-.47h0a.48.48,0,0,0-.47.47Z"/></g></g></g></g><g id="Path_51833" data-name="Path 51833"><polygon points="80.19 41.97 21.02 41.97 21.02 27.87 23.52 27.87 23.52 39.47 77.69 39.47 77.69 9.82 23.52 9.82 23.52 23.07 21.02 23.07 21.02 7.32 80.19 7.32 80.19 41.97"/></g><g id="Path_51834" data-name="Path 51834"><path d="M70.18,36H31V34.74a2.83,2.83,0,0,0-2.81-2.81H27V17.36h1.25A2.81,2.81,0,0,0,31,14.55V13.3H70.18v1.25A2.8,2.8,0,0,0,73,17.36h1.26V31.93H73a2.83,2.83,0,0,0-2.81,2.81Zm-36.8-2.5H67.83a5.32,5.32,0,0,1,3.91-3.91V19.71a5.39,5.39,0,0,1-2.51-1.41,5.21,5.21,0,0,1-1.4-2.5H33.38a5.34,5.34,0,0,1-3.91,3.91v9.87A5.34,5.34,0,0,1,33.38,33.49Z"/></g><g id="Path_51835" data-name="Path 51835"><path d="M50.61,30.53l-.46,0A6.24,6.24,0,0,1,50.6,18a6.46,6.46,0,0,1,6.23,6.65v0A6.25,6.25,0,0,1,50.61,30.53Zm0-10a3.75,3.75,0,1,0,3.78,4A3.94,3.94,0,0,0,50.56,20.54Z"/></g></g></g></g></g></g></svg>