<svg xmlns="http://www.w3.org/2000/svg" viewBox="0 0 60.94 72.46"><g id="Layer_2" data-name="Layer 2"><g id="Layer_2-2" data-name="Layer 2"><g id="Group_38526" data-name="Group 38526"><g id="Group_38419" data-name="Group 38419"><g id="Path_51858" data-name="Path 51858"><path d="M30.52,46.19A17.34,17.34,0,0,1,15.17,20.72a1.25,1.25,0,0,1,2.21,1.17,14.85,14.85,0,1,0,3.78-4.59,1.25,1.25,0,0,1-1.57-2A17.35,17.35,0,1,1,30.52,46.19Z"/></g><g id="Path_51859" data-name="Path 51859"><path d="M30,40.41a10,10,0,0,1-1,0l-1.12-.12V18.89a1.25,1.25,0,0,1,2.5,0v19A9,9,0,0,0,36,36,6.33,6.33,0,0,0,37.9,31.1a1.25,1.25,0,0,1,2.5,0,8.7,8.7,0,0,1-2.71,6.78C35.22,40.11,31.75,40.41,30,40.41Z"/></g><g id="Line_57" data-name="Line 57"><path d="M23.72,30.48a1.25,1.25,0,0,1-.65-2.32l11.41-6.83a1.25,1.25,0,0,1,1.28,2.14l-11.4,6.84A1.23,1.23,0,0,1,23.72,30.48Z"/></g></g><g id="Group_38422" data-name="Group 38422"><g id="Group_38420" data-name="Group 38420"><g id="Path_51860" data-name="Path 51860"><path d="M46,72.42c-.39-5.57.91-7.39,1.18-7.7L58.44,50V25.27a2.53,2.53,0,0,0-2.37-2.65c-1.12,0-2,1.16-2,2.68v13h-2.5v-13c0-2.89,2-5.17,4.57-5.19a5,5,0,0,1,4.8,5.2V50.46a1.25,1.25,0,0,1-.26.76L49.13,66.3s-.94,1.41-.63,6Z"/></g><g id="Path_51861" data-name="Path 51861"><path d="M34.69,72.46h-2.5V60.76c0-5,5.21-8.28,5.86-8.68A38.21,38.21,0,0,0,43,47.85L47.49,43c2.34-2.53,5.81-3.15,7.75-1.36a4.1,4.1,0,0,1,1.27,2.91,7,7,0,0,1-2,4.92l-6.36,6.89-1.84-1.7,6.36-6.89A4.57,4.57,0,0,0,54,44.62a1.64,1.64,0,0,0-.46-1.17c-.8-.73-2.72-.41-4.22,1.21L44.8,49.57a39.65,39.65,0,0,1-5.32,4.57l-.1.07c-.05,0-4.68,2.79-4.68,6.55Z"/></g></g><g id="Group_38421" data-name="Group 38421"><g id="Path_51862" data-name="Path 51862"><path d="M14.93,72.42l-2.49-.17c.31-4.54-.62-5.93-.63-6L.26,51.22A1.23,1.23,0,0,1,0,50.46V25.27a5,5,0,0,1,4.73-5.15,4.87,4.87,0,0,1,4.65,5.2v13H6.88v-13c0-1.53-.89-2.68-2.09-2.69a2.51,2.51,0,0,0-2.29,2.6V50L13.79,64.78C14,65,15.32,66.86,14.93,72.42Z"/></g><g id="Path_51863" data-name="Path 51863"><path d="M26.25,72.46V60.76c0-3.73-4.63-6.52-4.68-6.55l-.1-.07a40.2,40.2,0,0,1-5.3-4.54l-4.55-4.94c-1.5-1.62-3.43-1.94-4.22-1.21a1.7,1.7,0,0,0-.47,1.17,4.58,4.58,0,0,0,1.34,3.12l6.36,6.89-1.83,1.7L6.43,49.44a7,7,0,0,1-2-4.92A4,4,0,0,1,5.7,41.61c1.94-1.78,5.41-1.17,7.75,1.36L18,47.88a38.74,38.74,0,0,0,4.9,4.2c.65.4,5.87,3.69,5.87,8.68v11.7Z"/></g></g></g><g id="Group_38423" data-name="Group 38423"><g id="Line_58" data-name="Line 58"><path d="M30.47,7.37a1.25,1.25,0,0,1-1.25-1.25V1.25a1.25,1.25,0,0,1,2.5,0V6.12A1.25,1.25,0,0,1,30.47,7.37Z"/></g></g><g id="Group_38426" data-name="Group 38426"><g id="Group_38424" data-name="Group 38424"><g id="Line_59" data-name="Line 59"><path d="M17.65,11.86a1.25,1.25,0,0,1-1-.47L13.61,7.6a1.25,1.25,0,1,1,2-1.57l3.06,3.79a1.25,1.25,0,0,1-.19,1.76A1.23,1.23,0,0,1,17.65,11.86Z"/></g></g><g id="Group_38425" data-name="Group 38425"><g id="Line_60" data-name="Line 60"><path d="M43.29,11.86a1.23,1.23,0,0,1-.78-.28,1.25,1.25,0,0,1-.19-1.76L45.38,6A1.25,1.25,0,0,1,47.33,7.6l-3.06,3.79A1.25,1.25,0,0,1,43.29,11.86Z"/></g></g></g></g></g></g></svg>