<svg xmlns="http://www.w3.org/2000/svg" viewBox="0 0 63.01 58.5"><g id="Layer_2" data-name="Layer 2"><g id="Layer_2-2" data-name="Layer 2"><g id="Group_38524" data-name="Group 38524"><g id="Path_51826" data-name="Path 51826"><path d="M30.34,58.5H1.25A1.25,1.25,0,0,1,0,57.25V12.42a1.22,1.22,0,0,1,.37-.88L11.54.37A1.26,1.26,0,0,1,12.43,0H44.51a1.25,1.25,0,0,1,1.25,1.25V15.58h-2.5V2.5H13L2.5,12.94V56H30.34Z"/></g><g id="Path_51827" data-name="Path 51827"><polygon points="15.6 15.54 6.71 15.54 6.71 13.04 13.1 13.04 13.1 6.65 15.6 6.65 15.6 15.54"/></g><g id="Group_38385" data-name="Group 38385"><g id="Group_38384" data-name="Group 38384"><g id="Path_51828" data-name="Path 51828"><path d="M37.39,58.5h0a3.36,3.36,0,0,1-3.3-3.34V22.56a3.34,3.34,0,0,1,3.31-3.32H59.7A3.34,3.34,0,0,1,63,22.56v32.6a3.36,3.36,0,0,1-3.3,3.34Zm0-2.5H59.7a.84.84,0,0,0,.81-.84V22.56a.83.83,0,0,0-.82-.82H37.39a.83.83,0,0,0-.82.82v32.6A.85.85,0,0,0,37.4,56Z"/></g><g id="Line_28" data-name="Line 28"><rect x="39.7" y="31.35" width="22.01" height="2.5"/></g><g id="Line_29" data-name="Line 29"><rect x="42.9" y="32.73" width="2.5" height="24.35"/></g><g id="Line_30" data-name="Line 30"><rect x="51.73" y="32.71" width="2.5" height="24.34"/></g><g id="Line_31" data-name="Line 31"><rect x="39.7" y="39.54" width="22.01" height="2.5"/></g><g id="Line_32" data-name="Line 32"><rect x="39.7" y="47.73" width="13.12" height="2.5"/></g></g></g><g id="Path_51829" data-name="Path 51829"><path d="M16.53,50.23c-.74,0-1.22,0-1.29,0l-1.12-.12V23.56a1.25,1.25,0,0,1,2.5,0V47.73c1.78,0,5.28-.34,7.63-2.46a8.23,8.23,0,0,0,2.45-6.4,1.25,1.25,0,0,1,2.5,0,10.58,10.58,0,0,1-3.29,8.26C22.89,49.86,18.64,50.23,16.53,50.23Z"/></g><g id="Line_33" data-name="Line 33"><path d="M8.6,37.78a1.25,1.25,0,0,1-1.07-.61A1.23,1.23,0,0,1,8,35.46l14.3-8.58A1.25,1.25,0,0,1,23.54,29L9.24,37.6A1.24,1.24,0,0,1,8.6,37.78Z"/></g></g></g></g></svg>