<svg xmlns="http://www.w3.org/2000/svg" viewBox="0 0 66.36 64.22"><g id="Layer_2" data-name="Layer 2"><g id="Layer_2-2" data-name="Layer 2"><g id="call-center"><ellipse id="Ellipse_256" data-name="Ellipse 256" cx="32" cy="23.66" rx="2" ry="2.5"/><ellipse id="Ellipse_257" data-name="Ellipse 257" cx="45" cy="23.66" rx="2" ry="2.5"/><path id="Path_52821" data-name="Path 52821" d="M57.6,46.1l-10.5-3v-3.7a16.61,16.61,0,0,0,6-8.34H56.2a3.74,3.74,0,0,0,3.74-3.74V20.87a3.73,3.73,0,0,0-3.74-3.74H53.52V15a15,15,0,0,0-30,0v2.15H20.87a3.73,3.73,0,0,0-3.74,3.74v6.42A3.74,3.74,0,0,0,20.87,31h.54v4.28a1.07,1.07,0,0,0,1.07,1.07h4.4a19,19,0,0,0,3.09,3v3.7l-2.15.62V41.21a2.67,2.67,0,0,0-2.67-2.68H2.68A2.68,2.68,0,0,0,0,41.21v16a2.68,2.68,0,0,0,2.68,2.68h5.5L7.7,62.08H5.35a1.07,1.07,0,0,0,0,2.14H65.29a1.07,1.07,0,0,0,1.07-1.07V57.49A11.78,11.78,0,0,0,57.6,46.1Zm-.87-26.74a1.6,1.6,0,0,1,1.07,1.51v6.42a1.61,1.61,0,0,1-1.07,1.51Zm-3.21-.1h1.07V28.9H53.52ZM20.34,28.8a1.61,1.61,0,0,1-1.07-1.51V20.87a1.61,1.61,0,0,1,1.07-1.51ZM49,45.85l-4.42,8.39-4.32-2.12,6.14-7Zm-10.45,5-6.42-7.34V40.82a13.33,13.33,0,0,0,6.42,2,13.26,13.26,0,0,0,6.42-2v2.66ZM25.69,15a12.85,12.85,0,0,1,25.69,0h0v3.66a10.62,10.62,0,0,1-5.53-4.22,1.08,1.08,0,0,0-1.44-.32,42,42,0,0,1-18.72,5Zm-3.21,4.29h1.07V28.9H22.48Zm1.07,15V31H24a14,14,0,0,0,1.38,3.21Zm6.22,2.14h4.67a3.2,3.2,0,0,0,3,2.14H39.6a3.21,3.21,0,0,0,0-6.42H37.46a3.2,3.2,0,0,0-3,2.14H27.91a11,11,0,0,1-2.22-6.42V21.26a44.63,44.63,0,0,0,19-4.84,12.52,12.52,0,0,0,6.72,4.44v7c0,1.84-.6,5.46-4.6,9-2.58,2.31-5.81,3.8-8.25,3.8s-5.67-1.49-8.25-3.8l-.51-.48Zm6.62-1.07a1.07,1.07,0,0,1,1.07-1.07H39.6a1.07,1.07,0,0,1,0,2.14H37.46A1.07,1.07,0,0,1,36.39,35.32ZM30.68,45.1l6.13,7-4.24,2.12-4.42-8.4ZM9.9,62.08l.67-3h0l1-4.5h4.7l1,4.5h0l.66,3Zm9.27-4.28-1-4.51a1.07,1.07,0,0,0-1-.84H10.7a1.06,1.06,0,0,0-1,.84l-1,4.51h-6a.54.54,0,0,1-.54-.53h0V41.21a.54.54,0,0,1,.54-.54H25.15a.54.54,0,0,1,.54.54v16a.54.54,0,0,1-.54.54h-6Zm15.38,4.28H20.13l-.48-2.14h5.5a2.69,2.69,0,0,0,2.68-2.68V49.82l3.33,6.33a1.07,1.07,0,0,0,1.43.46l.75-.37L35.23,60Zm2.26,0L37.16,61h2.77l.4,1.07ZM40,58.87h-3l-1.79-3.59,3.25-1.62,3.3,1.61Zm24.21,3.21H58.87V58.87a1.07,1.07,0,1,0-2.14,0v3.21H42.62L41.84,60l1.89-3.79.83.4a.93.93,0,0,0,.47.11,1.07,1.07,0,0,0,.95-.57l5.1-9.7L57,48.16h0a9.64,9.64,0,0,1,7.18,9.31Z"/><path id="Path_52822" data-name="Path 52822" d="M2.14,62.08H1.07a1.07,1.07,0,0,0,0,2.14H2.14a1.07,1.07,0,0,0,0-2.14Z"/></g></g></g></svg>