<svg xmlns="http://www.w3.org/2000/svg" viewBox="0 0 59.6 59.61"><g id="Layer_2" data-name="Layer 2"><g id="Layer_2-2" data-name="Layer 2"><g id="open-email"><path id="Path_52807" data-name="Path 52807" d="M53.33,55.12a.88.88,0,0,0,.56-1.56L39.78,41.81a.88.88,0,0,0-1.25.11.89.89,0,0,0,.12,1.25h0L52.76,54.92A.9.9,0,0,0,53.33,55.12Z"/><path id="Path_52808" data-name="Path 52808" d="M19.82,41.8,5.71,53.56A.87.87,0,0,0,5.6,54.8a.88.88,0,0,0,1.24.12L21,43.17a.9.9,0,0,0,.11-1.25.88.88,0,0,0-1.25-.11Z"/><path id="Path_52809" data-name="Path 52809" d="M59.6,21.81a.9.9,0,0,0-.32-.68l-6.23-5.19V10.26A7.31,7.31,0,0,0,45.74,3H37.45l-.4-.33a11.3,11.3,0,0,0-14.5,0l-.4.33H20.36a.89.89,0,1,0,0,1.77H45.75a5.54,5.54,0,0,1,5.53,5.53v6.1h0v10.5L35.92,39.64a9.55,9.55,0,0,1-12.24,0L8.32,26.86V16.36h0v-6.1a5.54,5.54,0,0,1,5.54-5.53h3a.89.89,0,1,0,0-1.77h-3a7.32,7.32,0,0,0-7.31,7.3v5.68L.32,21.14a.86.86,0,0,0-.32.67H0V53.17a6.44,6.44,0,0,0,6.44,6.44H46.09a.89.89,0,0,0,0-1.77H6.44a4.67,4.67,0,0,1-4.67-4.67V23.7L6.87,28h0L22.55,41a11.34,11.34,0,0,0,14.51,0L52.73,28h0l5.1-4.24V53.17a4.67,4.67,0,0,1-4.66,4.67H49.63a.89.89,0,0,0,0,1.77h3.54a6.43,6.43,0,0,0,6.43-6.44V21.82ZM34.41,3H25.19A9.56,9.56,0,0,1,34.41,3ZM6.55,18.25v7.13L2.27,21.82Zm46.5,7.13V18.25l4.29,3.56Z"/><path id="Path_52810" data-name="Path 52810" d="M42.79,24.52h-26a.89.89,0,1,0,0,1.77h26a.89.89,0,0,0,0-1.77Z"/><path id="Path_52811" data-name="Path 52811" d="M42.79,29.66h-26a.89.89,0,1,0,0,1.77h26a.89.89,0,0,0,0-1.77Z"/><path id="Path_52812" data-name="Path 52812" d="M42.79,14.24h-26a.89.89,0,1,0,0,1.77h26a.89.89,0,0,0,0-1.77Z"/><path id="Path_52813" data-name="Path 52813" d="M42.79,19.38h-6.5a.89.89,0,0,0,0,1.77h6.5a.89.89,0,0,0,0-1.77Z"/><path id="Path_52814" data-name="Path 52814" d="M16.82,21.15H33.34a.89.89,0,1,0,0-1.77H16.82a.89.89,0,1,0,0,1.77Z"/></g></g></g></svg>