<svg xmlns="http://www.w3.org/2000/svg" viewBox="0 0 48.66 61.4"><g id="Layer_2" data-name="Layer 2"><g id="Layer_2-2" data-name="Layer 2"><g id="phone-call"><path id="Path_52815" data-name="Path 52815" d="M31.26,49.79,23.2,42.06a5.34,5.34,0,0,0-6.9-.46h0l0,0a.11.11,0,0,1-.11,0,.14.14,0,0,1-.08,0,27.22,27.22,0,0,1-3.6-20,.1.1,0,0,1,0-.07.17.17,0,0,1,.1,0l.06,0A5.36,5.36,0,0,0,19,18.68L24.27,7.77a4,4,0,0,0-.79-4.58A10.61,10.61,0,0,0,22,2,11,11,0,0,0,7.07,4.27c-.23.29-.43.59-.63.9h0A25.58,25.58,0,0,0,4.83,7.89l-.11.21C4.59,8.34,1.55,14,.8,17.92a45.12,45.12,0,0,0,.3,18.37A38.77,38.77,0,0,0,9.2,52.7a1.21,1.21,0,0,0,1.71.09,1.22,1.22,0,0,0,.14-1.65,36.18,36.18,0,0,1-7.59-15.4,42.53,42.53,0,0,1-.28-17.37c.68-3.59,3.63-9.06,3.67-9.12L7,9c.47-.87,1-1.71,1.5-2.54h0c.16-.25.34-.5.52-.74A8.54,8.54,0,0,1,20.64,4a7.68,7.68,0,0,1,1.12.93l0,0a1.57,1.57,0,0,1,.31,1.8L16.82,17.63a3,3,0,0,1-3.47,1.59l0,0a2.53,2.53,0,0,0-3.14,1.69l-.06.21A29.62,29.62,0,0,0,14,42.9,2.5,2.5,0,0,0,15.71,44a2.56,2.56,0,0,0,2-.48l0,0a2.94,2.94,0,0,1,3.79.27l8,7.72a3.07,3.07,0,0,1,.36,3.67,8.26,8.26,0,0,1-5.65,3.66A8.54,8.54,0,0,1,18,57.45a1.21,1.21,0,0,0-1.38,2,11,11,0,0,0,6.25,2,10.43,10.43,0,0,0,1.85-.16A10.66,10.66,0,0,0,32,56.4l0,0A5.47,5.47,0,0,0,31.26,49.79Z"/><path id="Path_52816" data-name="Path 52816" d="M35.64,11a13,13,0,0,0-12.87,14.9l-2.16,7a1.22,1.22,0,0,0,.85,1.52,1,1,0,0,0,.24,0l6.69.35A13,13,0,1,0,35.64,11Zm0,23.61a10.54,10.54,0,0,1-6.15-2,1.2,1.2,0,0,0-.64-.22l-5.48-.29,1.79-5.8A9,9,0,0,0,25.05,24,10.6,10.6,0,1,1,35.64,34.6Z"/><path id="Path_52817" data-name="Path 52817" d="M31.25,23.14a1.21,1.21,0,1,0,1.2,1.26,1.21,1.21,0,0,0-1.2-1.26Z"/><path id="Path_52818" data-name="Path 52818" d="M13.34,54.33a1.21,1.21,0,0,0,0,2.42,1.21,1.21,0,0,0,0-2.42Z"/><path id="Path_52819" data-name="Path 52819" d="M36,23.14a1.21,1.21,0,1,0,1.2,1.26A1.22,1.22,0,0,0,36,23.14Z"/><path id="Path_52820" data-name="Path 52820" d="M40.76,23.14A1.21,1.21,0,1,0,42,24.4a1.21,1.21,0,0,0-1.21-1.26Z"/></g></g></g></svg>