<svg xmlns="http://www.w3.org/2000/svg" viewBox="0 0 268.11 61.47"><defs><style>.cls-1{fill:#7b207f;}.cls-2{fill:#f28c00;}</style></defs><g id="Layer_2" data-name="Layer 2"><g id="Layer_2-2" data-name="Layer 2"><g id="Group_39246" data-name="Group 39246"><path id="Path_52726" data-name="Path 52726" class="cls-1" d="M35.74,17.68a21.9,21.9,0,1,0,21.88,21.9h0A21.9,21.9,0,0,0,35.74,17.68Zm0,36.71a14.8,14.8,0,1,1,14.8-14.81,14.8,14.8,0,0,1-14.8,14.81Z"/></g><path id="Path_52727" data-name="Path 52727" class="cls-2" d="M35.73,44.82a5.26,5.26,0,1,1,3.72-1.54A5.11,5.11,0,0,1,35.73,44.82Z"/><path id="Path_52728" data-name="Path 52728" class="cls-1" d="M33.06,12.89a.86.86,0,0,1-.87-.86V.86A.87.87,0,0,1,33.06,0h5.36a.87.87,0,0,1,.86.86V12a.86.86,0,0,1-.86.86Z"/><path id="Path_52729" data-name="Path 52729" class="cls-1" d="M20.07,17.8a.86.86,0,0,1-1.18-.31h0L13.3,7.82a.87.87,0,0,1,.32-1.18h0L18.26,4a.86.86,0,0,1,1.18.31L25,14a.88.88,0,0,1-.32,1.18Z"/><path id="Path_52730" data-name="Path 52730" class="cls-1" d="M11.28,28.55a.86.86,0,0,1-1.18.32L.43,23.28A.86.86,0,0,1,.12,22.1L2.8,17.46A.85.85,0,0,1,4,17.15l9.68,5.58A.86.86,0,0,1,14,23.91Z"/><g id="Group_39247" data-name="Group 39247"><path id="Path_52731" data-name="Path 52731" class="cls-1" d="M87.82,51.11a.89.89,0,0,1-.63-.29l-7.57-8.21v7.63a.86.86,0,0,1-.87.86H73.39a.85.85,0,0,1-.86-.86V20.63a.85.85,0,0,1,.86-.86h5.36a.88.88,0,0,1,.87.87h0V35.42L86,28.3a.89.89,0,0,1,.65-.29h6.73a.86.86,0,0,1,.86.87.85.85,0,0,1-.22.57l-8.68,9.66,9.77,10.55a.87.87,0,0,1,0,1.22.85.85,0,0,1-.58.23Z"/><path id="Path_52732" data-name="Path 52732" class="cls-1" d="M120.31,51.1a.87.87,0,0,1-.87-.86V28.87a.87.87,0,0,1,.87-.86h4.6a.87.87,0,0,1,.86.86v.06a5.23,5.23,0,0,1,.64-.5,5.58,5.58,0,0,1,3.19-1,5.93,5.93,0,0,1,2.55.63.87.87,0,0,1,.44,1.07l-1.67,4.62a.88.88,0,0,1-.49.51.89.89,0,0,1-.71,0,2.88,2.88,0,0,0-1.17-.38c-.18,0-.72,0-1.33,1.09-.34.6-.75,2.07-.75,5.58l0,1v8.66a.86.86,0,0,1-.86.86Z"/><path id="Path_52733" data-name="Path 52733" class="cls-1" d="M135.15,51.1a.85.85,0,0,1-.86-.86V28.87a.87.87,0,0,1,.86-.86h5.36a.86.86,0,0,1,.86.86V50.24a.85.85,0,0,1-.86.86Z"/><path id="Path_52734" data-name="Path 52734" class="cls-1" d="M147.84,58.92a.87.87,0,0,1-.78-1.23l4.23-9.07-8-19.42a.86.86,0,0,1,.47-1.12.78.78,0,0,1,.33-.07h5.48a.86.86,0,0,1,.8.53l4.79,11.58,5.3-11.6a.85.85,0,0,1,.79-.5h5.48a.86.86,0,0,1,.87.86.9.9,0,0,1-.08.36L154.16,58.41a.84.84,0,0,1-.78.5h-5.54Z"/><path id="Path_52735" data-name="Path 52735" class="cls-1" d="M192.77,51.1a.86.86,0,0,1-.86-.86V28.87a.86.86,0,0,1,.86-.86h4.6a.87.87,0,0,1,.86.86v.06a5,5,0,0,1,.64-.5,5.58,5.58,0,0,1,3.19-1,5.93,5.93,0,0,1,2.55.63.86.86,0,0,1,.44,1.07l-1.67,4.62a.88.88,0,0,1-.49.51.87.87,0,0,1-.32.06.89.89,0,0,1-.39-.09,2.79,2.79,0,0,0-1.16-.38c-.18,0-.73,0-1.34,1.09-.34.6-.74,2.07-.74,5.58l0,1v8.66a.87.87,0,0,1-.87.86Z"/><path id="Path_52736" data-name="Path 52736" class="cls-1" d="M137.83,27a3.94,3.94,0,0,1,0-7.88,3.84,3.84,0,0,1,2.79,1.15A3.95,3.95,0,0,1,137.83,27Z"/><path id="Path_52737" data-name="Path 52737" class="cls-1" d="M178.24,51.65a11.92,11.92,0,0,1-8.8-3.42A11.7,11.7,0,0,1,166,39.67a12.06,12.06,0,0,1,3.4-8.72,11.48,11.48,0,0,1,8.52-3.49A11.9,11.9,0,0,1,186.77,31a12.57,12.57,0,0,1,3.41,9.14l0,1a.87.87,0,0,1-.87.84H173.17a4.72,4.72,0,0,0,1.44,2.1,5.36,5.36,0,0,0,3.59,1.14,6.19,6.19,0,0,0,4.56-1.85.83.83,0,0,1,.6-.24.94.94,0,0,1,.37.07l4.51,2.13a.82.82,0,0,1,.47.56.85.85,0,0,1-.13.72,11.51,11.51,0,0,1-4.37,3.82,13.65,13.65,0,0,1-6,1.24Zm4.37-14.53a7.41,7.41,0,0,0-1.36-2.21,4.31,4.31,0,0,0-3.33-1.58,4.64,4.64,0,0,0-3.63,1.79,7.17,7.17,0,0,0-1.12,2Z"/><path id="Path_52738" data-name="Path 52738" class="cls-1" d="M225.44,51.1a.85.85,0,0,1-.86-.86h0V40.89a22,22,0,0,0-.32-4.86,2.56,2.56,0,0,0-.88-1.45,2.5,2.5,0,0,0-1.58-.48,3.06,3.06,0,0,0-2.2.86,5,5,0,0,0-1.37,2.57,22.06,22.06,0,0,0-.21,4.14v8.57a.87.87,0,0,1-.87.87H211.8a.87.87,0,0,1-.87-.87h0V28.88a.87.87,0,0,1,.87-.87h5.35a.87.87,0,0,1,.87.87v.43a10.65,10.65,0,0,1,2.11-1.18,9,9,0,0,1,3.36-.67,8.25,8.25,0,0,1,6,2.47,8.51,8.51,0,0,1,2.11,6.19V50.24a.85.85,0,0,1-.86.86Z"/><path id="Path_52739" data-name="Path 52739" class="cls-1" d="M258.71,51.11a.87.87,0,0,1-.86-.87V20.63a.85.85,0,0,1,.86-.86h5.36a.86.86,0,0,1,.86.86V28h2.32a.86.86,0,0,1,.86.86V33a.86.86,0,0,1-.86.86h-2.32V50.24a.87.87,0,0,1-.86.87Z"/><path id="Path_52740" data-name="Path 52740" class="cls-1" d="M244.86,51.65a11.93,11.93,0,0,1-8.8-3.42,11.63,11.63,0,0,1-3.41-8.55,12,12,0,0,1,3.4-8.73,11.45,11.45,0,0,1,8.52-3.49A11.84,11.84,0,0,1,253.39,31a12.59,12.59,0,0,1,3.41,9.14l0,1a.87.87,0,0,1-.87.85H239.8a4.69,4.69,0,0,0,1.44,2.09,5.34,5.34,0,0,0,3.58,1.14,6.27,6.27,0,0,0,4.57-1.85.84.84,0,0,1,.6-.25,1,1,0,0,1,.37.08l4.51,2.13a.85.85,0,0,1,.47.56.88.88,0,0,1-.13.72,11.59,11.59,0,0,1-4.37,3.82,13.54,13.54,0,0,1-6,1.23Zm4.39-14.52a7.59,7.59,0,0,0-1.36-2.22,4.37,4.37,0,0,0-3.33-1.58,4.64,4.64,0,0,0-3.63,1.79,7.17,7.17,0,0,0-1.12,2Z"/><path id="Path_52741" data-name="Path 52741" class="cls-1" d="M204.94,51.65a3.94,3.94,0,1,1,2.79-1.15A3.8,3.8,0,0,1,204.94,51.65Z"/><path id="Path_52742" data-name="Path 52742" class="cls-1" d="M104.15,51.65a10.37,10.37,0,0,1-7.78-3.48,12.1,12.1,0,0,1-3.26-8.57,12.41,12.41,0,0,1,3.15-8.7A10.21,10.21,0,0,1,104,27.46a9.79,9.79,0,0,1,4,.8,10.34,10.34,0,0,1,1.91,1.09v-.48a.87.87,0,0,1,.86-.86h5.36a.87.87,0,0,1,.87.86V50.24a.86.86,0,0,1-.87.86h-5.36a.86.86,0,0,1-.86-.86v-.42a10.44,10.44,0,0,1-2,1.11,9.86,9.86,0,0,1-3.76.72Zm1-6.83a5.28,5.28,0,1,0-3.71-1.54A5.07,5.07,0,0,0,105.14,44.82Z"/></g></g></g></svg>