<svg xmlns="http://www.w3.org/2000/svg" viewBox="0 0 195.65 49.58"><defs><style>.cls-1{fill:#1a1818;}.cls-2{fill:#006aa8;}.cls-3{fill:#fff;}</style></defs><g id="Layer_2" data-name="Layer 2"><g id="Layer_2-2" data-name="Layer 2"><g id="Group_39249" data-name="Group 39249"><path id="Path_52743" data-name="Path 52743" class="cls-1" d="M0,7.33H7.65V35.19H21.81v7.06H0Z"/><g id="Group_39248-2" data-name="Group 39248-2"><path id="Path_52744" data-name="Path 52744" class="cls-1" d="M25.18,18.58h7.36V42.24H25.18ZM28.86,6.82a4.26,4.26,0,1,1-4.26,4.26,4.26,4.26,0,0,1,4.26-4.26"/></g><path id="Path_52745" data-name="Path 52745" class="cls-1" d="M63.26,7.33h7.35V28.2l8.33-9.63h9l-9.64,11,9.44,12.73H78.51l-7.8-11.7h-.1v11.7H63.26Z"/><path id="Path_52746" data-name="Path 52746" class="cls-1" d="M36.6,18.58h7.06v3.23h.1a7.73,7.73,0,0,1,7-3.82c7.44,0,8.82,4.9,8.82,11.27v13H52.19V30.74c0-2.75,0-6.28-3.83-6.28S44,27.45,44,30.54v11.7H36.6Z"/><path id="Path_52747" data-name="Path 52747" class="cls-1" d="M103.41,27.66a4.4,4.4,0,0,0-4.3-4.51H98.9a4.9,4.9,0,0,0-5.19,4.51Zm6.23,10.48a13,13,0,0,1-10,4.71c-7.35,0-13.23-4.9-13.23-12.5s5.88-12.5,13.23-12.5c6.87,0,11.17,4.9,11.17,12.5v2.3H93.71a5.48,5.48,0,0,0,5.54,4.6,6.26,6.26,0,0,0,5.24-2.89Z"/><path id="Path_52748" data-name="Path 52748" class="cls-1" d="M126.08,24.3c-3.68,0-5.88,2.45-5.88,6s2.2,6,5.88,6,5.88-2.44,5.88-6-2.2-6-5.88-6m12.65,17.93H132V39.1h-.1a9.23,9.23,0,0,1-7.3,3.72c-7.06,0-11.71-5.09-11.71-12.3,0-6.62,4.11-12.69,10.88-12.69,3,0,5.88.83,7.54,3.13h.1V7.33h7.36Z"/></g><path id="Path_52749" data-name="Path 52749" class="cls-2" d="M192,0H149.73a3.63,3.63,0,0,0-3.66,3.58V46a3.63,3.63,0,0,0,3.66,3.58H192A3.63,3.63,0,0,0,195.65,46V3.58A3.62,3.62,0,0,0,192,0Z"/><path id="Path_52750" data-name="Path 52750" class="cls-3" d="M153.42,18.59h7.36V42.25h-7.36ZM157.1,6.83a4.26,4.26,0,1,1-4.26,4.26,4.25,4.25,0,0,1,4.26-4.26"/><path id="Path_52751" data-name="Path 52751" class="cls-3" d="M165.39,18.59h7.05v3.23h.1a7.73,7.73,0,0,1,7-3.82c7.45,0,8.82,4.9,8.82,11.27v13H181V30.74c0-2.74-.05-6.27-3.82-6.27s-4.41,3-4.41,6.07v11.7H165.4Z"/></g></g></svg>