<svg xmlns="http://www.w3.org/2000/svg" viewBox="0 0 152.47 41.94"><g id="Layer_2" data-name="Layer 2"><g id="Layer_2-2" data-name="Layer 2"><g id="haziran-logo-"><g id="Haziran-Logo0000"><path id="FILO-DESTEK" d="M11.4,39h2.38a4.91,4.91,0,0,0,2.1-.43,4.43,4.43,0,0,0,1.53-1.18,5.46,5.46,0,0,0,.95-1.74,6.49,6.49,0,0,0,.32-2.1,5.44,5.44,0,0,0-.16-1.39A2.8,2.8,0,0,0,18,31.09a2.36,2.36,0,0,0-.95-.7,3.58,3.58,0,0,0-1.41-.24H13.29Zm-.67-11.45h5.08A6.29,6.29,0,0,1,20.27,29,5.35,5.35,0,0,1,21.77,33a10.91,10.91,0,0,1-.51,3.4,7.71,7.71,0,0,1-1.53,2.72,6.86,6.86,0,0,1-2.53,1.8,8.84,8.84,0,0,1-3.55.65H7.78Zm17.17,0H38.62l-.53,2.6H30.45l-.63,3h7.07l-.51,2.4H29.31L28.59,39h7.75l-.55,2.6H25Zm15.89,9.38A2.69,2.69,0,0,0,44,38.18a1.87,1.87,0,0,0,.62.8,2.8,2.8,0,0,0,1,.42,5.74,5.74,0,0,0,1.24.13,3.73,3.73,0,0,0,.94-.12,3.05,3.05,0,0,0,.86-.35,2.16,2.16,0,0,0,.63-.61,1.62,1.62,0,0,0,.24-.91,1.11,1.11,0,0,0-.31-.83,2.75,2.75,0,0,0-.82-.57,7.75,7.75,0,0,0-1.14-.41l-1.29-.37a12.64,12.64,0,0,1-1.3-.47,4.58,4.58,0,0,1-1.13-.71,3.48,3.48,0,0,1-.81-1.06,3.71,3.71,0,0,1-.3-1.54,3.83,3.83,0,0,1,.5-2,4,4,0,0,1,1.28-1.34A5.44,5.44,0,0,1,46,27.46a8,8,0,0,1,2-.25,8.26,8.26,0,0,1,2,.25,4.53,4.53,0,0,1,1.67.8,3.73,3.73,0,0,1,1.14,1.41,4.64,4.64,0,0,1,.43,2.07H50.3a2.23,2.23,0,0,0-.17-1,1.71,1.71,0,0,0-.53-.66,2.18,2.18,0,0,0-.82-.37,4.76,4.76,0,0,0-1.88,0,2.86,2.86,0,0,0-.8.3,1.76,1.76,0,0,0-.57.55,1.46,1.46,0,0,0-.21.82,1.1,1.1,0,0,0,.38.86,3.42,3.42,0,0,0,.93.57,6.22,6.22,0,0,0,1.11.35l.92.21a11.75,11.75,0,0,1,1.52.5,3.89,3.89,0,0,1,1.19.74,3.2,3.2,0,0,1,.78,1.1,4.1,4.1,0,0,1,.27,1.59,4.25,4.25,0,0,1-.52,2.15,4.36,4.36,0,0,1-1.34,1.43,5.4,5.4,0,0,1-1.84.8,8.61,8.61,0,0,1-2,.25,6.83,6.83,0,0,1-4.4-1.2,4.66,4.66,0,0,1-1.44-3.78Zm17.8-6.79H57.18l.55-2.6H69.46l-.55,2.6H64.69l-2.4,11.45H59.18Zm12-2.6H84.34l-.53,2.6H76.18l-.63,3h7.06l-.51,2.4H75L74.3,39h7.76l-.56,2.6H70.68Zm15.71,0h3.09L91.2,33.42h0l6.37-5.88h4.1L95,33.32l4.31,8.27H95.78l-3.2-6.32-2.15,1.87-.92,4.45H86.42Z"/><path id="Fill-4" d="M4.75,34.82H0L7.94.52h4.74Z"/><path id="Fill-5" d="M22.51,1.6A9.59,9.59,0,0,1,27.75,0C31,0,34.69,2,34.69,6.18A15.07,15.07,0,0,1,34.16,10L31,23.82H26.21L29.51,9.5A9.43,9.43,0,0,0,29.83,7c0-1.43-.73-3-3.3-3a6.81,6.81,0,0,0-4.26,1.4c-1.78,1.44-2.56,3.27-3.45,7.07L16.18,23.82H11.39L16.77.57h4.8l-.5,2.11A12.87,12.87,0,0,1,22.51,1.6Z"/><path id="Fill-6" d="M49.83.52l-.9,3.92H45L42.28,16.23a17,17,0,0,0-.5,2.76c0,.69.41.85,1.14.85a3.18,3.18,0,0,0,.62-.06l1.83-.31.78-.14-.9,3.8-.24.11a9.59,9.59,0,0,1-3.74.7c-3,0-4.2-1.59-4.2-3.64a16.65,16.65,0,0,1,.53-3.57l2.83-12.3H36.89l.9-3.91H49.84"/><path id="Fill-7" d="M80,2.68c.24-.23.5-.46.83-.73s.42-.37.68-.56a6.5,6.5,0,0,1,1-.6,7.6,7.6,0,0,1,4-.6L87,.27,86,4.73l-.43,0a6.26,6.26,0,0,0-3.82.73C79,7.06,78,10.91,77.56,13l-2.5,10.87H70.41L75.75.56h4.7L80,2.69"/><path id="Fill-8" d="M106,16.75A13,13,0,0,1,100.72,23a11.94,11.94,0,0,1-5.92,1.34,10.33,10.33,0,0,1-6.19-1.74c-3.62-2.58-3.7-6.83-3.7-8.11C84.91,7.07,89.72,0,97.82,0c5.8,0,8.88,3.33,9.19,7.17l0,.44-4.42,1.08-.12-.51c-.32-1.44-1-4.13-4.82-4.13-4.93,0-7.92,5.43-7.92,10.19,0,3.31,1.69,6.32,5.33,6.32a5.75,5.75,0,0,0,3.3-1,6.81,6.81,0,0,0,2.76-3.71l.15-.38,5,.66Z"/><path id="Fill-9" d="M69.59,16.63l-.24.59c-2.44,6-7.86,7.11-11.17,7.11-5.83,0-9.64-3.77-9.64-9.95C48.54,7.52,53,0,61.4,0c6.18,0,8.88,4.14,8.88,9.62a15.2,15.2,0,0,1-.29,3l-.07.43H53.27c0,.39-.05.74-.05,1.14,0,5.24,3.91,6.22,5.77,6.22a6.39,6.39,0,0,0,5.91-4.23l.17-.36Zm-4-7.29c0-.16,0-.31,0-.47,0-3.39-2.27-5-4.44-5-1.43,0-5.15.82-6.93,5.47Z"/><path id="Fill-10" d="M109.07,34.82h-4.74L112.26.52H117Z"/><path id="Fill-11" d="M130.6.52l-.9,3.92h-3.91l-2.73,11.79a16,16,0,0,0-.5,2.76c0,.69.41.85,1.13.85a3.36,3.36,0,0,0,.63-.06l1.83-.31.77-.14-.9,3.8-.24.11a9.56,9.56,0,0,1-3.74.7c-3,0-4.2-1.59-4.2-3.64a16.65,16.65,0,0,1,.53-3.57l2.83-12.3h-3.54l.9-3.91h12"/><path id="Fill-12" d="M152.47.52,135.22,29.67c-2,3.36-3.18,5-7.65,5a13.49,13.49,0,0,1-2.62-.2l-.56-.07,1-4.24.48.08a9.19,9.19,0,0,0,1.65.14,4.91,4.91,0,0,0,.86-.07,3.78,3.78,0,0,0,1.2-.48,4.22,4.22,0,0,0,1-1c.35-.47.65-.95.81-1.21l2.82-4.83L131.7.52h4.68L138,17.07,147.16.52h5.31"/></g></g></g></g></svg>