<svg xmlns="http://www.w3.org/2000/svg" viewBox="0 0 267.32 125.75"><defs><style>.cls-1{fill-rule:evenodd;}</style></defs><g id="Layer_2" data-name="Layer 2"><g id="Layer_2-2" data-name="Layer 2"><path d="M87.09,97.53c-2.29-1.17-5.27-2-5.19-5.36C82,86.1,88.17,86.88,92.29,87c3.33.1,50.35,0,53.17,0l1.93-.35a3.87,3.87,0,0,0,.56-.13c3-.86,5.83-3.38,7.79-5.67,0,0,21.25-20,23.36-22.43,1.9-2.17,3.22-1.76,2.23-4.73-2.42-7.27,3.58-7.32,8.24-5.7,2.05.43,26.94,5.75,34,7.14,10.9,2.17,14,2.85,15.77,14.62.45,3,.54,6.5-1,8.77-1.2,1.74-4.62,4.77-6.71,5.41-2.61.8-9.52,1.2-12.16-.92,0,0-6-5.45-12-10.85-5.67-5.12-8.26-6.2-11.25-5-.92.36-1.25,1.09.05,2.73,0,0,18.45,26.69,20.26,29.28,2.36,3.38.93,6.8-.46,10.09-.87,2.06-3,4.5-6.45,2.87,0,0-4.45-2.43-7.79-4.6l-.22.45c-.86,1.79-1.22,3.76-2.31,5.46-2,3.14-6.51,8.49-15,1.64-3.73-3-14.46-7.33-26.29-6.76-7.85.38-10.73,4.49-11.44,11.49-.44,4.3-1.85,7.13-7.2,5.49l-7.92-2.66L88.5,109.52c-3.31-1-8.56-2.73-5.14-7.47C84.37,100.66,85,100.29,87.09,97.53ZM145.73,90s-50.08.09-53.52,0c-1.61,0-4.53-.24-6.06.21-2.61.77-1.1,3,.36,3.87,1.67,1,5.42,1.89,3.29,4.8-.22.31-4.51,5.16-4.5,6,.4.73,3.33,1.58,4.07,1.81L132.3,119.8l7.87,2.65c4.47,1.36,3-2.91,3.84-6.22,1.68-6.77,6-10.52,13.78-10.9,12.45-.6,23.92,3.91,28.29,7.41,6.11,4.91,9.69,2.41,11.71-3.24.87-2.41,2.11-6.74,5.57-4.5,3.07,2,7.08,4.2,7.55,4.46,2,.9,2.71-2.09,3.22-3.44.63-1.71,1.07-3.52-.09-5.17-1.8-2.59-20.23-29.25-20.23-29.25-1.27-1.65-3-5.55,1.27-7.23,4.86-1.91,8.79.58,14.33,5.57l11.93,10.8c1.45,1.1,6.91,1.1,9.36.35a15.48,15.48,0,0,0,5.13-4.26c2-2.86-.21-10.92-1.45-13.9-1.44-3.49-8.4-4.28-11.44-4.89-8.67-1.72-24.91-5.21-34.17-7.18-2.92-1-6-2.23-4.62,1.89,1.59,4.77-.33,4.79-2.81,7.63-2.07,2.35-22.23,21.37-23.44,22.52-2.27,2.63-6.3,6.11-10,6.68Z"/><polygon points="167.59 49.79 161.39 49.79 156.67 64.71 172.45 64.71 173.66 60.94 164.09 60.94 167.59 49.79"/><polygon points="54.45 49.79 53.41 53.16 58.81 53.16 55.12 64.71 61.46 64.71 65.14 53.16 71.35 53.16 72.38 49.79 54.45 49.79"/><path d="M39.34,49.79a6.88,6.88,0,0,0-4.54,1.8,5.17,5.17,0,0,0-1.39,4.27q.14,2.76,4.72,3h5.48c.81,0,1.17.36,1.12,1.3s-.58,1.3-1.52,1.21H38.44c-.63,0-.94-.63-.9-1.84H31.43l-.09.32a6.75,6.75,0,0,0-.27,2.24c.13,1.67,1.44,2.56,3.87,2.65H45.05l1.26-.13a4.92,4.92,0,0,0,3.55-2.65,9.32,9.32,0,0,0,1.08-4.14c0-1.39-1.93-2.11-5.76-2.2H40.6c-.81,0-1.17-.36-1.12-1.26S40.06,53,41,53.07h4.77c.54,0,.72.5.58,1.35h5.26a8.36,8.36,0,0,0,.68-3c0-1-1.4-1.58-4.23-1.67Z"/><polygon points="33.14 49.79 26.66 49.79 21.94 64.71 28.42 64.71 33.14 49.79"/><path d="M145.75,49.79h-6.34L135.9,60.94a2.64,2.64,0,0,0,0,.58c-.23,2.16.9,3.19,3.28,3.1l10.83.09a5,5,0,0,0,5.26-3.5l.09-.23v0l3.51-11.15h-6.21L149.39,60c-.13.67-.58.94-1.39.9h-4.63c-.81.09-1-.32-.73-1.26Z"/><path d="M126.68,58.74a1.08,1.08,0,0,1,.36,0,1.19,1.19,0,0,1,.59.36,1.77,1.77,0,0,1,.4.94,1.8,1.8,0,0,1-.4,1,1.53,1.53,0,0,1-.86.4h-.09l-6.29,0,.81-2.61h5.17A.73.73,0,0,1,126.68,58.74ZM122.1,56l.9-2.74c1.57,0,3.14,0,4.76,0a.4.4,0,0,1,.23,0,.94.94,0,0,1,.31,0h0a1.12,1.12,0,0,1,.63.41,1.28,1.28,0,0,1,.4.94,1.26,1.26,0,0,1-.4.94,1.46,1.46,0,0,1-.77.41h0a.55.55,0,0,0-.23,0,.53.53,0,0,0-.22,0ZM136,51.54c-.23-1.12-1.26-1.7-3-1.75H118.1l-4.72,14.92h14.7a7.31,7.31,0,0,0,4.27-1.3,4.59,4.59,0,0,0,1.48-2.47c0-.32.14-.68.18-1a2.33,2.33,0,0,0-2-2.84c1.94-.22,3.11-.94,3.56-2.11A5.81,5.81,0,0,0,136,51.54Z"/><polygon points="115.67 49.79 109.47 49.79 105.92 61.07 102.81 49.79 92.88 49.79 88.16 64.71 94.36 64.71 97.64 54.33 100.52 64.71 110.95 64.71 115.67 49.79"/><path d="M80.92,58.78H75.44l4.72-6.07Zm4.63-9H76.87L65,64.71h5.85l2.29-2.92,8.23.23.31,2.69h6Z"/><path d="M97.28,68.76l.63,3.91H94.36Zm.9,5.84.32,2h3.73L100.75,67H94.81l-7.19,9.62h3.82l1.49-2Z"/><path d="M112.79,70.2a1.26,1.26,0,0,1-.4.76,1.12,1.12,0,0,1-.85.41H108l.81-2.47h2.29a2.26,2.26,0,0,0,.41,0,.93.93,0,0,1,.85.36,1.36,1.36,0,0,1,.4.81Zm4.36-1.62c0-1-.8-1.57-2.47-1.62h-9.12l-3,9.62h3.87l.81-2.61h2.83c.76,0,1.17.23,1.31.81v1.8h4.22V75.05A2.18,2.18,0,0,0,114,72.53c1.4-.17,2.29-.58,2.61-1.25A8,8,0,0,0,117.15,68.58Z"/><polygon points="123.36 66.96 119.31 66.96 116.3 76.58 120.35 76.58 121.52 72.81 122.73 72.81 125.65 76.58 129.88 76.58 126.06 71.77 132.89 66.96 128.12 66.96 123.13 70.51 122.28 70.51 123.36 66.96"/><path d="M85,70.33l-.77,2.88c0,.58-.54.85-1.39.85H79.3l1.49-4.63h3.06C84.74,69.48,85.1,69.75,85,70.33ZM78.5,76.58h6a3,3,0,0,0,3-2l1.76-4.45c.9-2,.31-3.05-1.76-3.19H77.06L72.69,80.72h4.5Z"/><polygon points="136.77 53.32 136.62 53.28 136.48 53.32 136.47 53.35 136.5 53.36 136.62 53.33 136.75 53.36 136.78 53.35 136.77 53.32"/><path d="M74.31,67a7.45,7.45,0,0,0-4.85,0l-1.35,4.18a14.55,14.55,0,0,1,4.86,0Z"/><path d="M63.34,66.74a6,6,0,0,0-2.42-.32A11.28,11.28,0,0,0,58,67l-1.53,4.72A9.57,9.57,0,0,1,59.93,71a4.07,4.07,0,0,1,2.47.72l-1.35,4.09a6.46,6.46,0,0,1,2.65.54,4.16,4.16,0,0,0,2.7,0L65.19,80H70l1.53-4.64H66.72l1.39-4.17a4.26,4.26,0,0,1-2.47.22l-.41-.13a4.12,4.12,0,0,0-2.65-.09L63.93,67A1.28,1.28,0,0,0,63.34,66.74Z"/><path d="M49.23,66.24a8.39,8.39,0,0,0-1,.09c-.13,0-.22,0-.31.09a15.59,15.59,0,0,1-3.64.59l-1.57,4.76a11.86,11.86,0,0,0,4-.54,4.23,4.23,0,0,1,3.59.45L51.79,67A5.57,5.57,0,0,0,49.23,66.24Z"/><path d="M50.26,71.68,48.83,76a4.6,4.6,0,0,0-4.45-.45c-1.4.58-2.43.77-3.11.45l1.4-4.27a10.63,10.63,0,0,0-4,.27,13.24,13.24,0,0,1-6-.31l1.53-4.63a6.5,6.5,0,0,0-4.85-1.22l-.68.14a3.38,3.38,0,0,0-.76.22,39.08,39.08,0,0,1-6.79.81l-1.53,4.68a39.75,39.75,0,0,0,7.64-1,6.33,6.33,0,0,1,5.44,1l-1.39,4.18a6.44,6.44,0,0,0-5.48-1.08,40.3,40.3,0,0,1-7.56,1L16.91,80a16.22,16.22,0,0,0,7.64-.14,6.53,6.53,0,0,1,5.35.32l1.21-3.6c2.39,1.08,4.46,1.26,6.21.49s3-.9,3.77-.44L40,80a8.88,8.88,0,0,0,4.22-.09,4.4,4.4,0,0,1,3.33.09l1.12-3.42a3.53,3.53,0,0,0,3.47.41,3.81,3.81,0,0,1,2.78-.5L53.72,80a8.88,8.88,0,0,1,5.94,0l1.39-4.18q-1.54-1.69-5.93,0l1.35-4.09a5.51,5.51,0,0,0-3,0,4.18,4.18,0,0,1-1.66.4A2.53,2.53,0,0,1,50.26,71.68Z"/><polygon class="cls-1" points="22.24 0.88 8.32 61.15 0 61.15 13.91 0.88 22.24 0.88"/><path class="cls-1" d="M37,4.71A22.33,22.33,0,0,1,39.49,2.8,16.92,16.92,0,0,1,48.7,0c5.64,0,12.17,3.43,12.17,10.84a26.32,26.32,0,0,1-.94,6.75L54.31,41.8H46l5.81-25.12a16.85,16.85,0,0,0,.55-4.35c0-2.52-1.28-5.3-5.79-5.3a11.89,11.89,0,0,0-7.48,2.46C35.94,12,34.59,15.22,33,21.9L28.39,41.8H20L29.43,1h8.41Z"/><path class="cls-1" d="M87.26,1,85.68,7.86H78.8L74,28.53a29.23,29.23,0,0,0-.89,4.83c0,1.22.72,1.49,2,1.49a6.49,6.49,0,0,0,1.1-.1c.6-.09,1.53-.26,3.22-.55L80.77,34l-1.58,6.67-.41.18a16.56,16.56,0,0,1-6.58,1.23c-5.27,0-7.36-2.78-7.36-6.37a28.32,28.32,0,0,1,.93-6.26l5-21.56H64.52L66.1,1H87.26Z"/><path class="cls-1" d="M140,4.72c.41-.39.88-.81,1.46-1.28.34-.3.73-.64,1.19-1a11.08,11.08,0,0,1,1.7-1.06,11.6,11.6,0,0,1,5.3-1.15,11.35,11.35,0,0,1,1.7.09l1,.14-1.8,7.82-.75,0c-2.22-.08-4.3-.14-6.7,1.29-4.75,2.83-6.43,9.6-7.28,13.17L131.41,41.8h-8.16L132.61,1h8.24Z"/><path class="cls-1" d="M186.41,28.31l-.46,1.1a22.71,22.71,0,0,1-9.33,11,21.08,21.08,0,0,1-10.38,2.36,18.1,18.1,0,0,1-10.89-3.08c-6.36-4.51-6.5-12-6.5-14.22,0-13,8.45-25.42,22.68-25.42,10.19,0,15.6,5.85,16.14,12.59l.07.78L180,15.26l-.21-.9c-.57-2.53-1.81-7.25-8.46-7.25-8.66,0-13.91,9.53-13.91,17.89,0,5.8,3,11.1,9.35,11.1a10.16,10.16,0,0,0,5.8-1.76,12,12,0,0,0,4.86-6.52l.26-.67Z"/><path class="cls-1" d="M115,16.39c0-.28,0-.54,0-.83,0-5.94-4-8.78-7.79-8.78-2.49,0-9,1.45-12.13,9.61Zm7,12.79-.42,1.05C117.25,40.75,107.75,42.72,102,42.72c-10.21,0-16.89-6.64-16.89-17.47,0-12,7.75-25.25,22.52-25.25,10.82,0,15.56,7.26,15.56,16.89a27.24,27.24,0,0,1-.51,5.28l-.13.76H93.36c-.06.68-.1,1.29-.1,2,0,9.2,6.86,10.93,10.1,10.93a11.06,11.06,0,0,0,3.91-.77c4.11-1.61,5.47-4.53,6.45-6.65l.29-.64Z"/><polygon class="cls-1" points="204.93 0.88 191.01 61.15 182.69 61.15 196.6 0.88 204.93 0.88"/><path class="cls-1" d="M229,1l-1.57,6.87h-6.88l-4.81,20.67a29.13,29.13,0,0,0-.88,4.83c0,1.22.72,1.49,2,1.49a6.49,6.49,0,0,0,1.1-.1c.6-.09,1.53-.26,3.22-.55l1.35-.23L221,40.64l-.42.18A16.54,16.54,0,0,1,214,42.05c-5.28,0-7.37-2.78-7.37-6.37a28.36,28.36,0,0,1,.94-6.26l5-21.56H206.3L207.88,1H229Z"/><path class="cls-1" d="M267.32,1,237,52.12c-3.54,5.9-5.6,8.81-13.45,8.81a24.19,24.19,0,0,1-4.59-.34l-1-.14L219.75,53l.85.15a16.44,16.44,0,0,0,2.9.24,7.26,7.26,0,0,0,1.51-.12,6.47,6.47,0,0,0,2.09-.84,7,7,0,0,0,1.75-1.8c.61-.83,1.14-1.68,1.42-2.12l5-8.48L230.85,1h8.21L241.92,30,258,1Z"/></g></g></svg>