<svg xmlns="http://www.w3.org/2000/svg" xmlns:xlink="http://www.w3.org/1999/xlink" viewBox="0 0 305.43 57.35"><defs><style>.cls-1{isolation:isolate;}.cls-2{fill:#67ad3d;fill-rule:evenodd;}.cls-3{fill:#fff;}.cls-4{fill:#e40023;}.cls-5{mix-blend-mode:multiply;fill:url(#radial-gradient);}</style><radialGradient id="radial-gradient" cx="-7362.74" cy="1019.27" r="0.45" gradientTransform="matrix(31.83, 0, 0, -31.84, 234635.91, 32478.8)" gradientUnits="userSpaceOnUse"><stop offset="0.21" stop-color="#545151"/><stop offset="0.86" stop-color="#fff"/></radialGradient></defs><g class="cls-1"><g id="Layer_2" data-name="Layer 2"><g id="Layer_2-2" data-name="Layer 2"><g id="Group_38566" data-name="Group 38566"><g id="Group_38565" data-name="Group 38565"><g id="Group_38556" data-name="Group 38556"><path id="Path_51986" data-name="Path 51986" class="cls-2" d="M15.87,54.26a.09.09,0,0,1,.1.08,0,0,0,0,1,0,0,2.18,2.18,0,0,0,.19,1.78,1.81,1.81,0,0,0,1.6.64,3.51,3.51,0,0,0,1.84-.5,2.61,2.61,0,0,0,1.22-1.51,1.22,1.22,0,0,0-.34-1.45,5.44,5.44,0,0,0-1.56-.63l-.14-.05A4.11,4.11,0,0,1,17,51.82a1.6,1.6,0,0,1-.2-1.55,3.1,3.1,0,0,1,1.35-1.8,3.82,3.82,0,0,1,2.1-.59,2.24,2.24,0,0,1,1.87.71,2.18,2.18,0,0,1,.28,2,.16.16,0,0,1-.09.07h-.4a.08.08,0,0,1-.09-.08v0a1.64,1.64,0,0,0-.2-1.6,1.88,1.88,0,0,0-1.5-.55,3.11,3.11,0,0,0-1.7.48,2.45,2.45,0,0,0-1.06,1.44,1.14,1.14,0,0,0,.17,1.11,3.1,3.1,0,0,0,1.49.69l.17.05A6.18,6.18,0,0,1,21,52.9a1.58,1.58,0,0,1,.46,1.82,3.51,3.51,0,0,1-1.5,2,4.22,4.22,0,0,1-2.32.63,2.25,2.25,0,0,1-2-.81,2.53,2.53,0,0,1-.27-2.19.08.08,0,0,1,.08-.07Zm11.35-6.15.08,0h.47a.12.12,0,0,1,.09.09l.71,8.89a.1.1,0,0,1-.08.1h-.43a.11.11,0,0,1-.09-.08l-.23-3h-4l-2,3a.2.2,0,0,1-.08,0H21.2c-.09,0-.12-.07-.07-.14Zm.47,5.46-.37-4.66-3.2,4.66ZM32,48.14a.13.13,0,0,1,.09-.07h.42a.08.08,0,0,1,.09.08v0L31.48,52h5.44l1.17-3.89a.13.13,0,0,1,.09-.07h.41a.09.09,0,0,1,.09.08.06.06,0,0,1,0,0L36,57.08a.08.08,0,0,1-.08.06h-.41a.07.07,0,0,1-.09-.07v0l1.34-4.45H31.32L30,57.08a.11.11,0,0,1-.09.06h-.42a.08.08,0,0,1-.09-.07.06.06,0,0,1,0,0Zm16.3,2.4a3.49,3.49,0,0,1-1.22,1.8A3.34,3.34,0,0,1,45.7,53a8.35,8.35,0,0,1-1.41.09h-1.9l-1.22,4a.1.1,0,0,1-.08.06h-.42a.07.07,0,0,1-.09-.07s0,0,0,0l2.67-8.89a.11.11,0,0,1,.08-.07h2.43c2.16,0,3.08.81,2.59,2.47Zm-4.63-1.92-1.16,3.87h1.57a6.46,6.46,0,0,0,2.1-.23,2.59,2.59,0,0,0,1.53-1.81c.3-1,0-1.59-1-1.75a9.13,9.13,0,0,0-1.38-.08ZM54,49.29a4.85,4.85,0,0,1,3.49-1.41,2.64,2.64,0,0,1,2.68,1.42,4.8,4.8,0,0,1-.05,3.34,7.28,7.28,0,0,1-1.93,3.3,4.89,4.89,0,0,1-3.49,1.39A2.63,2.63,0,0,1,52,55.92a4.77,4.77,0,0,1,0-3.33A7.46,7.46,0,0,1,54,49.29Zm-1.41,6.27a2.11,2.11,0,0,0,2.22,1.23,4.15,4.15,0,0,0,3-1.26,6.72,6.72,0,0,0,1.68-2.94,4.37,4.37,0,0,0,.08-2.92,2.14,2.14,0,0,0-2.22-1.24,4.16,4.16,0,0,0-3,1.27,6.86,6.86,0,0,0-1.67,2.94,4.43,4.43,0,0,0-.09,2.92ZM63,48.14a.11.11,0,0,1,.08-.07h.42a.1.1,0,0,1,.1.08.06.06,0,0,1,0,0l-2.51,8.38h4.59a.09.09,0,0,1,.09.08,0,0,0,0,1,0,0l-.12.4a.1.1,0,0,1-.08.07H60.42a.08.08,0,0,1-.09-.08v0Zm6.36,0a.13.13,0,0,1,.09-.07H70s.08,0,.09.07l1.32,6.08,4.88-6.11.07,0H77a.08.08,0,0,1,.09.08v0L74.4,57.08a.11.11,0,0,1-.09.06h-.37a.08.08,0,0,1-.09-.07.06.06,0,0,1,0,0l2.38-7.94L71.44,55l-.07,0h-.25A.13.13,0,0,1,71,55L69.66,49l-2.42,8a.1.1,0,0,1-.09.06h-.37s-.08,0-.09-.07a.06.06,0,0,1,0,0Zm12,0,.08,0h.47a.11.11,0,0,1,.09.09l.71,8.89a.1.1,0,0,1-.08.1h-.42a.1.1,0,0,1-.09-.08l-.24-3h-4l-2,3a.2.2,0,0,1-.08,0h-.4c-.09,0-.13-.07-.08-.14Zm.47,5.46-.37-4.66-3.2,4.66Zm4.35-5.43a.13.13,0,0,1,.09-.07h.42a.1.1,0,0,1,.08.06l3,7.94,2.38-7.93a.13.13,0,0,1,.09-.07h.4a.1.1,0,0,1,.1.08.06.06,0,0,1,0,0l-2.67,8.89a.09.09,0,0,1-.08.06H89.6a.11.11,0,0,1-.09,0l-3-7.93L84.1,57.08a.1.1,0,0,1-.09.06H83.6a.08.08,0,0,1-.09-.07v0Zm8.58,0a.13.13,0,0,1,.09-.07h.41a.09.09,0,0,1,.09.08.06.06,0,0,1,0,0l-2.67,8.89a.1.1,0,0,1-.08.07h-.41a.08.08,0,0,1-.09-.08v0Zm2.58,0a.13.13,0,0,1,.09-.07h.42s.07,0,.08.06l3,7.94,2.38-7.93a.13.13,0,0,1,.09-.07h.4a.1.1,0,0,1,.1.08v0l-2.67,8.89a.1.1,0,0,1-.08.06h-.41a.1.1,0,0,1-.08,0l-3-7.93-2.38,7.92a.1.1,0,0,1-.09.06h-.41s-.08,0-.09-.07a.06.06,0,0,1,0,0Zm12.37,5-1.56-4.93a.1.1,0,0,1,0-.11h.51a.13.13,0,0,1,.09.07l1.4,4.39,4-4.42a.11.11,0,0,1,.07,0h.47c.1,0,.13.08.07.15l-4.54,5-1.17,3.89s-.05,0-.08.06h-.41a.08.08,0,0,1-.09-.08v0Zm6.08-5a.13.13,0,0,1,.09-.07h5.43a.08.08,0,0,1,.09.08.06.06,0,0,1,0,0l-.11.4a.1.1,0,0,1-.09.06h-4.94l-1,3.5h3.85a.07.07,0,0,1,.09.07v0l-.12.39a.1.1,0,0,1-.09.06H115l-1.15,3.86h5a.09.09,0,0,1,.09.08.06.06,0,0,1,0,0l-.12.4a.08.08,0,0,1-.08.06h-5.56a.08.08,0,0,1-.09-.07.06.06,0,0,1,0,0Zm7.1,0a.13.13,0,0,1,.09-.07h.42s.07,0,.08.06l3,7.94,2.38-7.93a.13.13,0,0,1,.09-.07h.4a.1.1,0,0,1,.1.08v0l-2.67,8.89a.1.1,0,0,1-.08.06h-.41a.08.08,0,0,1-.08,0l-3-7.93-2.37,7.92a.1.1,0,0,1-.09.06h-.41a.07.07,0,0,1-.09-.07v0Zm15,5-1.56-4.93a.08.08,0,0,1,0-.11h.51a.13.13,0,0,1,.09.07l1.4,4.39,4-4.42.06,0H143c.1,0,.14.08.07.15l-4.54,5-1.16,3.89a.15.15,0,0,1-.09.06h-.41a.1.1,0,0,1-.09-.07.09.09,0,0,1,0,0Zm6.3-3.83a4.84,4.84,0,0,1,3.48-1.41,2.65,2.65,0,0,1,2.69,1.42,4.85,4.85,0,0,1,0,3.34A7.46,7.46,0,0,1,148.4,56a4.94,4.94,0,0,1-3.49,1.38,2.64,2.64,0,0,1-2.68-1.41,4.77,4.77,0,0,1,.05-3.33,7.46,7.46,0,0,1,1.93-3.3Zm-1.42,6.27A2.13,2.13,0,0,0,145,56.79a4.12,4.12,0,0,0,3-1.26,6.72,6.72,0,0,0,1.68-2.94,4.43,4.43,0,0,0,.08-2.92,2.14,2.14,0,0,0-2.23-1.24,4.16,4.16,0,0,0-3,1.27,6.8,6.8,0,0,0-1.67,2.94,4.5,4.5,0,0,0-.1,2.92Zm10.46-7.42a.1.1,0,0,1,.08-.07h.42a.08.08,0,0,1,.09.08s0,0,0,0l-2.52,8.38h4.59a.1.1,0,0,1,.1.08.08.08,0,0,1,0,0l-.12.4s0,0-.08.06h-5.14a.09.09,0,0,1-.09-.08.08.08,0,0,1,0,0Zm6.8-.07a.09.09,0,0,1,.09.08.06.06,0,0,1,0,0l-1.68,5.59c-.61,2,0,3,1.77,3a3.34,3.34,0,0,0,2.34-.84,4.67,4.67,0,0,0,1.31-2.22l1.68-5.59a.11.11,0,0,1,.08-.07H166a.08.08,0,0,1,.09.08s0,0,0,0L164.39,54a4.78,4.78,0,0,1-1.58,2.45,4.19,4.19,0,0,1-2.7.9,2.41,2.41,0,0,1-2.19-.92,2.88,2.88,0,0,1-.11-2.48l1.73-5.79a.13.13,0,0,1,.09-.07Zm-119.38.07a.13.13,0,0,1,.09-.07h.4a.1.1,0,0,1,.1.08.06.06,0,0,1,0,0l-.29,1a.13.13,0,0,1-.09.07h-.41a.09.09,0,0,1-.09-.08.08.08,0,0,1,0,0ZM40,50.42a.1.1,0,0,1,.08-.06h.41a.07.07,0,0,1,.09.07v0l-2,6.61a.1.1,0,0,1-.08.07h-.41a.08.08,0,0,1-.09-.08v0Zm91.48-2.28a.13.13,0,0,1,.09-.07H132a.08.08,0,0,1,.09.08.06.06,0,0,1,0,0l-.29,1a.11.11,0,0,1-.08.07h-.42a.1.1,0,0,1-.09-.07.09.09,0,0,1,0,0Zm-.68,2.28a.11.11,0,0,1,.09-.06h.4a.09.09,0,0,1,.1.07s0,0,0,0l-2,6.61a.13.13,0,0,1-.09.07h-.41a.09.09,0,0,1-.09-.08v0Z"/><g id="Group_38555" data-name="Group 38555"><path id="Path_51987" data-name="Path 51987" class="cls-2" d="M20.84.83l-13,56.5H0L13,.83Z"/><path id="Path_51988" data-name="Path 51988" class="cls-2" d="M34.65,4.42A20.45,20.45,0,0,1,37,2.63,15.78,15.78,0,0,1,45.65,0c5.29,0,11.41,3.21,11.41,10.17a24.66,24.66,0,0,1-.88,6.33L50.91,39.2h-7.8l5.44-23.56a16,16,0,0,0,.52-4.08c0-2.36-1.2-5-5.44-5a11.11,11.11,0,0,0-7,2.3c-2.94,2.37-4.2,5.37-5.67,11.63L26.61,39.19H18.73L27.59.93h7.88Z"/><path id="Path_51989" data-name="Path 51989" class="cls-2" d="M81.8.93,80.32,7.37H73.88l-4.5,19.38a27.78,27.78,0,0,0-.83,4.53c0,1.14.67,1.4,1.86,1.4a6,6,0,0,0,1-.1l3-.51,1.27-.22L74.25,38.1l-.39.17a15.65,15.65,0,0,1-6.16,1.16c-5,0-6.91-2.61-6.91-6a26.36,26.36,0,0,1,.88-5.86L66.32,7.37H60.5L62,.93H81.8Z"/><path id="Path_51990" data-name="Path 51990" class="cls-2" d="M131.24,4.43c.38-.37.83-.76,1.37-1.21.32-.28.68-.6,1.11-.92a10.14,10.14,0,0,1,1.6-1,12.63,12.63,0,0,1,6.56-1l.92.13-1.68,7.34-.7,0c-2.09-.08-4-.14-6.29,1.2-4.45,2.65-6,9-6.82,12.35L123.2,39.19h-7.65L124.33.93h7.72Z"/><path id="Path_51991" data-name="Path 51991" class="cls-2" d="M174.76,26.54l-.43,1a21.36,21.36,0,0,1-8.75,10.27,19.7,19.7,0,0,1-9.73,2.21,17,17,0,0,1-10.2-2.88c-6-4.23-6.1-11.24-6.1-13.34C139.55,11.64,147.47,0,160.82,0c9.54,0,14.63,5.49,15.13,11.81l.06.72-7.3,1.78-.19-.85c-.53-2.36-1.7-6.78-7.94-6.78-8.12,0-13,8.93-13,16.76,0,5.45,2.78,10.4,8.77,10.4a9.51,9.51,0,0,0,5.44-1.64,11.29,11.29,0,0,0,4.56-6.12l.24-.62Z"/><path id="Path_51992" data-name="Path 51992" class="cls-2" d="M107.76,15.37c0-.26,0-.51,0-.78,0-5.57-3.72-8.23-7.3-8.23-2.34,0-8.45,1.35-11.37,9Zm6.55,12-.4,1c-4,9.86-12.9,11.71-18.33,11.71-9.57,0-15.83-6.22-15.83-16.38C79.75,12.38,87,0,100.86,0,111,0,115.44,6.81,115.44,15.83a26.44,26.44,0,0,1-.47,5l-.12.72H87.52c0,.63-.09,1.21-.09,1.86,0,8.63,6.43,10.25,9.47,10.25a10.41,10.41,0,0,0,3.66-.72c3.85-1.5,5.13-4.25,6-6.24l.27-.6Z"/><path id="Path_51993" data-name="Path 51993" class="cls-2" d="M192.12.83l-13.05,56.5h-7.8l13-56.5Z"/><path id="Path_51994" data-name="Path 51994" class="cls-2" d="M214.72.93l-1.48,6.44H206.8l-4.51,19.38a27.78,27.78,0,0,0-.83,4.53c0,1.14.67,1.4,1.86,1.4a6,6,0,0,0,1-.1l3-.51,1.27-.22-1.48,6.25-.39.17a15.65,15.65,0,0,1-6.16,1.16c-5,0-6.91-2.61-6.91-6a26.36,26.36,0,0,1,.88-5.86l4.65-20.22h-5.82L194.88.93Z"/><path id="Path_51995" data-name="Path 51995" class="cls-2" d="M250.62.93l-28.4,47.94c-3.32,5.52-5.25,8.25-12.61,8.25a22.29,22.29,0,0,1-4.31-.32l-.92-.13,1.64-7,.8.14a14.61,14.61,0,0,0,2.72.22,5.93,5.93,0,0,0,3.38-.89,6.71,6.71,0,0,0,1.63-1.69c.57-.78,1.07-1.57,1.33-2l4.65-8L216.42.94h7.7l2.68,27.22L241.86.94Z"/></g></g><g id="Group_38559" data-name="Group 38559"><g id="Group_38557" data-name="Group 38557"><path id="Path_51996" data-name="Path 51996" class="cls-3" d="M283.35,7.31a15.94,15.94,0,0,0-13.09,6.85A13.52,13.52,0,0,0,265.92,11L273.49.93H252.9l-3.8,6.42h11.54L254,16.24h6.42a7,7,0,0,1,7,7,9.53,9.53,0,0,1-19.05,0h-6.42a15.93,15.93,0,0,0,28.67,9.59A15.94,15.94,0,1,0,283.34,7.31Zm0,25.47a9.53,9.53,0,1,1,9.52-9.53,9.53,9.53,0,0,1-9.52,9.53Z"/></g><path id="Subtraction_8" data-name="Subtraction 8" class="cls-3" d="M283.35,39.19h0a15.82,15.82,0,0,1-7.23-1.73,16.2,16.2,0,0,1-5.51-4.63A15.54,15.54,0,0,0,273,28.39a15.74,15.74,0,0,0,.85-5.14,9.53,9.53,0,0,0,9.53,9.52Zm-16-16h0a7,7,0,0,0-7-6.91h-2.51l2.76-8.89L265.92,11a13.49,13.49,0,0,1,4.34,3.14A15.92,15.92,0,0,0,267.4,23.15Z"/></g><circle id="Ellipse_161" data-name="Ellipse 161" class="cls-3" cx="301.65" cy="35.41" r="3.79"/><g id="Group_38560" data-name="Group 38560"><path id="Path_51999" data-name="Path 51999" class="cls-3" d="M240.82,43.06a.26.26,0,0,1,0,.11l-.21.32a10.37,10.37,0,0,1-5.3,4.35q-1.67,2.82-2.52,4a15.63,15.63,0,0,1-2.21,2.39,13.17,13.17,0,0,1-3,2,6.71,6.71,0,0,1-2.84.82,2,2,0,0,1-1.54-.68,2.41,2.41,0,0,1-.63-1.71q0-2.45,3.21-4.26a27,27,0,0,1,6.85-2.12l2.31-4.2q-2.37,3.57-4.14,3.57a1.57,1.57,0,0,1-1.21-.54,1.84,1.84,0,0,1-.5-1.3,5.74,5.74,0,0,1,.95-2.36l1-1.77c.21-.36.48-.85.81-1.46a7.17,7.17,0,0,0,1.31.11,9.2,9.2,0,0,0,1.28-.1l-2,3.44A14.8,14.8,0,0,0,230.69,47c0,.27.15.4.46.4q1.84,0,5.92-7.11a4.9,4.9,0,0,0,1.14.11,14.54,14.54,0,0,0,1.47-.11l-1.47,2.42q-.75,1.25-1.83,3.21c-.26.45-.59,1-1,1.73a10.83,10.83,0,0,0,5-4.27c.15-.21.26-.32.33-.32S240.82,43,240.82,43.06Zm-8.34,5.43a15.63,15.63,0,0,0-6.43,2.8c-1.72,1.32-2.58,2.69-2.58,4.13,0,1,.44,1.49,1.33,1.49a4.39,4.39,0,0,0,3.12-1.62,31.53,31.53,0,0,0,3.89-5.63Z"/><path id="Path_52000" data-name="Path 52000" class="cls-3" d="M245.27,43.06a13,13,0,0,1-1.92,2.69c-1,1.28-2,1.92-2.91,1.92a1.57,1.57,0,0,1-1.21-.54,1.84,1.84,0,0,1-.5-1.3,5.17,5.17,0,0,1,.9-2.42l2-3.28a3.83,3.83,0,0,0,1.17.13,8.52,8.52,0,0,0,1.42-.13L241,45.57a4.38,4.38,0,0,0-.67,1.33c0,.3.17.45.52.45q1.29,0,4-4c.15-.21.26-.32.33-.32S245.27,43,245.27,43.06Z"/><path id="Path_52001" data-name="Path 52001" class="cls-3" d="M252.65,33.14l-7.5,12.66a3,3,0,0,0-.5,1.12c0,.28.17.43.51.43q1.38,0,4.08-4c.14-.22.26-.33.35-.33s0,0,0,0v0a12.73,12.73,0,0,1-1.93,2.69q-1.54,1.92-2.85,1.92a1.65,1.65,0,0,1-1.23-.54,1.75,1.75,0,0,1-.53-1.27,3,3,0,0,1,.35-1.35c.24-.48.82-1.5,1.77-3,.38-.62.79-1.32,1.25-2.09l3.66-6.22a4.59,4.59,0,0,0,1.17.16A8.74,8.74,0,0,0,252.65,33.14Z"/></g><g id="Group_38563" data-name="Group 38563"><g id="Group_38561" data-name="Group 38561"><path id="Path_52002" data-name="Path 52002" class="cls-4" d="M283.35,7.34a16,16,0,0,0-13.09,6.84A13.64,13.64,0,0,0,265.92,11L273.49,1H252.9l-3.8,6.42h11.54L254,16.27h6.42a7,7,0,0,1,7,7,9.53,9.53,0,0,1-19.05,0h-6.42a15.93,15.93,0,0,0,28.67,9.58A15.94,15.94,0,1,0,283.34,7.34Zm0,25.46a9.52,9.52,0,1,1,9.52-9.52,9.53,9.53,0,0,1-9.52,9.52Z"/></g><path id="Subtraction_9" data-name="Subtraction 9" class="cls-5" d="M283.35,39.22h0a15.82,15.82,0,0,1-7.23-1.73,16.2,16.2,0,0,1-5.51-4.63A15.54,15.54,0,0,0,273,28.42a15.79,15.79,0,0,0,.85-5.14,9.53,9.53,0,0,0,9.53,9.52Zm-16-16h0a7,7,0,0,0-7-6.91h-2.51l2.76-8.89L265.92,11a13.34,13.34,0,0,1,4.34,3.14A15.92,15.92,0,0,0,267.4,23.18Z"/></g><circle id="Ellipse_162" data-name="Ellipse 162" class="cls-4" cx="301.65" cy="35.44" r="3.79"/><g id="Group_38564" data-name="Group 38564"><path id="Path_52005" data-name="Path 52005" class="cls-4" d="M240.82,43.08a.2.2,0,0,1,0,.11l-.21.33a10.3,10.3,0,0,1-5.3,4.34q-1.67,2.84-2.52,4a15.63,15.63,0,0,1-2.21,2.39,12.89,12.89,0,0,1-3,2,6.71,6.71,0,0,1-2.84.82,2,2,0,0,1-1.54-.68,2.41,2.41,0,0,1-.63-1.71q0-2.45,3.21-4.26a27,27,0,0,1,6.85-2.12l2.31-4.21q-2.37,3.59-4.14,3.58a1.61,1.61,0,0,1-1.21-.54,1.84,1.84,0,0,1-.5-1.3,5.84,5.84,0,0,1,.95-2.37l1-1.76q.31-.54.81-1.47a6.38,6.38,0,0,0,1.31.11,7.89,7.89,0,0,0,1.28-.1l-2,3.45A14.58,14.58,0,0,0,230.69,47c0,.27.15.4.46.4q1.84,0,5.92-7.12a4.9,4.9,0,0,0,1.14.11,10.39,10.39,0,0,0,1.47-.11l-1.47,2.42q-.75,1.26-1.83,3.21l-1,1.73a10.76,10.76,0,0,0,5-4.26q.22-.33.33-.33S240.82,43.05,240.82,43.08Zm-8.34,5.43a15.9,15.9,0,0,0-6.43,2.8c-1.72,1.33-2.58,2.7-2.58,4.13,0,1,.44,1.49,1.33,1.49a4.38,4.38,0,0,0,3.12-1.61,31.25,31.25,0,0,0,3.89-5.64Z"/><path id="Path_52006" data-name="Path 52006" class="cls-4" d="M245.27,43.08a12.79,12.79,0,0,1-1.92,2.69c-1,1.29-2,1.93-2.91,1.93a1.61,1.61,0,0,1-1.21-.54,1.84,1.84,0,0,1-.5-1.3,5.17,5.17,0,0,1,.9-2.42l2-3.28a4.16,4.16,0,0,0,1.17.13,9.74,9.74,0,0,0,1.42-.13L241,45.59a4.55,4.55,0,0,0-.67,1.34c0,.3.17.45.52.45q1.29,0,4-4,.23-.33.33-.33C245.25,43,245.27,43.05,245.27,43.08Z"/><path id="Path_52007" data-name="Path 52007" class="cls-4" d="M252.65,33.17l-7.5,12.65a3.18,3.18,0,0,0-.5,1.13c0,.29.17.43.52.43q1.38,0,4.07-4c.14-.22.26-.32.35-.32s0,0,.06,0h0a13.48,13.48,0,0,1-1.93,2.69c-1,1.28-2,1.93-2.85,1.93a1.68,1.68,0,0,1-1.24-.55,1.77,1.77,0,0,1-.53-1.27,3.2,3.2,0,0,1,.36-1.35c.23-.48.82-1.5,1.76-3,.38-.62.8-1.31,1.25-2.09l3.66-6.22a4.18,4.18,0,0,0,1.17.16A8.74,8.74,0,0,0,252.65,33.17Z"/></g></g></g></g></g></g></svg>