<svg xmlns="http://www.w3.org/2000/svg" viewBox="0 0 182.33 34.24"><defs><style>.cls-1{fill-rule:evenodd;}</style></defs><g id="Layer_2" data-name="Layer 2"><g id="Layer_2-2" data-name="Layer 2"><g id="Group_39606" data-name="Group 39606"><g id="Group_38565" data-name="Group 38565"><g id="Group_38556" data-name="Group 38556"><path id="Path_51986" data-name="Path 51986" class="cls-1" d="M9.48,32.39a0,0,0,0,1,0,0v0a1.27,1.27,0,0,0,.11,1.06,1.1,1.1,0,0,0,1,.38,2,2,0,0,0,1.1-.3,1.53,1.53,0,0,0,.73-.9.74.74,0,0,0-.2-.86,3.26,3.26,0,0,0-.93-.38l-.09,0a2.29,2.29,0,0,1-1-.5A1,1,0,0,1,10,30a1.86,1.86,0,0,1,.81-1.07,2.34,2.34,0,0,1,1.26-.36,1.32,1.32,0,0,1,1.11.43,1.28,1.28,0,0,1,.17,1.2.1.1,0,0,1-.05,0H13.1a.05.05,0,0,1,0-.05v0a1,1,0,0,0-.12-.95,1.13,1.13,0,0,0-.9-.33,1.85,1.85,0,0,0-1,.28,1.52,1.52,0,0,0-.63.86.7.7,0,0,0,.1.67,2,2,0,0,0,.89.41.29.29,0,0,1,.1,0,3.58,3.58,0,0,1,1,.43.91.91,0,0,1,.27,1.09,2,2,0,0,1-.89,1.18,2.56,2.56,0,0,1-1.38.38,1.37,1.37,0,0,1-1.18-.49,1.52,1.52,0,0,1-.16-1.31.07.07,0,0,1,.05,0Zm6.77-3.67.05,0h.28a0,0,0,0,1,.05.05l.42,5.31s0,0,0,0h-.25a.06.06,0,0,1-.06,0l-.14-1.75h-2.4l-1.22,1.78,0,0h-.25a0,0,0,0,1,0-.08ZM16.53,32l-.22-2.79L14.4,32Zm2.6-3.24a.07.07,0,0,1,.05,0h.25a0,0,0,0,1,.06,0v0l-.69,2.29h3.25l.7-2.32a.05.05,0,0,1,.05,0H23s.05,0,.06,0a0,0,0,0,1,0,0l-1.59,5.3a.07.07,0,0,1-.05,0H21.2s-.05,0-.05,0v0l.8-2.65H18.7l-.81,2.68a.07.07,0,0,1-.05,0h-.25s-.05,0-.06,0a0,0,0,0,1,0,0Zm9.74,1.43a2.13,2.13,0,0,1-.74,1.08,1.92,1.92,0,0,1-.84.36,4.79,4.79,0,0,1-.85.05H25.31l-.73,2.42a.05.05,0,0,1,0,0h-.25s-.05,0-.05,0,0,0,0,0l1.59-5.3a.07.07,0,0,1,.05,0h1.44c1.3,0,1.85.48,1.55,1.47ZM26.1,29l-.69,2.3h.94a3.78,3.78,0,0,0,1.25-.13,1.55,1.55,0,0,0,.91-1.08c.18-.62,0-.95-.61-1.05a5.63,5.63,0,0,0-.82,0Zm6.12.4a2.93,2.93,0,0,1,2.08-.85,1.59,1.59,0,0,1,1.6.86,2.84,2.84,0,0,1,0,2,4.33,4.33,0,0,1-1.15,2,3,3,0,0,1-2.09.83,1.6,1.6,0,0,1-1.6-.85,2.81,2.81,0,0,1,0-2,4.43,4.43,0,0,1,1.16-2Zm-.85,3.74a1.3,1.3,0,0,0,1.33.74,2.47,2.47,0,0,0,1.81-.76,4,4,0,0,0,1-1.75,2.6,2.6,0,0,0,.05-1.74,1.28,1.28,0,0,0-1.33-.75,2.49,2.49,0,0,0-1.8.76,4.13,4.13,0,0,0-1,1.76,2.73,2.73,0,0,0-.06,1.74Zm6.24-4.43a.09.09,0,0,1,.06,0h.24a.06.06,0,0,1,.06.05v0l-1.5,5h2.74a0,0,0,0,1,0,0v0l-.07.24a.05.05,0,0,1,0,0H36.07s0,0-.06,0,0,0,0,0Zm3.8,0a.09.09,0,0,1,.06,0h.34s0,0,.06.05l.79,3.62,2.91-3.65,0,0H46a.05.05,0,0,1,0,.05v0l-1.6,5.31s0,0,0,0h-.22s0,0,0,0v0l1.42-4.73-2.87,3.51,0,0h-.15a.07.07,0,0,1-.05,0l-.82-3.53-1.44,4.8a.07.07,0,0,1,0,0h-.22a.06.06,0,0,1-.06,0v0Zm7.17,0,0,0h.29a.12.12,0,0,1,.05.05l.42,5.31a.06.06,0,0,1-.05.06h-.25a.05.05,0,0,1,0,0l-.14-1.76h-2.4L45.27,34.1l0,0H45s-.07,0,0-.09ZM48.86,32l-.22-2.78L46.72,32Zm2.6-3.24a.1.1,0,0,1,0,0h.25a.1.1,0,0,1,.05,0l1.81,4.74L55,28.74a.1.1,0,0,1,.05,0h.25a.05.05,0,0,1,0,.05v0l-1.6,5.31a.1.1,0,0,1,0,0H53.5a.1.1,0,0,1,0,0l-1.82-4.73-1.42,4.73a.07.07,0,0,1-.05,0h-.25a.05.05,0,0,1,0,0v0Zm5.12,0a.1.1,0,0,1,.05,0h.25a.05.05,0,0,1,0,.05v0l-1.6,5.31a.1.1,0,0,1,0,0H55a.06.06,0,0,1-.06,0v0Zm1.54,0a.1.1,0,0,1,.05,0h.25a.1.1,0,0,1,0,0l1.81,4.74,1.42-4.74a.1.1,0,0,1,0,0H62a.05.05,0,0,1,0,.05v0l-1.59,5.31a.1.1,0,0,1-.05,0h-.25a.1.1,0,0,1,0,0L58.3,29.35l-1.42,4.73a.07.07,0,0,1-.06,0h-.24a0,0,0,0,1,0,0s0,0,0,0Zm7.39,3-.93-2.95a0,0,0,0,1,0-.06h.31a.1.1,0,0,1,0,0l.84,2.62,2.4-2.64,0,0h.28a.05.05,0,0,1,0,.09l-2.71,3-.7,2.32a.07.07,0,0,1-.06,0h-.24a0,0,0,0,1,0,0s0,0,0,0Zm3.63-3a.1.1,0,0,1,0,0h3.24a0,0,0,0,1,0,.05s0,0,0,0l-.07.24a.1.1,0,0,1,0,0h-3l-.63,2.08h2.3a.06.06,0,0,1,.06.05v0l-.07.23a.07.07,0,0,1-.06,0H68.67L68,33.78h3a0,0,0,0,1,.06,0s0,0,0,0l-.07.24a.07.07,0,0,1,0,0H67.59a.06.06,0,0,1-.06,0v0Zm4.23,0a.1.1,0,0,1,0,0h.25a.1.1,0,0,1,0,0l1.81,4.74L77,28.74a.1.1,0,0,1,0,0h.25a.05.05,0,0,1,0,.05v0l-1.59,5.31a.09.09,0,0,1-.06,0h-.24a.1.1,0,0,1,0,0l-1.82-4.73-1.42,4.73a.07.07,0,0,1-.05,0h-.24a.07.07,0,0,1-.06,0,0,0,0,0,1,0,0Zm9,3-.93-2.95a0,0,0,0,1,0-.06h.31a.1.1,0,0,1,.05,0l.83,2.62L85,28.72l0,0h.28c.06,0,.08.05,0,.09l-2.71,3L82,34.08a.07.07,0,0,1,0,0h-.24s-.06,0-.06,0a0,0,0,0,1,0,0Zm3.77-2.29a2.93,2.93,0,0,1,2.08-.85,1.62,1.62,0,0,1,1.6.86,3,3,0,0,1,0,2,4.44,4.44,0,0,1-1.16,2,2.92,2.92,0,0,1-2.08.83,1.57,1.57,0,0,1-1.6-.84,2.84,2.84,0,0,1,0-2,4.41,4.41,0,0,1,1.15-2Zm-.85,3.74a1.28,1.28,0,0,0,1.33.74,2.49,2.49,0,0,0,1.81-.76,4.09,4.09,0,0,0,1-1.75,2.66,2.66,0,0,0,0-1.74,1.28,1.28,0,0,0-1.33-.75,2.49,2.49,0,0,0-1.8.76,4,4,0,0,0-1,1.76,2.66,2.66,0,0,0-.07,1.74Zm6.24-4.43a.1.1,0,0,1,.05,0h.25a.06.06,0,0,1,.06.05v0l-1.5,5h2.74a.05.05,0,0,1,0,0v0l-.07.24a.05.05,0,0,1,0,0H90s0,0,0,0v0Zm4.06,0a0,0,0,0,1,0,.05v0l-1,3.34c-.37,1.22,0,1.8,1.06,1.8a2,2,0,0,0,1.4-.5,2.85,2.85,0,0,0,.78-1.33l1-3.33a.05.05,0,0,1,0,0h.24a0,0,0,0,1,.06,0v0l-1,3.45a3,3,0,0,1-.94,1.47,2.48,2.48,0,0,1-1.61.53,1.42,1.42,0,0,1-1.3-.55,1.67,1.67,0,0,1-.07-1.48l1-3.46a.05.05,0,0,1,0,0Zm-71.26,0a.1.1,0,0,1,.05,0h.24a.06.06,0,0,1,.06.05v0l-.18.58a.07.07,0,0,1-.05,0h-.25s-.05,0-.05,0v0Zm-.42,1.36a.1.1,0,0,1,.05,0h.25a0,0,0,0,1,0,.05v0L23,34.08s0,0-.05,0h-.24s0,0-.06,0a0,0,0,0,1,0,0Zm54.61-1.36a.07.07,0,0,1,.06,0h.24a.07.07,0,0,1,.06,0,0,0,0,0,1,0,0l-.17.58a.1.1,0,0,1,0,0h-.25a.05.05,0,0,1,0-.05v0Zm-.4,1.36a.1.1,0,0,1,0,0h.24a.06.06,0,0,1,.06.05s0,0,0,0l-1.18,3.95a.05.05,0,0,1,0,0H77a0,0,0,0,1-.06,0v0Z"/><g id="Group_38555" data-name="Group 38555"><path id="Path_51987" data-name="Path 51987" class="cls-1" d="M12.44.5,4.66,34.22H0L7.79.5Z"/><path id="Path_51988" data-name="Path 51988" class="cls-1" d="M20.69,2.64A12.16,12.16,0,0,1,22.1,1.57,9.45,9.45,0,0,1,27.25,0c3.16,0,6.81,1.92,6.81,6.07a14.6,14.6,0,0,1-.52,3.78L30.39,23.4H25.73L29,9.34a9.6,9.6,0,0,0,.31-2.44c0-1.41-.72-3-3.24-3a6.62,6.62,0,0,0-4.18,1.37c-1.75,1.41-2.51,3.21-3.39,6.94L15.89,23.4h-4.7L16.47.56h4.71Z"/><path id="Path_51989" data-name="Path 51989" class="cls-1" d="M48.83.56,48,4.4H44.1L41.41,16a16.46,16.46,0,0,0-.5,2.7c0,.68.4.84,1.12.84a3.15,3.15,0,0,0,.61-.06l1.8-.31L45.2,19l-.88,3.73-.24.1a9.27,9.27,0,0,1-3.68.7c-2.95,0-4.12-1.56-4.12-3.57a15.93,15.93,0,0,1,.53-3.5L39.58,4.4H36.11L37,.56Z"/><path id="Path_51990" data-name="Path 51990" class="cls-1" d="M78.35,2.65c.23-.22.49-.46.81-.72a8.63,8.63,0,0,1,.67-.55,6.32,6.32,0,0,1,1-.6A7.53,7.53,0,0,1,84.7.19l.55.08-1,4.38-.42,0a6.2,6.2,0,0,0-3.75.72c-2.66,1.58-3.6,5.37-4.08,7.37L73.54,23.4H69L74.21.56h4.62Z"/><path id="Path_51991" data-name="Path 51991" class="cls-1" d="M104.32,15.85l-.25.61a12.81,12.81,0,0,1-5.22,6.13A11.9,11.9,0,0,1,93,23.91a10.15,10.15,0,0,1-6.09-1.72c-3.55-2.53-3.64-6.71-3.64-8C83.3,7,88,0,96,0c5.7,0,8.73,3.27,9,7.05l0,.43-4.35,1.06-.11-.5c-.32-1.41-1-4-4.74-4C91,4,88.08,9.32,88.08,14c0,3.25,1.66,6.21,5.24,6.21a5.68,5.68,0,0,0,3.24-1,6.64,6.64,0,0,0,2.72-3.65l.15-.37Z"/><path id="Path_51992" data-name="Path 51992" class="cls-1" d="M64.33,9.18c0-.16,0-.3,0-.47,0-3.33-2.23-4.91-4.36-4.91-1.4,0-5,.81-6.79,5.38Zm3.91,7.16-.24.58c-2.38,5.89-7.7,7-10.94,7-5.71,0-9.45-3.72-9.45-9.78C47.61,7.39,52,0,60.21,0c6.06,0,8.71,4.07,8.71,9.45a15.55,15.55,0,0,1-.29,3l-.07.42H52.25c0,.38,0,.73,0,1.11,0,5.15,3.83,6.12,5.65,6.12A6,6,0,0,0,60,19.63a6.26,6.26,0,0,0,3.61-3.72l.17-.36Z"/><path id="Path_51993" data-name="Path 51993" class="cls-1" d="M114.69.5,106.9,34.22h-4.66L110,.5Z"/><path id="Path_51994" data-name="Path 51994" class="cls-1" d="M128.18.56,127.3,4.4h-3.85L120.76,16a16.46,16.46,0,0,0-.5,2.7c0,.68.4.84,1.11.84a3.26,3.26,0,0,0,.62-.06l1.8-.31.76-.13-.89,3.73-.23.1a9.3,9.3,0,0,1-3.68.7c-3,0-4.12-1.56-4.12-3.57a15.91,15.91,0,0,1,.52-3.5L118.93,4.4h-3.47l.88-3.84Z"/><path id="Path_51995" data-name="Path 51995" class="cls-1" d="M149.61.56l-17,28.61c-2,3.3-3.14,4.93-7.53,4.93a13.84,13.84,0,0,1-2.57-.19l-.55-.08,1-4.16.47.08a8.9,8.9,0,0,0,1.63.14,4.76,4.76,0,0,0,.84-.07,3.83,3.83,0,0,0,1.17-.47,4.09,4.09,0,0,0,1-1c.34-.46.63-.94.8-1.19l2.77-4.74L129.2.56h4.6l1.6,16.25,9-16.25Z"/></g></g><g id="Group_38559" data-name="Group 38559"><g id="Group_38557" data-name="Group 38557"><path id="Path_51996" data-name="Path 51996" d="M169.15,4.36a9.49,9.49,0,0,0-7.81,4.09,8.21,8.21,0,0,0-2.6-1.88l4.52-6H151L148.7,4.39h6.89l-4,5.3h3.84a4.18,4.18,0,0,1,4.18,4.19,5.69,5.69,0,0,1-11.37,0h-3.84a9.51,9.51,0,0,0,17.12,5.72,9.52,9.52,0,1,0,7.6-15.23Zm0,15.2a5.69,5.69,0,1,1,5.68-5.68h0a5.7,5.7,0,0,1-5.68,5.69Z"/></g></g><circle id="Ellipse_161" data-name="Ellipse 161" cx="180.07" cy="21.14" r="2.26"/><g id="Group_38560" data-name="Group 38560"><path id="Path_51999" data-name="Path 51999" d="M143.76,25.7a.14.14,0,0,1,0,.07l-.13.19a6.13,6.13,0,0,1-3.16,2.6c-.66,1.12-1.16,1.92-1.5,2.38a9.41,9.41,0,0,1-1.32,1.43,8,8,0,0,1-1.81,1.21,4,4,0,0,1-1.69.49,1.19,1.19,0,0,1-.92-.4,1.44,1.44,0,0,1-.38-1q0-1.45,1.92-2.55a16.16,16.16,0,0,1,4.09-1.26l1.38-2.51c-.94,1.42-1.77,2.14-2.47,2.14a.94.94,0,0,1-.72-.33,1.08,1.08,0,0,1-.3-.78,3.46,3.46,0,0,1,.56-1.41l.62-1.05c.13-.22.29-.51.49-.88a4,4,0,0,0,.78.07,4.87,4.87,0,0,0,.76-.06l-1.22,2a7.93,7.93,0,0,0-1,1.94q0,.24.27.24,1.09,0,3.53-4.24a3.22,3.22,0,0,0,.69.06,6.36,6.36,0,0,0,.87-.06l-.87,1.44c-.31.5-.67,1.14-1.11,1.92l-.59,1a6.49,6.49,0,0,0,3-2.55c.09-.13.16-.19.2-.19S143.76,25.68,143.76,25.7Zm-5,3.24a9.65,9.65,0,0,0-3.84,1.67,3.28,3.28,0,0,0-1.54,2.47c0,.59.27.89.8.89a2.66,2.66,0,0,0,1.86-1,19.4,19.4,0,0,0,2.32-3.37Z"/><path id="Path_52000" data-name="Path 52000" d="M146.42,25.7a7.55,7.55,0,0,1-1.15,1.6,2.45,2.45,0,0,1-1.74,1.15.92.92,0,0,1-.72-.32,1.12,1.12,0,0,1-.3-.78,3,3,0,0,1,.54-1.44l1.16-2a2.39,2.39,0,0,0,.7.08,4.8,4.8,0,0,0,.85-.08l-1.91,3.24a2.86,2.86,0,0,0-.4.8c0,.18.1.27.31.27.52,0,1.32-.8,2.41-2.4.09-.13.15-.19.2-.19S146.42,25.68,146.42,25.7Z"/><path id="Path_52001" data-name="Path 52001" d="M150.82,19.78l-4.47,7.56a1.84,1.84,0,0,0-.3.67c0,.17.1.25.31.25q.82,0,2.43-2.4c.09-.13.16-.19.21-.19a0,0,0,0,1,0,0h0a7.55,7.55,0,0,1-1.15,1.6c-.61.77-1.18,1.15-1.7,1.15a1,1,0,0,1-.74-.32,1.08,1.08,0,0,1-.31-.76,1.87,1.87,0,0,1,.21-.8q.21-.43,1-1.83c.23-.36.48-.78.75-1.24l2.19-3.72a2.32,2.32,0,0,0,.7.1A4.27,4.27,0,0,0,150.82,19.78Z"/></g><g id="Group_38563" data-name="Group 38563"><g id="Group_38561" data-name="Group 38561"><path id="Path_52002" data-name="Path 52002" d="M169.15,4.38a9.52,9.52,0,0,0-7.82,4.08,7.88,7.88,0,0,0-2.59-1.87l4.52-6H151L148.7,4.4h6.89l-4,5.3h3.84a4.19,4.19,0,0,1,4.18,4.19,5.69,5.69,0,0,1-11.37,0h-3.84a9.52,9.52,0,0,0,17.12,5.72,9.52,9.52,0,1,0,7.6-15.24Zm0,15.2a5.69,5.69,0,1,1,5.68-5.69h0a5.69,5.69,0,0,1-5.68,5.69Z"/></g></g><circle id="Ellipse_162" data-name="Ellipse 162" cx="180.07" cy="21.16" r="2.26"/><g id="Group_38564" data-name="Group 38564"><path id="Path_52005" data-name="Path 52005" d="M143.76,25.72a.14.14,0,0,1,0,.06l-.13.2a6.11,6.11,0,0,1-3.16,2.59c-.66,1.13-1.16,1.92-1.5,2.39a9.34,9.34,0,0,1-1.32,1.42,7.67,7.67,0,0,1-1.81,1.22,4,4,0,0,1-1.69.48,1.19,1.19,0,0,1-.92-.4,1.44,1.44,0,0,1-.38-1c0-1,.64-1.82,1.92-2.54a15.79,15.79,0,0,1,4.09-1.27l1.38-2.51c-.94,1.42-1.77,2.14-2.47,2.14a.94.94,0,0,1-.72-.33,1.08,1.08,0,0,1-.3-.78,3.46,3.46,0,0,1,.56-1.41l.62-1.05c.13-.22.29-.51.49-.87a4.93,4.93,0,0,0,.78.06,4.87,4.87,0,0,0,.76-.06l-1.22,2.05a7.93,7.93,0,0,0-1,1.94c0,.17.09.24.27.24q1.09,0,3.53-4.24a2.69,2.69,0,0,0,.69.06,6.36,6.36,0,0,0,.87-.06l-.87,1.44c-.31.5-.67,1.14-1.11,1.92l-.59,1a6.41,6.41,0,0,0,3-2.54c.09-.13.16-.2.2-.2S143.76,25.7,143.76,25.72Zm-5,3.24a9.37,9.37,0,0,0-3.84,1.67,3.26,3.26,0,0,0-1.54,2.46c0,.6.27.9.8.9a2.63,2.63,0,0,0,1.86-1,19,19,0,0,0,2.32-3.36Z"/><path id="Path_52006" data-name="Path 52006" d="M146.42,25.72a7.55,7.55,0,0,1-1.15,1.6,2.48,2.48,0,0,1-1.74,1.15,1,1,0,0,1-.72-.32,1.12,1.12,0,0,1-.3-.78,3,3,0,0,1,.54-1.44l1.16-2a2.8,2.8,0,0,0,.7.09,6,6,0,0,0,.85-.08l-1.91,3.24a2.61,2.61,0,0,0-.4.8c0,.18.1.27.31.27.52,0,1.32-.8,2.41-2.4.09-.13.15-.19.2-.19S146.42,25.7,146.42,25.72Z"/><path id="Path_52007" data-name="Path 52007" d="M150.82,19.8l-4.47,7.55a1.92,1.92,0,0,0-.3.67c0,.18.1.26.31.26q.82,0,2.43-2.4c.09-.13.16-.19.21-.19s0,0,0,0h0a7.55,7.55,0,0,1-1.15,1.6c-.61.77-1.18,1.15-1.7,1.15a1,1,0,0,1-.74-.32,1.09,1.09,0,0,1-.31-.77,1.87,1.87,0,0,1,.21-.8c.14-.28.49-.89,1-1.82.23-.37.48-.78.75-1.25l2.19-3.71a2.32,2.32,0,0,0,.7.1A7.11,7.11,0,0,0,150.82,19.8Z"/></g></g></g></g></g></svg>