<svg viewBox="0 0 165.69 79.3" xmlns="http://www.w3.org/2000/svg"><path d="m119.44 55.09 1.25-5.45h-3.4l-.76 3.3a30.32 30.32 0 0 0 2.91 2.15"/><path d="m131.13 49.64h-3.95l-1.94 8.36a29.92 29.92 0 0 0 7.88 1.77l-1.42-12.61z"/><path d="m118.24 26v.69a1.24 1.24 0 0 1 0-.69"/><path d="m80 75.06a.07.07 0 0 1 0 0h.25a0 0 0 0 1 .06 0l-1.22 4a.07.07 0 0 1 -.05 0h-.25s0 0 0 0zm.42-1.4a.07.07 0 0 1 0 0h.25a.06.06 0 0 1 .06 0l-.18.6a.09.09 0 0 1 -.06 0h-.24a.06.06 0 0 1 -.06 0zm-55.94 1.4a.07.07 0 0 1 .05 0h.25a.06.06 0 0 1 .06 0s0 0 0 0l-1.21 4a.1.1 0 0 1 -.05 0h-.28a.06.06 0 0 1 -.06 0zm.41-1.4a.07.07 0 0 1 .06 0h.25a0 0 0 0 1 .05 0l-.18.6a.1.1 0 0 1 -.05 0h-.25a.06.06 0 0 1 -.06 0s0 0 0 0zm73 0a.06.06 0 0 1 .06 0l-1 3.42c-.42 1.28-.06 1.92 1.05 1.92a2.07 2.07 0 0 0 1.44-.52 3 3 0 0 0 .8-1.36l1-3.41a.07.07 0 0 1 .06 0h.24a0 0 0 0 1 .06 0l-1.07 3.54a2.93 2.93 0 0 1 -1 1.5 2.59 2.59 0 0 1 -1.65.55 1.49 1.49 0 0 1 -1.34-.57 1.76 1.76 0 0 1 -.07-1.52l1.06-3.53a.05.05 0 0 1 .06 0zm-4.15 0a.07.07 0 0 1 0 0h.26s0 0 .06 0a0 0 0 0 1 0 0l-1.54 5.12h2.81a.06.06 0 0 1 .06 0s0 0 0 0l-.07.25a.05.05 0 0 1 0 0h-3.18a0 0 0 0 1 -.06 0zm-6.41 4.54a1.3 1.3 0 0 0 1.36.75 2.51 2.51 0 0 0 1.85-.77 4.22 4.22 0 0 0 1-1.8 2.68 2.68 0 0 0 0-1.79 1.3 1.3 0 0 0 -1.35-.76 2.56 2.56 0 0 0 -1.85.78 4.22 4.22 0 0 0 -1 1.8 2.68 2.68 0 0 0 0 1.79zm.86-3.84a3 3 0 0 1 2.13-.86 1.61 1.61 0 0 1 1.65.87 3 3 0 0 1 0 2 4.55 4.55 0 0 1 -1.18 2 3 3 0 0 1 -2.14.85 1.61 1.61 0 0 1 -1.65-.81 3 3 0 0 1 0-2 4.6 4.6 0 0 1 1.19-2.05zm-3.85 2.35-1-3a0 0 0 0 1 0-.07h.31a.07.07 0 0 1 .06 0l.85 2.68 2.47-2.7h.28c.06 0 .09 0 0 .09l-2.78 3-.53 2.42a.06.06 0 0 1 -.06 0h-.25s0 0 0 0zm-9.18-3a.1.1 0 0 1 0 0h.26a.1.1 0 0 1 0 0l1.85 4.85 1.45-4.85a.09.09 0 0 1 .06 0h.25a.05.05 0 0 1 .05 0l-1.63 5.44a.07.07 0 0 1 -.06 0h-.24s0 0-.06 0l-1.86-4.84-1.45 4.84a.07.07 0 0 1 0 0h-.25a.07.07 0 0 1 -.06 0 0 0 0 0 1 0 0zm-4.34 0a.1.1 0 0 1 .05 0h3.32a.06.06 0 0 1 .06 0s0 0 0 0l-.07.25a.05.05 0 0 1 0 0h-3l-.64 2.14h2.35a.06.06 0 0 1 .06 0 0 0 0 0 1 0 0l-.07.23a.08.08 0 0 1 -.05 0h-2.48l-.71 2.36h3.07s.05 0 .05 0l-.07.24a.07.07 0 0 1 0 0h-3.4a.06.06 0 0 1 -.06 0zm-3.72 3-.95-3a0 0 0 0 1 0-.06h.32a.1.1 0 0 1 .05 0l.85 2.69 2.47-2.71h.28c.06 0 .09 0 0 .09l-2.78 3-.71 2.38a.07.07 0 0 1 -.06 0h-.24s-.06 0-.06 0zm-7.57-3a.09.09 0 0 1 .06 0h.25a.13.13 0 0 1 .06 0l1.85 4.85 1.45-4.85a.1.1 0 0 1 0 0h.25a.06.06 0 0 1 .06 0l-1.63 5.44a.07.07 0 0 1 -.06 0h-.25a.1.1 0 0 1 0 0l-1.86-4.84-1.45 4.84a.07.07 0 0 1 -.06 0h-.2s-.06 0-.06 0zm-1.57 0a.1.1 0 0 1 0 0h.25a0 0 0 0 1 .05 0l-1.63 5.44a.1.1 0 0 1 0 0h-.25a.07.07 0 0 1 -.06 0zm-5.25 0a.1.1 0 0 1 0 0h.29a.1.1 0 0 1 0 0l1.85 4.85 1.46-4.85a.1.1 0 0 1 0 0h.25a.06.06 0 0 1 .06 0s0 0 0 0l-1.52 5.42a.1.1 0 0 1 -.05 0h-.25a.1.1 0 0 1 0 0l-1.86-4.84-1.46 4.84a0 0 0 0 1 0 0h-.25a.05.05 0 0 1 -.05 0s0 0 0 0zm-2.66 3.29-.23-2.85-2 2.85zm-.29-3.33h.05.29a.06.06 0 0 1 0 0l.44 5.44a.06.06 0 0 1 -.06.06h-.25a0 0 0 0 1 -.05 0l-.15-1.8h-2.4l-1.25 1.83h-.05-.25s-.07 0 0-.09zm-7.34 0a.09.09 0 0 1 .06 0h.36a.05.05 0 0 1 0 0l.81 3.71 3-3.74h.35a.06.06 0 0 1 .06 0s0 0 0 0l-1.56 5.49a.07.07 0 0 1 0 0h-.23s0 0 0 0l1.46-4.85-2.94 3.6h-.29s0 0-.06-.05l-.84-3.61-1.48 4.92a.1.1 0 0 1 0 0h-.23a.05.05 0 0 1 -.05 0zm-3.89 0a.1.1 0 0 1 0 0h.26a.06.06 0 0 1 .06 0s0 0 0 0l-1.53 5.13h2.8s.05 0 .05.05 0 0 0 0l-.07.24a.07.07 0 0 1 -.06 0h-3.04s-.06 0-.06 0zm-6.39 4.53a1.3 1.3 0 0 0 1.36.8 2.51 2.51 0 0 0 1.85-.77 4.16 4.16 0 0 0 1-1.8 2.72 2.72 0 0 0 0-1.78 1.3 1.3 0 0 0 -1.36-.76 2.51 2.51 0 0 0 -1.85.77 4.28 4.28 0 0 0 -1 1.8 2.81 2.81 0 0 0 0 1.79zm.86-3.84a3 3 0 0 1 2.12-.86 1.63 1.63 0 0 1 1.65.87 3 3 0 0 1 0 2 4.49 4.49 0 0 1 -1.18 2 3 3 0 0 1 -2.14.85 1.61 1.61 0 0 1 -1.64-.86 3 3 0 0 1 0-2 4.53 4.53 0 0 1 1.19-2zm-6.26-.36-.74 2.32h1a3.94 3.94 0 0 0 1.28-.14 1.58 1.58 0 0 0 .93-1.11c.19-.62 0-1-.61-1.07a6.12 6.12 0 0 0 -.85 0zm2.83 1.17a2.16 2.16 0 0 1 -.75 1.1 2 2 0 0 1 -.87.37 5 5 0 0 1 -.86.06h-1.16l-.75 2.47a.1.1 0 0 1 -.05 0h-.26a.05.05 0 0 1 -.05 0l1.63-5.44a.07.07 0 0 1 .06 0h1.49c1.32 0 1.88.5 1.58 1.51zm-10-1.47a.07.07 0 0 1 0 0h.26a0 0 0 0 1 .05 0l-.62 2.3h3.32l.72-2.38a.07.07 0 0 1 .05 0h.25a.07.07 0 0 1 .06 0 0 0 0 0 1 0 0l-1.66 5.51a.1.1 0 0 1 -.05 0h-.25a.06.06 0 0 1 -.06 0s0 0 0 0l.81-2.72h-3.29l-.83 2.75a.1.1 0 0 1 0 0h-.33a0 0 0 0 1 -.05 0zm-2.63 3.3-.23-2.85-2 2.85zm-.29-3.34h.05.3a.06.06 0 0 1 .06 0l.43 5.44a.07.07 0 0 1 0 .06h-.26s-.05 0-.06 0l-.17-1.84h-2.48l-1.25 1.82h-.27a.06.06 0 0 1 -.05-.09zm-6.94 3.74a.06.06 0 0 1 .06 0 1.31 1.31 0 0 0 .12 1.09 1.14 1.14 0 0 0 1 .39 2.13 2.13 0 0 0 1.11-.24 1.59 1.59 0 0 0 .75-.92.76.76 0 0 0 -.21-.89 2.91 2.91 0 0 0 -.95-.38h-.09a2.53 2.53 0 0 1 -1.07-.51 1 1 0 0 1 -.12-1 1.87 1.87 0 0 1 .83-1.1 2.33 2.33 0 0 1 1.28-.37 1.36 1.36 0 0 1 1.14.44 1.32 1.32 0 0 1 .18 1.23.07.07 0 0 1 -.06 0h-.24a.06.06 0 0 1 -.06 0s0 0 0 0a1 1 0 0 0 -.13-1 1.16 1.16 0 0 0 -.92-.33 1.79 1.79 0 0 0 -1 .29 1.49 1.49 0 0 0 -.65.88.7.7 0 0 0 .1.68 2 2 0 0 0 .91.42h.11a3.48 3.48 0 0 1 1.07.45.94.94 0 0 1 .28 1.11 2.12 2.12 0 0 1 -.91 1.21 2.64 2.64 0 0 1 -1.42.39 1.43 1.43 0 0 1 -1.21-.5 1.58 1.58 0 0 1 -.16-1.34.05.05 0 0 1 .05 0z"/><path d="m12.75 44.73-7.98 34.55h-4.77l7.98-34.55z"/><path d="m21.19 46.93a12.86 12.86 0 0 1 1.45-1.1 9.72 9.72 0 0 1 5.28-1.6c3.24 0 7 2 7 6.21a14.45 14.45 0 0 1 -.53 3.87l-3.26 13.88h-4.77l3.33-14.4a9.94 9.94 0 0 0 .31-2.49c0-1.44-.74-3-3.33-3a6.84 6.84 0 0 0 -4.28 1.41c-1.79 1.45-2.57 3.29-3.47 7.11l-2.64 11.37h-4.82l5.41-23.4h4.82z"/><path d="m50 44.8-.9 3.94h-3.92l-2.76 11.84a17.5 17.5 0 0 0 -.5 2.77c0 .7.41.86 1.14.86a3.36 3.36 0 0 0 .63-.06l1.84-.32.78-.13-.91 3.82-.24.1a9.49 9.49 0 0 1 -3.76.71c-3 0-4.23-1.6-4.23-3.65a16.75 16.75 0 0 1 .54-3.59l2.85-12.36h-3.56l.9-3.93z"/><path d="m80.26 46.93c.23-.22.5-.46.83-.73s.42-.37.68-.57a6.6 6.6 0 0 1 1-.6 6.67 6.67 0 0 1 3-.66 6.31 6.31 0 0 1 1 .05l.57.08-1 4.49h-.43a6.34 6.34 0 0 0 -3.91.71c-2.72 1.63-3.69 5.5-4.17 7.56l-2.49 10.93h-4.68l5.34-23.4h4.73z"/><path d="m106.87 60.46-.26.63a13.17 13.17 0 0 1 -5.35 6.28 12.09 12.09 0 0 1 -6 1.34 10.34 10.34 0 0 1 -6.2-1.71c-3.64-2.58-3.72-6.87-3.72-8.15 0-7.46 4.84-14.57 13-14.57 5.84 0 8.94 3.35 9.25 7.22v.44l-4.42 1.06-.12-.51c-.33-1.45-1-4.15-4.85-4.15-5 0-8 5.46-8 10.25 0 3.33 1.7 6.36 5.37 6.36a5.8 5.8 0 0 0 3.32-1 6.91 6.91 0 0 0 2.79-3.73l.14-.39z"/><path d="m69.9 61-.24.6c-2.44 6-7.89 7.16-11.21 7.16-5.85 0-9.68-3.8-9.68-10 0-6.9 4.44-14.47 12.91-14.47 6.2 0 8.92 4.16 8.92 9.68a16.2 16.2 0 0 1 -.29 3l-.07.43h-16.72c0 .39-.05.75-.05 1.14 0 5.28 3.93 6.27 5.79 6.27a6.38 6.38 0 0 0 2.24-.44 6.47 6.47 0 0 0 3.7-3.81l.16-.37zm-4-7.33c0-.17 0-.32 0-.48 0-3.41-2.28-5-4.46-5-1.43 0-5.17.82-7 5.51z"/><path d="m117.48 44.73-7.97 34.55h-4.77l7.97-34.55z"/><path d="m131.3 44.8-.9 3.94h-3.94l-2.75 11.84a16.46 16.46 0 0 0 -.51 2.77c0 .7.41.86 1.14.86a3.36 3.36 0 0 0 .63-.06l1.84-.32.78-.13-.91 3.82-.24.1a9.49 9.49 0 0 1 -3.76.71c-3 0-4.23-1.6-4.23-3.65a16.75 16.75 0 0 1 .54-3.59l2.84-12.36h-3.56l.9-3.94h12.13z"/><path d="m153.26 44.8-17.37 29.31c-2 3.38-3.21 5-7.71 5a14.5 14.5 0 0 1 -2.63-.2l-.57-.08 1-4.26.49.08a9.22 9.22 0 0 0 1.66.14 4.26 4.26 0 0 0 .87-.07 3.78 3.78 0 0 0 1.2-.48 4.08 4.08 0 0 0 1-1c.35-.48.65-1 .81-1.22l2.85-4.86-2.51-22.36h4.71l1.64 16.65 9.21-16.65z"/><path d="m135.73 0a30 30 0 0 0 -30 30 29.81 29.81 0 0 0 5.45 17.22l.77-3.35h6.64v.07h19.27l1.43 14.56 8.06-14.56h7.49l-8.29 14a30 30 0 0 0 -10.82-57.94zm-15.38 10.29a1.62 1.62 0 0 1 1.37-1.47h.31a1.06 1.06 0 0 1 1.25.83s0 .05 0 .07v.2l.59 17.22-2.17-2.75a1.88 1.88 0 0 0 -2.08-.52zm-4.93 12.21a1.62 1.62 0 0 1 1.35-1.5h.25a1.06 1.06 0 0 1 1.27.81 1.24 1.24 0 0 1 0 .27v2.69a2.16 2.16 0 0 0 -.56 2.93l.49.62v2.05a1.6 1.6 0 0 1 -1.34 1.49h-.25a1.06 1.06 0 0 1 -1.27-.81 1.24 1.24 0 0 1 0-.27zm-4 1.46a1.6 1.6 0 0 1 1.34-1.49h.15a1.08 1.08 0 0 1 1.28.81.86.86 0 0 1 0 .28l-.11 6.4a1.62 1.62 0 0 1 -1.35 1.49h-.15a1.06 1.06 0 0 1 -1.27-.81 1.24 1.24 0 0 1 0-.27zm18.71 17.04a2.36 2.36 0 1 1 2.35-2.35 2.36 2.36 0 0 1 -2.35 2.35zm2.75-30c-1.21 5.36-4.52 18.75-4.78 19.9l-.32 1.83-.39 2.24a6.79 6.79 0 0 1 -6.39 5.81h-5.39a4.77 4.77 0 0 1 -5-4.6 5.25 5.25 0 0 1 .12-1.25l.4-2.24.13-.93a1.71 1.71 0 0 0 1.23.56 2.71 2.71 0 0 0 2.06-1 2.21 2.21 0 0 0 2.12 1.28c1.52 0 2.64-.58 2.76-2.73l3.9 4.93.74-.58-5.65-7.22a1.34 1.34 0 0 1 .35-1.83l.33-.28a1.29 1.29 0 0 1 1.83 0l5.74 7.24.78-.61-3.19-4 5.33-16.74a3.85 3.85 0 0 1 .63-1.38 1.79 1.79 0 0 1 1.52-.75h.23a1 1 0 0 1 .86.67 2.26 2.26 0 0 1 .05 1.68zm16.38 21.78h-11.62a4.25 4.25 0 0 0 -.13 1.17v.38a3.5 3.5 0 0 0 3.62 3.38 4.94 4.94 0 0 0 4.36-2.85l3.38 2.08a9.17 9.17 0 0 1 -3.69 3.18 10 10 0 0 1 -4.28.9c-4.42 0-7.5-2.61-7.5-7.33 0-4 2.28-10.22 9.11-10.22 5.42 0 7 3.92 7 7a10 10 0 0 1 -.25 2.27z"/><path d="m142.53 26.38c-2.11 0-3.49 1.41-4.22 3.42h7.13c.17-2.68-1.57-3.42-2.91-3.42z"/></svg>