<svg xmlns="http://www.w3.org/2000/svg" viewBox="0 0 71.61 58.71"><g id="Layer_2" data-name="Layer 2"><g id="Layer_2-2" data-name="Layer 2"><g id="Group_39568" data-name="Group 39568"><g id="Line_241" data-name="Line 241"><rect x="44.81" y="6.5" width="17.25" height="2.5"/></g><g id="Line_242" data-name="Line 242"><rect x="47.39" y="12.3" width="14.68" height="2.5"/></g><g id="Path_52929" data-name="Path 52929"><rect x="62.58" y="24.53" width="2.5" height="22.77"/></g><g id="Path_52930" data-name="Path 52930"><path d="M9,47.29H6.53V17.08a5.36,5.36,0,0,1,5.33-5.34H24.15v2.5H11.87A2.85,2.85,0,0,0,9,17.08Z"/></g><g id="Path_52931" data-name="Path 52931"><path d="M65.21,58.71H6.4C1.49,58.71.08,52.33,0,52.06a1.22,1.22,0,0,1,.25-1,1.23,1.23,0,0,1,1-.47H70.36a1.23,1.23,0,0,1,1,.47,1.22,1.22,0,0,1,.25,1C71.53,52.33,70.13,58.71,65.21,58.71ZM3,53.05c.56,1.37,1.64,3.16,3.44,3.16H65.21c1.8,0,2.88-1.79,3.44-3.16Z"/></g><g id="Group_39567" data-name="Group 39567"><g id="Group_39566" data-name="Group 39566"><g id="Path_52932" data-name="Path 52932"><path d="M35.85,31.12c-4,0-7.83-5-8.39-10.84-.31-3.27-.32-6.6,1.65-8.77C30.53,10,32.73,9.2,35.85,9.2s5.32.75,6.73,2.31c2,2.17,2,5.5,1.66,8.77C43.67,26.25,39.91,31.12,35.85,31.12Zm0-19.42c-2.37,0-4,.48-4.89,1.49-1.32,1.46-1.27,4.15-1,6.85.46,4.91,3.5,8.58,5.9,8.58S41.28,25,41.75,20c.25-2.7.31-5.39-1-6.85C39.82,12.18,38.22,11.7,35.85,11.7Z"/></g><g id="Path_52933" data-name="Path 52933"><path d="M42.92,20a1.22,1.22,0,0,1-.32,0,13.2,13.2,0,0,1-4.52-2.2,9.38,9.38,0,0,1-4.62,1.84,1.25,1.25,0,0,1-.4-2.47c3.06-.5,3.77-1.67,3.78-1.68a1.21,1.21,0,0,1,.88-.69,1.24,1.24,0,0,1,1.08.34,10.49,10.49,0,0,0,4.44,2.44A1.25,1.25,0,0,1,42.92,20Z"/></g></g></g><g id="Path_52934" data-name="Path 52934"><path d="M67.84,21.29H47.35v-2.5H66.59V2.5H39.78V6.31h-2.5V1.25A1.25,1.25,0,0,1,38.53,0H67.84a1.25,1.25,0,0,1,1.25,1.25V20A1.25,1.25,0,0,1,67.84,21.29Z"/></g><g id="Path_52935" data-name="Path 52935"><path d="M22.83,47.3h-2.5V39.35c0-5.27,6-6.82,6.23-6.88l2.6-.8a1.27,1.27,0,0,1,1.34.42l5.31,6.62,5.3-6.62a1.27,1.27,0,0,1,1.34-.42l2.67.81c.19.05,6.16,1.6,6.16,6.87v7.94h-2.5V39.35c0-3.31-4.16-4.41-4.33-4.46l-1.92-.58-5.75,7.18a1.3,1.3,0,0,1-2,0l-5.75-7.18-1.86.57c-.23.06-4.39,1.16-4.39,4.47Z"/></g><g id="Line_243" data-name="Line 243"><path d="M49.53,26.88a1.27,1.27,0,0,1-.8-.29,1.25,1.25,0,0,1-.16-1.76l4.64-5.55a1.25,1.25,0,1,1,1.91,1.6l-4.63,5.55A1.24,1.24,0,0,1,49.53,26.88Z"/></g></g></g></g></svg>