<svg xmlns="http://www.w3.org/2000/svg" viewBox="0 0 54.51 67.38"><g id="Layer_2" data-name="Layer 2"><g id="Layer_2-2" data-name="Layer 2"><g id="Group_39575" data-name="Group 39575"><g id="Group_39572" data-name="Group 39572"><g id="Group_39569" data-name="Group 39569"><g id="Path_52937" data-name="Path 52937"><path d="M50.48,17.64H37.3a1.25,1.25,0,0,1-1.25-1.25V2.68A1.25,1.25,0,0,1,37.3,1.43h7.44a1.25,1.25,0,0,1,0,2.5H38.55V15.14H50.48a1.25,1.25,0,1,1,0,2.5Z"/></g><g id="Path_52938" data-name="Path 52938"><path d="M45.31,12.76a1.2,1.2,0,0,1-.92-.41l-3.3-3.66A1.25,1.25,0,1,1,42.94,7l2.3,2.56,7-9.08a1.25,1.25,0,0,1,2,1.52l-8,10.27a1.23,1.23,0,0,1-.94.48Z"/></g></g><g id="Group_39570" data-name="Group 39570"><g id="Path_52939" data-name="Path 52939"><path d="M50.48,42.4H37.3a1.25,1.25,0,0,1-1.25-1.25V27.44a1.25,1.25,0,0,1,1.25-1.25h7.44a1.25,1.25,0,0,1,0,2.5H38.55V39.9H50.48a1.25,1.25,0,0,1,0,2.5Z"/></g><g id="Path_52940" data-name="Path 52940"><path d="M45.31,37.52a1.23,1.23,0,0,1-.92-.41l-3.3-3.66a1.25,1.25,0,1,1,1.85-1.68l2.3,2.56,7-9.09a1.25,1.25,0,0,1,2,1.53L46.3,37a1.23,1.23,0,0,1-.94.48Z"/></g></g><g id="Group_39571" data-name="Group 39571"><g id="Path_52941" data-name="Path 52941"><path d="M50.48,67.16H37.3a1.25,1.25,0,0,1-1.25-1.25V52.2A1.25,1.25,0,0,1,37.3,51h7.44a1.25,1.25,0,0,1,0,2.5H38.55V64.66H50.48a1.25,1.25,0,0,1,0,2.5Z"/></g><g id="Path_52942" data-name="Path 52942"><path d="M45.31,62.28a1.23,1.23,0,0,1-.92-.41l-3.3-3.66a1.25,1.25,0,1,1,1.85-1.68l2.3,2.56,7-9.09a1.25,1.25,0,0,1,2,1.53l-8,10.27a1.23,1.23,0,0,1-.94.48Z"/></g></g></g><g id="Group_39574" data-name="Group 39574"><g id="Path_52943" data-name="Path 52943"><path d="M14.05,14.85h0a6.85,6.85,0,0,1,0-13.69h0A6.85,6.85,0,0,1,20.89,8h0a6.85,6.85,0,0,1-6.84,6.84Zm0-11.19a4.35,4.35,0,1,0,0,8.69h0a4.35,4.35,0,0,0,0-8.69Z"/></g><g id="Path_52944" data-name="Path 52944"><path d="M21.36,46.75v-2.5c2.82,0,4.25-2.08,4.25-6.18V26.22A6.22,6.22,0,0,0,19.43,20H8.68A6.21,6.21,0,0,0,2.5,26.22V38.07c0,4.1,1.43,6.18,4.24,6.18v2.5C2.46,46.75,0,43.59,0,38.07V26.22a8.71,8.71,0,0,1,8.67-8.68H19.43a8.72,8.72,0,0,1,8.68,8.67V38.07C28.11,43.59,25.65,46.75,21.36,46.75Z"/></g><g id="Group_39573" data-name="Group 39573"><g id="Line_244" data-name="Line 244"><rect x="20.18" y="28.46" width="2.5" height="38.92"/></g><g id="Line_245" data-name="Line 245"><rect x="12.8" y="45.82" width="2.5" height="21.56"/></g><g id="Line_246" data-name="Line 246"><rect x="5.43" y="28.46" width="2.5" height="38.92"/></g></g></g></g></g></g></svg>