<svg xmlns="http://www.w3.org/2000/svg" viewBox="0 0 65.9 58.26"><g id="Layer_2" data-name="Layer 2"><g id="Layer_2-2" data-name="Layer 2"><g id="Group_39582" data-name="Group 39582"><g id="Line_253" data-name="Line 253"><rect y="55.76" width="65.9" height="2.5"/></g><g id="Group_39581" data-name="Group 39581"><g id="Path_52951" data-name="Path 52951"><path d="M54.48,11.74h0a5.87,5.87,0,1,1,5.87-5.87h0a5.87,5.87,0,0,1-5.87,5.87Zm0-9.24a3.37,3.37,0,1,0,0,6.74h0a3.38,3.38,0,0,0,3.37-3.37A3.37,3.37,0,0,0,54.48,2.5Z"/></g><g id="Path_52952" data-name="Path 52952"><path d="M59,52h0a1.25,1.25,0,0,1-1.22-1.28l.39-16a1.25,1.25,0,0,1,.83-1.15c1.17-.42,2.38-1.33,2.31-2.07L60,19.39a2,2,0,0,0-1.95-1.75H50.88A2,2,0,0,0,49,19.41L47.73,31.55c-.08.74,1.14,1.65,2.31,2.07a1.28,1.28,0,0,1,.83,1.15l.38,16A1.25,1.25,0,0,1,50,52a1.28,1.28,0,0,1-1.28-1.22l-.36-15.18c-1.72-.83-3.35-2.34-3.15-4.34l1.22-12.16a4.55,4.55,0,0,1,4.39-4h7.23a4.56,4.56,0,0,1,4.42,4L63.73,31.3c.2,2-1.43,3.51-3.15,4.34l-.37,15.18A1.25,1.25,0,0,1,59,52Z"/></g><g id="Line_254" data-name="Line 254"><path d="M7.2,52.5A1.25,1.25,0,0,1,6,51.25V37.15a1.25,1.25,0,0,1,2.5,0v14.1A1.25,1.25,0,0,1,7.2,52.5Z"/></g><g id="Path_52953" data-name="Path 52953"><path d="M14.34,52.5a1.25,1.25,0,0,1-1.25-1.25V37.15a1.25,1.25,0,0,1,1.25-1.25h3.29l-6.86-9.84L2.54,37.87a1.26,1.26,0,0,1-1.74.31,1.24,1.24,0,0,1-.31-1.74L9.75,23.16a1.26,1.26,0,0,1,1-.53h0a1.26,1.26,0,0,1,1,.53l9.25,13.28a1.23,1.23,0,0,1,.08,1.29A1.25,1.25,0,0,1,20,38.4H15.59V51.25A1.25,1.25,0,0,1,14.34,52.5Z"/></g><g id="Line_255" data-name="Line 255"><path d="M27.78,52.5a1.25,1.25,0,0,1-1.25-1.25V25A1.25,1.25,0,0,1,29,25v26.3A1.25,1.25,0,0,1,27.78,52.5Z"/></g><g id="Path_52954" data-name="Path 52954"><path d="M34.92,52.5a1.25,1.25,0,0,1-1.25-1.25V25a1.25,1.25,0,0,1,1.25-1.25h3.29l-6.85-9.84L23.12,25.67a1.25,1.25,0,0,1-2.05-1.43L30.33,11a1.27,1.27,0,0,1,1-.53h0a1.24,1.24,0,0,1,1,.53l9.25,13.28a1.25,1.25,0,0,1,.09,1.29,1.27,1.27,0,0,1-1.11.67H36.17V51.25A1.24,1.24,0,0,1,34.92,52.5Z"/></g></g></g></g></g></svg>