<svg xmlns="http://www.w3.org/2000/svg" viewBox="0 0 71.07 68.6"><g id="Layer_2" data-name="Layer 2"><g id="Layer_2-2" data-name="Layer 2"><g id="Group_39580" data-name="Group 39580"><g id="Group_39578" data-name="Group 39578"><g id="Line_247" data-name="Line 247"><path d="M19.38,68.6a1.25,1.25,0,0,1-1.25-1.25v-18a1.25,1.25,0,0,1,2.5,0v18A1.25,1.25,0,0,1,19.38,68.6Z"/></g><g id="Group_39576" data-name="Group 39576"><g id="Path_52945" data-name="Path 52945"><path d="M13.07,68.6a1.26,1.26,0,0,1-1.25-1.14L10.24,49.53l-1.92.59c-.29.07-5.82,1.53-5.82,6V67.35a1.25,1.25,0,0,1-2.5,0V56.13c0-6.44,7.34-8.35,7.65-8.42l3.33-1a1.27,1.27,0,0,1,1.07.16,1.24,1.24,0,0,1,.54.93l1.72,19.46a1.24,1.24,0,0,1-1.13,1.36Z"/></g><g id="Path_52946" data-name="Path 52946"><path d="M25.7,68.6h-.11a1.26,1.26,0,0,1-1.14-1.36l1.72-19.46a1.28,1.28,0,0,1,.55-.93,1.24,1.24,0,0,1,1.06-.16l3.39,1c.26.06,7.6,2,7.6,8.41V67.35a1.25,1.25,0,0,1-2.5,0V56.13c0-4.51-5.7-6-5.76-6l-2-.6L26.94,67.46A1.24,1.24,0,0,1,25.7,68.6Z"/></g></g><g id="Group_39577" data-name="Group 39577"><g id="Path_52947" data-name="Path 52947"><path d="M19.37,45.32c-4.9,0-9.63-6.17-10.32-13.47-.39-4.08-.41-8.22,2-10.89,1.73-1.9,4.45-2.83,8.31-2.83S26,19.06,27.68,21c2.43,2.67,2.41,6.81,2,10.89C29,39.15,24.28,45.32,19.37,45.32Zm0-24.69c-3.11,0-5.23.66-6.46,2-1.77,1.95-1.71,5.47-1.37,9,.62,6.61,4.63,11.21,7.83,11.21s7.21-4.6,7.84-11.21c.33-3.5.4-7-1.38-9C24.6,21.29,22.49,20.63,19.37,20.63Z"/></g><g id="Path_52948" data-name="Path 52948"><path d="M15.2,30.71a1.25,1.25,0,0,1-.08-2.5c5.17-.32,6.21-3.34,6.26-3.46a1.25,1.25,0,0,1,2.39.72c-.06.19-1.49,4.8-8.5,5.24Z"/></g><g id="Path_52949" data-name="Path 52949"><path d="M28.36,31.17a1.13,1.13,0,0,1-.32-.05,22.4,22.4,0,0,1-7-3.25,1.25,1.25,0,1,1,1.42-2.05,20.1,20.1,0,0,0,6.27,2.89,1.25,1.25,0,0,1-.32,2.46Z"/></g></g></g><g id="Path_52950" data-name="Path 52950"><path d="M38.76,35.29a1.25,1.25,0,0,1-.84-2.18l6.2-5.61h-9a1.25,1.25,0,0,1-1.25-1.25v-25A1.25,1.25,0,0,1,35.08,0H69.82a1.25,1.25,0,0,1,1.25,1.25v25a1.25,1.25,0,0,1-1.25,1.25H53.07a1.25,1.25,0,1,1,0-2.5h15.5V2.5H36.33V25h11a1.26,1.26,0,0,1,.84,2.18L39.6,35A1.24,1.24,0,0,1,38.76,35.29Z"/></g><g id="Group_39579" data-name="Group 39579"><g id="Line_248" data-name="Line 248"><rect x="39.9" y="17.44" width="2.5" height="4.43"/></g><g id="Line_249" data-name="Line 249"><rect x="45.55" y="13.35" width="2.5" height="8.53"/></g><g id="Line_250" data-name="Line 250"><rect x="62.51" y="12.63" width="2.5" height="9.25"/></g><g id="Line_251" data-name="Line 251"><rect x="51.2" y="5.56" width="2.5" height="16.32"/></g><g id="Line_252" data-name="Line 252"><rect x="56.86" y="9.56" width="2.5" height="12.32"/></g></g></g></g></g></svg>