<svg xmlns="http://www.w3.org/2000/svg" viewBox="0 0 56.55 61.48"><g id="Layer_2" data-name="Layer 2"><g id="Layer_2-2" data-name="Layer 2"><g id="Group_39586" data-name="Group 39586"><g id="Path_52955" data-name="Path 52955"><polygon points="8.55 37.38 0 37.38 0 0 49.56 0 49.56 6.17 47.06 6.17 47.06 2.5 2.5 2.5 2.5 34.88 8.55 34.88 8.55 37.38"/></g><g id="Group_39583" data-name="Group 39583"><g id="Path_52958" data-name="Path 52958"><path d="M15.72,61.48l-.41-3.35a1.75,1.75,0,0,0-1.84-1.74H5.91A1.77,1.77,0,0,0,4,58.05l-.42,3.42-2.48-.31.41-3.33A4.23,4.23,0,0,1,6,53.9h7.44a4.27,4.27,0,0,1,4.39,4l.4,3.26Z"/></g><g id="Path_52959" data-name="Path 52959"><path d="M30.31,61.48l-.41-3.35a1.77,1.77,0,0,0-1.84-1.74H20.5a1.82,1.82,0,0,0-1.89,1.66l-.41,3.42-2.48-.3.4-3.34a4.23,4.23,0,0,1,4.44-3.93H28a4.25,4.25,0,0,1,4.38,4l.41,3.26Z"/></g><g id="Path_52960" data-name="Path 52960"><path d="M44.9,61.48l-.41-3.35a1.75,1.75,0,0,0-1.84-1.74H35.09a1.79,1.79,0,0,0-1.88,1.66l-.42,3.43-2.48-.31.41-3.34a4.24,4.24,0,0,1,4.43-3.93h7.44a4.28,4.28,0,0,1,4.39,4l.4,3.27Z"/></g></g><g id="Path_52962" data-name="Path 52962"><path d="M52.27,55.32h0A1.25,1.25,0,0,1,51,54l.35-14.37a1.26,1.26,0,0,1,.82-1.15c1-.34,1.92-1.08,1.86-1.73l-1-10.94a1.69,1.69,0,0,0-1.64-1.44H45a1.68,1.68,0,0,0-1.61,1.48l-1,10.89a1.24,1.24,0,0,1-1.35,1.14A1.26,1.26,0,0,1,40,36.56l1-10.93A4.23,4.23,0,0,1,45,21.91h6.5a4.21,4.21,0,0,1,4.09,3.68l1,11c.17,1.74-1.13,3.16-2.69,4L53.52,54.1A1.25,1.25,0,0,1,52.27,55.32Z"/></g><g id="Path_52963" data-name="Path 52963"><path d="M48.25,19.46a5.1,5.1,0,1,1,5.1-5.1h0A5.11,5.11,0,0,1,48.25,19.46Zm0-7.7a2.6,2.6,0,1,0,2.61,2.6A2.6,2.6,0,0,0,48.24,11.76Z"/></g><g id="Group_39584" data-name="Group 39584"><g id="Path_52964" data-name="Path 52964"><path d="M38.85,51.61a5.1,5.1,0,1,1,5.1-5.1A5.1,5.1,0,0,1,38.85,51.61Zm0-7.7a2.6,2.6,0,1,0,2.6,2.6A2.61,2.61,0,0,0,38.85,43.91Z"/></g><g id="Path_52965" data-name="Path 52965"><path d="M24.25,51.62a5.11,5.11,0,1,1,5.1-5.11A5.11,5.11,0,0,1,24.25,51.62Zm0-7.71a2.61,2.61,0,1,0,2.6,2.6A2.61,2.61,0,0,0,24.25,43.91Z"/></g><g id="Path_52966" data-name="Path 52966"><path d="M9.66,51.61a5.1,5.1,0,1,1,5.1-5.1h0A5.1,5.1,0,0,1,9.66,51.61Zm0-7.7a2.6,2.6,0,1,0,2.6,2.6A2.6,2.6,0,0,0,9.66,43.91Z"/></g></g><g id="Group_39585" data-name="Group 39585"><g id="Path_52967" data-name="Path 52967"><path d="M31.54,41.19a5.11,5.11,0,1,1,5.1-5.1h0A5.11,5.11,0,0,1,31.54,41.19Zm0-7.71a2.61,2.61,0,1,0,2.6,2.61A2.61,2.61,0,0,0,31.54,33.48Z"/></g><g id="Path_52968" data-name="Path 52968"><path d="M17,41.19a5.11,5.11,0,0,1-5.1-5.11A5.12,5.12,0,0,1,17,31h0a5.11,5.11,0,0,1,0,10.21Zm0-7.71a2.63,2.63,0,0,0-2.6,2.6,2.61,2.61,0,0,0,5.21,0h0a2.63,2.63,0,0,0-2.6-2.6Z"/></g></g></g></g></g></svg>